<?xml version="1.0" encoding="UTF-8"?>
<svg width="59px" height="77px" viewBox="0 0 59 77" version="1.1" xmlns="http://www.w3.org/2000/svg" xmlns:xlink="http://www.w3.org/1999/xlink">
    <title>hero_graphic_checkbox</title>
    <defs>
        <linearGradient x1="74.3473029%" y1="-33.1298602%" x2="78.6846102%" y2="45.3112847%" id="linearGradient-1">
            <stop stop-color="#6FE23A" offset="0%"></stop>
            <stop stop-color="#56AC2D" offset="100%"></stop>
        </linearGradient>
    </defs>
    <g id="Desktop" stroke="none" stroke-width="1" fill="none" fill-rule="evenodd">
        <g id="1-home-copy" transform="translate(-973.000000, -464.000000)" fill-rule="nonzero">
            <g id="hero_graphic_checkbox" transform="translate(973.000000, 463.997458)">
                <path d="M24.12,69.6 L49.408,56.2 C50.0765015,55.8098884 50.5102767,55.115848 50.568,54.344 L50.504,22.12 C50.504,21.44 49.984,21.168 49.336,21.504 L24.048,34.928 C23.3750353,35.3212444 22.9405962,36.0223392 22.888,36.8 L22.952,69.016 C22.952,69.688 23.472,69.968 24.12,69.6 Z" id="Path" fill="#E4E3E3"></path>
                <path d="M28.336,76.272 L56.8,61.168 C57.5534273,60.7306889 58.0416635,59.9489119 58.104,59.08 L58.032,22.824 C58.032,22.024 57.44,21.744 56.72,22.136 L28.256,37.24 C27.497467,37.6720159 27.0073379,38.456824 26.952,39.328 L27.016,75.584 C27.024,76.352 27.608,76.664 28.336,76.272 Z" id="Path" fill="#FFFFFF"></path>
                <path d="M32.632,52 L39.952,37.84 C41.048,35.728 42.96,34.64 44.216,35.44 L52.632,40.664 C53.888,41.464 54.016,43.8 52.928,45.92 L45.6,60.08 C44.512,62.2 42.6,63.28 41.344,62.48 L32.928,57.272 C31.672,56.488 31.536,54.136 32.632,52 Z" id="Path" fill="url(#linearGradient-1)"></path>
                <polygon id="Path" fill="#FFFFFF" points="37.048 51.424 40.16 49.544 41.92 51.92 45.592 41.192 47.448 42.432 42.152 57.448"></polygon>
                <path d="M26.568,26.168 L33.128,22.4 C33.304574,22.2843771 33.414731,22.090858 33.424,21.88 L33.424,12.84 C33.424,12.648 33.288,12.568 33.12,12.664 L26.568,16.432 C26.3893542,16.546758 26.2763638,16.740031 26.264,16.952 L26.264,25.992 C26.264,26.184 26.4,26.264 26.568,26.168 Z" id="Path" fill="#E4E3E3"></path>
                <polygon id="Path" fill="#CCCCD1" points="14.112 31.864 18.928 29.096 18.912 22.544 14.096 25.312"></polygon>
                <polygon id="Path" fill="#CCCCD1" points="18.888 16.152 22.128 14.296 22.12 9.888 18.88 11.752"></polygon>
                <polygon id="Path" fill="#CCCCD1" points="11.64 10.536 14.312 9 14.304 5.376 11.632 6.904"></polygon>
                <polygon id="Path" fill="#CCCCD1" points="3.936 10.176 6 8.992 5.992 6.192 3.928 7.376"></polygon>
                <polygon id="Path" fill="#CCCCD1" points="0.008 3.048 1.584 2.144 1.576 0 0 0.904"></polygon>
            </g>
        </g>
    </g>
</svg>