<svg width="901" height="802" viewBox="0 0 901 802" fill="none" xmlns="http://www.w3.org/2000/svg">
<path d="M2.80029 668.2L127.2 604.5L391.9 734.8L267.4 800.6L2.80029 668.2Z" fill="#010101" stroke="#010101" stroke-miterlimit="10" stroke-linecap="round" stroke-linejoin="round"/>
<path d="M897.3 668.2L772.9 604.5L508.2 734.8L632.7 800.6L897.3 668.2Z" fill="#010101" stroke="#010101" stroke-miterlimit="10" stroke-linecap="round" stroke-linejoin="round"/>
<path d="M446.8 605C543.229 605 621.4 563.049 621.4 511.3C621.4 459.551 543.229 417.6 446.8 417.6C350.371 417.6 272.2 459.551 272.2 511.3C272.2 563.049 350.371 605 446.8 605Z" fill="url(#paint0_linear_435_4995)" stroke="#010101" stroke-miterlimit="10" stroke-linecap="round" stroke-linejoin="round"/>
<path d="M621.4 140.8C621.4 192.5 543.2 234.5 446.8 234.5C350.4 234.5 273.2 192.6 273.2 140.8C273.2 89.0998 350.3 0.700195 446.8 0.700195C543.3 0.700195 621.4 89.0998 621.4 140.8Z" fill="url(#paint1_linear_435_4995)" stroke="#010101" stroke-miterlimit="10" stroke-linecap="round" stroke-linejoin="round"/>
<path d="M621.1 512.3V143.3L621.4 143.5C621.4 143.3 621.4 143.1 621.4 142.8C621.4 91.0998 543.2 49.0996 446.8 49.0996C366.8 49.0996 299.3 78.0004 278.7 117.4C275.8 123 273.1 135.4 273.1 135.4V503.1" fill="url(#paint2_linear_435_4995)"/>
<path d="M621.1 512.3V143.3L621.4 143.5C621.4 143.3 621.4 143.1 621.4 142.8C621.4 91.0998 543.2 49.0996 446.8 49.0996C366.8 49.0996 299.3 78.0004 278.7 117.4C275.8 123 273.1 135.4 273.1 135.4V503.1" stroke="#010101" stroke-miterlimit="10" stroke-linecap="round" stroke-linejoin="round"/>
<path d="M407.4 435.3L419 448.2L451.1 405.1L482.8 363.4L471.1 350.4C470 349.5 468 349.4 465.5 350.4C461.2 352.2 458.9 355.5 458.2 356.5L408.3 428.3L408.2 428.4C407.6 429.3 406.7 430.8 406.4 432.3C406 433.8 406.4 434.8 407.4 435.3Z" fill="url(#paint3_linear_435_4995)" stroke="#010101" stroke-miterlimit="10" stroke-linecap="round" stroke-linejoin="round"/>
<path d="M424.2 447.8C428.3 446.1 430.6 442.799 431.6 441.599L480.8 370.8L480.9 370.599C481.8 369.399 483.1 367.7 483.4 365.9C484 362.8 481.1 361.7 477 363.3C472.7 365.1 470.4 368.4 469.7 369.4L419.8 441.2L419.7 441.3C419.1 442.2 418.2 443.7 417.9 445.2C417.3 448.3 420.1 449.5 424.2 447.8Z" fill="#A1A7A7" stroke="#010101" stroke-miterlimit="10" stroke-linecap="round" stroke-linejoin="round"/>
<path d="M366.8 451.599L378.4 464.4L384.1 456.799L442.1 379.5L431.4 367.5C430.5 366.1 428.2 365.899 425.4 367.099C421.1 368.899 418.8 372.2 418.1 373.2L368.2 445L368.1 445.099C367.5 445.999 366.6 447.5 366.3 449C366.1 450 366.3 450.8 366.8 451.4V451.599Z" fill="url(#paint4_linear_435_4995)" stroke="#010101" stroke-miterlimit="10" stroke-linecap="round" stroke-linejoin="round"/>
<path d="M384.1 464.4C388.2 462.7 390.5 459.4 391.5 458.2L440.7 387.4L440.8 387.2C441.7 386 443 384.3 443.3 382.5C443.9 379.4 441 378.3 436.9 379.9C432.6 381.7 430.3 385 429.6 386L379.7 457.8L379.6 457.9C379 458.8 378.1 460.3 377.8 461.8C377.2 464.9 380.1 466.1 384.1 464.4Z" fill="#A1A7A7" stroke="#010101" stroke-miterlimit="10" stroke-linecap="round" stroke-linejoin="round"/>
<path d="M395.8 84.7999L387.2 99.9005L438.1 116.901L487.6 134L496.3 118.8C496.9 117.5 496.3 115.501 494.5 113.401C491.5 109.901 487.6 108.7 486.4 108.3L402.7 83.2003H402.6C401.5 82.9003 399.9 82.5003 398.3 82.7003C396.8 83.0003 396 83.6999 395.8 84.7999Z" fill="url(#paint5_linear_435_4995)" stroke="#010101" stroke-miterlimit="10" stroke-linecap="round" stroke-linejoin="round"/>
<path d="M389.101 104.6C392.001 108 395.801 109.2 397.301 109.7L479.901 134.401L480.101 134.5C481.501 135 483.601 135.701 485.401 135.401C488.501 135.001 488.701 131.9 485.901 128.6C482.901 125.1 479.001 123.9 477.801 123.5L394.101 98.4005H394.001C392.901 98.1005 391.301 97.7005 389.701 97.9005C386.501 98.3005 386.301 101.3 389.101 104.6Z" fill="url(#paint6_linear_435_4995)" stroke="#010101" stroke-width="1.1426" stroke-miterlimit="10" stroke-linecap="round" stroke-linejoin="round"/>
<path d="M367.701 51.2999L359.101 66.4005L368.001 69.4005L459.501 100.401L467.601 86.5001C468.601 85.2001 468.201 82.9997 466.101 80.5997C463.101 77.0997 459.201 75.9001 458.001 75.5001L374.301 50.4005H374.201C373.101 50.1005 371.501 49.7005 369.901 49.9005C368.901 50.0005 368.101 50.4997 367.701 51.0997V51.2999Z" fill="url(#paint7_linear_435_4995)" stroke="#010101" stroke-miterlimit="10" stroke-linecap="round" stroke-linejoin="round"/>
<path d="M360.9 71.7999C363.8 75.1999 367.6 76.4005 369.1 76.9005L451.7 101.6L451.9 101.7C453.3 102.2 455.4 102.9 457.2 102.6C460.3 102.2 460.5 99.0999 457.7 95.7999C454.7 92.2999 450.8 91.1003 449.6 90.7003L365.9 65.5997H365.8C364.7 65.2997 363.1 64.8997 361.5 65.0997C358.2 65.3997 358 68.3999 360.9 71.7999Z" fill="url(#paint8_linear_435_4995)" stroke="#010101" stroke-width="1.1426" stroke-miterlimit="10" stroke-linecap="round" stroke-linejoin="round"/>
<path d="M342.3 417.5L318 411.3C318 411.3 315.1 424.9 315.1 425C314.7 429.2 320.1 433.9 327.6 435.5L408.1 452.5C413.6 453.7 421.8 452.2 423 448.4L426 434.4L342.3 417.5Z" fill="#F58A6B" stroke="#010101" stroke-miterlimit="10" stroke-linecap="round" stroke-linejoin="round"/>
<path d="M306.2 465.1C305.4 469.1 311.2 473.6 319.3 475.3C327.4 477 334.6 475.2 335.4 471.2L338.5 456.4L309.2 451L306.2 465.1Z" fill="#F58A6B" stroke="#010101" stroke-miterlimit="10" stroke-linecap="round" stroke-linejoin="round"/>
<path d="M413.2 423.8L335.6 407.4C329.8 406.2 320 405.599 318 411.599C318 411.799 318 411.899 318 412.099H317.9L309.1 450.7C308 455.5 313.8 460.799 321.9 462.599C330 464.299 337.5 461.8 338.6 457L345.6 425.5L411 439.3C416.8 440.5 425.6 438.799 426 434.599C426.4 430.199 419 425.1 413.2 423.8Z" fill="url(#paint9_linear_435_4995)" stroke="#010101" stroke-miterlimit="10" stroke-linecap="round" stroke-linejoin="round"/>
<path d="M368 310.6L389 300.3C389 300.3 382.8 288.9 382.8 288.8C380.5 285.5 373.9 285.501 367.5 288.901L299.9 325.5C295.3 328 290.3 334.001 291.8 337.401L298.2 349.201L368 310.6Z" fill="#FFCE49" stroke="#010101" stroke-miterlimit="10" stroke-linecap="round" stroke-linejoin="round"/>
<path d="M364.9 254.9C363.1 251.6 356.2 251.9 349.4 255.5C342.6 259.2 338.6 264.799 340.4 268.099L347.1 280.599L371.3 266.8L364.9 254.9Z" fill="#FFCE49" stroke="#010101" stroke-miterlimit="10" stroke-linecap="round" stroke-linejoin="round"/>
<path d="M313.7 348.9L378.8 313.7C383.7 311 391 305.5 388.8 300.1C388.7 300 388.6 299.9 388.5 299.8H388.6L371.5 267C369.4 262.9 362 262.6 355.2 266.3C348.4 270 344.6 276.3 346.7 280.4L360.7 307.1L305.8 336.8C300.9 339.5 295.7 345.9 298 349.2C300.4 352.4 308.8 351.6 313.7 348.9Z" fill="url(#paint10_linear_435_4995)" stroke="#010101" stroke-miterlimit="10" stroke-linecap="round" stroke-linejoin="round"/>
<path d="M578.3 348.7V361.5C578.3 361.5 567.9 362 567.8 357.2C567.6 352.4 567.3 349.7 568.9 349.7C570.5 349.7 578.3 348.7 578.3 348.7Z" fill="#010101" stroke="#010101" stroke-width="1.1426" stroke-miterlimit="10" stroke-linecap="round" stroke-linejoin="round"/>
<path d="M577.8 366.9C577.5 366.6 577.1 366.3 576.6 366.1L572.5 364.1C571.6 363.7 570.6 363.4 569.5 363.3C565.3 361.4 561.8 359.6 559.9 358.2C551.7 352.4 538.1 347.5 531.9 344.9C525.7 342.3 515.9 338.2 511.7 338.5L485.6 340.3V360.6C485.6 360.6 485.7 360.6 485.8 360.5C486.1 360.9 486.5 361.3 487.2 361.7L491.5 363.8C493.5 364.8 496.6 364.9 498.8 364.1C505.1 361.9 506.9 362.2 512.5 365C515.2 366.3 517.3 367.5 519.6 368.8C521.9 370.1 524.2 371.4 527.1 372.9C534.2 376.4 543.1 377.2 551.3 376.5C549.6 380.8 552.2 385.1 558.8 388.4C561.6 389.8 564.6 391 567.7 392.4C570.9 393.8 574.2 395.2 577.3 396.7C577.4 396.8 577.5 396.8 577.6 396.9V404.6C577.5 405.4 578 406.2 579.2 406.8L583.6 409C584.7 409.5 586.2 409.8 587.7 409.8C589.1 409.8 590.5 409.5 591.5 409C591.6 409 591.6 408.9 591.7 408.9C597.9 405.5 602.1 401.2 602.3 396.9C602.3 396.7 602.3 396.4 602.3 396.2V376.8C602.5 376.5 589.6 371.9 577.8 366.9Z" fill="url(#paint11_linear_435_4995)" stroke="#010101" stroke-width="1.1426" stroke-miterlimit="10" stroke-linecap="round" stroke-linejoin="round"/>
<path d="M564.7 344.7C556.2 348.6 552.6 347.501 548.4 345.401C544.9 343.701 542.7 342.4 540.3 341.1C538 339.8 535.7 338.501 532.3 336.901C517.6 329.701 499.5 333.001 487.5 338.401C486.4 338.901 485.7 339.601 485.7 340.401C485.7 341.201 486.3 341.901 487.4 342.401L491.7 344.5C493.7 345.5 496.8 345.6 499 344.8C505.3 342.5 507.1 342.9 512.7 345.7C515.4 347 517.5 348.2 519.8 349.5C522.1 350.8 524.4 352.1 527.3 353.6C534.4 357.1 543.3 357.9 551.5 357.2C549.8 361.5 552.4 365.8 559 369.1C561.8 370.5 564.8 371.7 567.9 373.1C571.1 374.5 574.4 375.901 577.5 377.401C582.2 379.701 583.3 380.7 578.8 384C577.3 385.1 577.5 386.6 579.5 387.5L583.9 389.7C585 390.2 586.5 390.5 588 390.5C589.4 390.5 590.8 390.2 591.8 389.7C591.9 389.7 591.9 389.6 592 389.6C603.3 383.5 608.2 374.1 593.7 367C590.6 365.5 587.8 364.3 585.1 363.1C582.2 361.9 579.3 360.601 575.8 358.901C571.6 356.801 569.4 355.1 577.1 350.7C579 349.6 578.9 348.001 576.8 346.901L572.7 344.901C570.4 343.701 566.9 343.6 564.7 344.7Z" fill="url(#paint12_linear_435_4995)" stroke="#010101" stroke-miterlimit="10" stroke-linecap="round" stroke-linejoin="round"/>
<path d="M550.9 360.5V375.1" stroke="#010101" stroke-width="1.1426" stroke-miterlimit="10" stroke-linecap="round" stroke-linejoin="round"/>
<path d="M577.5 387.7V395.4" stroke="#010101" stroke-width="1.1426" stroke-miterlimit="10" stroke-linecap="round" stroke-linejoin="round"/>
<path d="M496.5 349.6V360.5" stroke="#010101" stroke-width="1.1426" stroke-miterlimit="10" stroke-linecap="round" stroke-linejoin="round"/>
<path d="M563.7 239.5L551 237.9C551 237.9 551.8 227.6 556.6 228C561.4 228.4 564.101 228.499 563.901 230.099C563.701 231.699 563.7 239.5 563.7 239.5Z" fill="#010101" stroke="#010101" stroke-width="1.1426" stroke-miterlimit="10" stroke-linecap="round" stroke-linejoin="round"/>
<path d="M545.6 236.7C545.9 236.5 546.3 236.1 546.6 235.6L549.1 231.8C549.6 231 550 230 550.2 228.9C552.6 225 554.8 221.8 556.4 220C563.1 212.6 569.8 199.8 573.1 193.9C576.4 188 581.8 178.9 582 174.7L583.5 148.6L563.3 146C563.3 146 563.3 146.1 563.4 146.3C562.9 146.5 562.5 146.9 562.1 147.6L559.5 151.6C558.3 153.4 557.8 156.5 558.3 158.8C559.7 165.3 559.1 167.1 555.7 172.3C554 174.8 552.6 176.8 551 178.8C549.4 180.9 547.8 183 546 185.8C541.6 192.4 539.7 201.1 539.4 209.3C535.3 207.1 530.7 209.1 526.7 215.2C525 217.8 523.4 220.6 521.6 223.5C519.8 226.5 518 229.6 516.1 232.4C516 232.5 516 232.6 515.9 232.7L508.3 231.7C507.5 231.5 506.7 231.9 505.9 233L503.2 237.1C502.5 238.1 502.1 239.6 501.9 241.1C501.7 242.5 501.9 243.9 502.2 245C502.2 245.1 502.2 245.1 502.3 245.2C504.9 251.7 508.6 256.5 512.9 257.3C513.1 257.3 513.4 257.4 513.6 257.4L532.9 259.8C533 260 539.2 247.8 545.6 236.7Z" fill="#A1A7A7" stroke="#010101" stroke-miterlimit="10" stroke-linecap="round" stroke-linejoin="round"/>
<path d="M569.3 226.5C566.5 217.6 568.1 214.1 570.7 210.2C572.8 206.9 574.3 204.9 575.9 202.7C577.4 200.6 579 198.5 581.1 195.3C590.1 181.6 589.1 163.199 585.2 150.599C584.8 149.399 584.2 148.699 583.5 148.599C582.8 148.499 582 149 581.3 150L578.7 154C577.5 155.8 577 158.9 577.5 161.2C578.9 167.7 578.3 169.5 574.9 174.7C573.2 177.2 571.8 179.2 570.2 181.2C568.6 183.3 567 185.4 565.2 188.2C560.8 194.8 558.9 203.5 558.6 211.7C554.5 209.5 549.9 211.499 545.9 217.599C544.2 220.199 542.6 223 540.8 225.9C539 228.9 537.2 232 535.3 234.8C532.4 239.2 531.3 240.2 528.6 235.3C527.7 233.6 526.2 233.7 525 235.5L522.3 239.599C521.6 240.599 521.2 242.099 521 243.599C520.8 244.999 521 246.4 521.3 247.5C521.3 247.6 521.3 247.6 521.4 247.7C526.1 259.7 534.7 265.7 543.6 252.2C545.5 249.3 547 246.7 548.5 244.2C550.1 241.5 551.7 238.7 553.9 235.5C556.5 231.6 558.4 229.6 561.9 237.8C562.7 239.8 564.4 239.9 565.7 238L568.2 234.2C569.6 232.3 570.1 228.8 569.3 226.5Z" fill="url(#paint13_linear_435_4995)" stroke="#010101" stroke-miterlimit="10" stroke-linecap="round" stroke-linejoin="round"/>
<path d="M555.4 210.8L540.9 209" stroke="#010101" stroke-width="1.1426" stroke-miterlimit="10" stroke-linecap="round" stroke-linejoin="round"/>
<path d="M525 233.9L517.4 232.9" stroke="#010101" stroke-width="1.1426" stroke-miterlimit="10" stroke-linecap="round" stroke-linejoin="round"/>
<path d="M573 158.2L562.2 156.8" stroke="#010101" stroke-width="1.1426" stroke-miterlimit="10" stroke-linecap="round" stroke-linejoin="round"/>
<path d="M447.5 494.5C447.7 494.4 447.9 494.2 448.1 494.2L464.4 484.7L477.5 502.7L529.2 547.9L512.3 557.8C510.4 558.8 508 558.6 506.1 557.2L453.4 519.7C448.5 516.2 444.7 507.8 444.7 500.9C445.1 497.4 446.1 495.5 447.5 494.5Z" fill="url(#paint14_linear_435_4995)" stroke="#010101" stroke-miterlimit="10" stroke-linecap="round" stroke-linejoin="round"/>
<path d="M470.1 509.901L522.8 547.401C526.6 550.101 532.1 548.401 532.1 541.401C532.1 534.401 527 525.101 523.2 522.401L472.5 486.3C468.7 483.6 462.4 481.6 461.5 491.1C461.4 498 465.2 506.401 470.1 509.901Z" fill="#FFF6DB" stroke="#010101" stroke-miterlimit="10" stroke-linecap="round" stroke-linejoin="round"/>
<path d="M424.7 476.2L440.6 466.9L457.6 495.9L440.9 505.6C440 506.2 438.8 506.6 437.8 506.3C431.2 504.6 427.3 499.4 426.1 497.8C423.1 493.7 421.2 487.9 421.2 482.8C421.6 478.9 422.9 476.9 424.7 476.2Z" fill="url(#paint15_linear_435_4995)" stroke="#010101" stroke-miterlimit="10" stroke-linecap="round" stroke-linejoin="round"/>
<path d="M455.5 496.7C458.2 496.4 460.6 494.1 460.6 489.5C460.6 482.5 455.5 473.2 451.7 470.5L448.9 468.401C445.1 465.701 438.8 463.7 437.9 473.2C437.9 478.6 440.2 484.7 443.4 489C448.3 495.5 454.1 496.8 455.5 496.7Z" fill="#FFF6DB" stroke="#010101" stroke-miterlimit="10" stroke-linecap="round" stroke-linejoin="round"/>
<path d="M529.2 107C529.3 107.2 529.4 107.399 529.4 107.599L535.9 124.4L517 134.099L466.7 176L460 158.599C459.3 156.699 459.9 154.499 461.5 152.799L504.8 108.9C508.9 104.8 517.3 102.499 523.8 103.599C526.8 104.299 528.5 105.5 529.2 107Z" fill="url(#paint16_linear_435_4995)" stroke="#010101" stroke-miterlimit="10" stroke-linecap="round" stroke-linejoin="round"/>
<path d="M511.3 126L468 169.9C464.9 173.1 465.7 178.5 472.2 179.6C478.8 180.6 488.3 177.3 491.4 174.1L533.1 131.8C536.2 128.6 539.1 123 530.3 120.7C523.8 119.6 515.4 121.8 511.3 126Z" fill="#FFF6DB" stroke="#010101" stroke-miterlimit="10" stroke-linecap="round" stroke-linejoin="round"/>
<path d="M549.8 88.2004L556.2 104.6L526.3 116.2L519.6 99.0998C519.2 98.0998 519 96.9998 519.4 96.0998C522 90.1998 527.5 87.2005 529.2 86.4005C533.5 84.2005 539.3 83.2002 544 84.0002C547.8 84.9002 549.4 86.5004 549.8 88.2004Z" fill="url(#paint17_linear_435_4995)" stroke="#010101" stroke-miterlimit="10" stroke-linecap="round" stroke-linejoin="round"/>
<path d="M526 114.2C525.9 116.8 527.7 119.399 532 120.099C538.6 121.099 548.1 117.799 551.2 114.599L553.6 112.299C556.7 109.099 559.6 103.5 550.8 101.2C545.7 100.4 539.6 101.7 535.1 104C528.1 107.6 526 112.8 526 114.2Z" fill="#FFF6DB" stroke="#010101" stroke-miterlimit="10" stroke-linecap="round" stroke-linejoin="round"/>
<path d="M583.8 425.3L573.9 413.9L559.9 434.9L552.7 442.1L557.1 433.3C558.3 430.9 558.9 429 558.4 427.8C558.3 427.6 558.1 427.4 557.9 427.2L548 415.8L527.7 443.8L514.3 456.6L524.1 467.8C524.6 468.5 525.8 468.9 528 468.7L534 468.2C539.1 467.8 541.3 465.2 542.7 462.5L544.3 459.3L549.8 465.7C550.3 466.5 551.5 466.9 553.8 466.7L559.8 466.2C564.9 465.8 567.1 463.2 568.5 460.5L583.1 431.4C584.2 428.5 584.9 426.4 583.8 425.3Z" fill="url(#paint18_linear_435_4995)"/>
<path d="M583.8 425.3L573.9 413.9L559.9 434.9L552.7 442.1L557.1 433.3C558.3 430.9 558.9 429 558.4 427.8C558.3 427.6 558.1 427.4 557.9 427.2L548 415.8L527.7 443.8L514.3 456.6L524.1 467.8C524.6 468.5 525.8 468.9 528 468.7L534 468.2C539.1 467.8 541.3 465.2 542.7 462.5L544.3 459.3L549.8 465.7C550.3 466.5 551.5 466.9 553.8 466.7L559.8 466.2C564.9 465.8 567.1 463.2 568.5 460.5L583.1 431.4C584.2 428.5 584.9 426.4 583.8 425.3Z" stroke="#010101" stroke-miterlimit="10" stroke-linecap="round" stroke-linejoin="round"/>
<path d="M532.5 451.2C531.1 453.9 528.9 456.5 523.8 456.9L517.8 457.4C512.7 457.8 513 455.4 514.4 452.7C514.9 451.7 517.1 448.799 518.4 447.099L536.4 422.2C539.1 418.5 541.1 415.899 545.1 415.599C549.6 415.199 549.2 418 547.1 422.2L532.5 451.2ZM558.4 449.099C557 451.799 554.8 454.4 549.7 454.8L543.7 455.3C538.6 455.7 538.9 453.299 540.3 450.599C540.8 449.599 543 446.7 544.3 445L562.3 420.099C565 416.399 567 413.8 571 413.5C575.5 413.1 575.1 415.899 573 420.099L558.4 449.099Z" fill="#FFF6DB" stroke="#010101" stroke-miterlimit="10" stroke-linecap="round" stroke-linejoin="round"/>
<path d="M539.9 454.6L544.1 459.3" stroke="#010101" stroke-miterlimit="10" stroke-linecap="round" stroke-linejoin="round"/>
<path d="M303.4 226.1L316.1 234.201L323.7 210.1L328.6 201.201L326.8 210.8C326.3 213.5 326.2 215.501 327.1 216.401C327.3 216.601 327.5 216.7 327.8 216.8L340.5 224.901L352.2 192.3L361.5 176.3L349 168.3C348.3 167.8 347 167.8 345 168.6L339.4 170.701C334.6 172.501 333.2 175.6 332.7 178.6L332.1 182.201L325 177.6C324.3 177 323.1 176.9 320.9 177.8L315.3 179.901C310.5 181.701 309.1 184.8 308.6 187.8L302.8 219.901C302.2 223.201 302.2 225.4 303.4 226.1Z" fill="url(#paint19_linear_435_4995)"/>
<path d="M303.4 226.1L316.1 234.201L323.7 210.1L328.6 201.201L326.8 210.8C326.3 213.5 326.2 215.501 327.1 216.401C327.3 216.601 327.5 216.7 327.8 216.8L340.5 224.901L352.2 192.3L361.5 176.3L349 168.3C348.3 167.8 347 167.8 345 168.6L339.4 170.701C334.6 172.501 333.2 175.6 332.7 178.6L332.1 182.201L325 177.6C324.3 177 323.1 176.9 320.9 177.8L315.3 179.901C310.5 181.701 309.1 184.8 308.6 187.8L302.8 219.901C302.2 223.201 302.2 225.4 303.4 226.1Z" stroke="#010101" stroke-miterlimit="10" stroke-linecap="round" stroke-linejoin="round"/>
<path d="M345.5 187C346 184 347.5 180.9 352.2 179.1L357.8 177C362.6 175.2 363 177.6 362.4 180.6C362.2 181.7 360.9 185.1 360.2 187.1L349.9 216C348.3 220.3 347.2 223.3 343.4 224.8C339.2 226.4 338.8 223.6 339.7 219L345.5 187ZM321.2 196.2C321.7 193.2 323.2 190.1 327.9 188.3L333.5 186.2C338.3 184.4 338.7 186.8 338.1 189.8C337.9 190.9 336.6 194.3 335.9 196.3L325.6 225.2C324 229.5 322.9 232.5 319.1 234C314.9 235.6 314.5 232.8 315.4 228.2L321.2 196.2Z" fill="#FCD0C4"/>
<path d="M345.5 187C346 184 347.5 180.9 352.2 179.1L357.8 177C362.6 175.2 363 177.6 362.4 180.6C362.2 181.7 360.9 185.1 360.2 187.1L349.9 216C348.3 220.3 347.2 223.3 343.4 224.8C339.2 226.4 338.8 223.6 339.7 219L345.5 187ZM321.2 196.2C321.7 193.2 323.2 190.1 327.9 188.3L333.5 186.2C338.3 184.4 338.7 186.8 338.1 189.8C337.9 190.9 336.6 194.3 335.9 196.3L325.6 225.2C324 229.5 322.9 232.5 319.1 234C314.9 235.6 314.5 232.8 315.4 228.2L321.2 196.2Z" stroke="#010101" stroke-miterlimit="10" stroke-linecap="round" stroke-linejoin="round"/>
<path d="M337.401 185.8L332.101 182.4" stroke="#010101" stroke-miterlimit="10" stroke-linecap="round" stroke-linejoin="round"/>
<path d="M424.8 199.1L441.3 185.2L422.1 162.4L406 175.9C404.5 177 403.8 179.3 404.2 182.4C405.1 188.7 410.6 196 416.8 199C420.3 200.8 423.1 200.7 424.8 199.1Z" fill="url(#paint20_linear_435_4995)" stroke="#010101" stroke-miterlimit="10" stroke-linecap="round" stroke-linejoin="round"/>
<path d="M444.701 210.5C443.801 208.9 441.001 204.8 441.001 204.8L428.201 193.1L411.801 206.9C410.301 207.9 409.601 209.9 410.001 212.7C410.601 217.3 413.701 222.1 417.801 225.6L411.101 231.2C410.401 231.8 410.301 233.1 411.001 234.7L414.301 241.8C415.101 243.5 416.601 245 418.001 245.7C418.501 245.9 418.901 246.1 419.401 246.1C424.201 246.5 427.901 245.4 430.401 243.1L447.601 228.7C447.601 228.9 445.601 212.1 444.701 210.5Z" fill="url(#paint21_linear_435_4995)" stroke="#010101" stroke-miterlimit="10" stroke-linecap="round" stroke-linejoin="round"/>
<path d="M433.3 185.2C439.5 188.2 443.6 185.599 442.7 179.299C441.8 172.799 436.4 165.6 430.1 162.5C423.8 159.4 419.8 162.099 420.7 168.599C421.6 174.899 427.2 182.2 433.3 185.2Z" fill="url(#paint22_linear_435_4995)" stroke="#010101" stroke-miterlimit="10" stroke-linecap="round" stroke-linejoin="round"/>
<path d="M436.2 193.7C429.8 190.6 425.7 192.8 426.5 198.9C427.2 204.1 431 209.599 435.9 213.099C435.2 215.899 432.8 217.399 428.8 217.099C427.1 216.999 426.5 218.7 427.5 220.9L430.8 228C431.6 229.7 433.1 231.2 434.5 231.9C435 232.1 435.4 232.299 435.9 232.299C446.7 233.199 452.2 226.7 450.6 215C449.3 205.7 443.6 197.3 436.2 193.7Z" fill="url(#paint23_linear_435_4995)" stroke="#010101" stroke-miterlimit="10" stroke-linecap="round" stroke-linejoin="round"/>
<path d="M425.7 218.9L419.2 224.3" stroke="#010101" stroke-miterlimit="10" stroke-linecap="round" stroke-linejoin="round"/>
<path d="M472 295.5L471.1 317.1L500.9 318.3L501.8 297.3C502 295.4 500.8 293.4 498.2 291.6C492.9 288 483.8 287.101 477.4 289.701C473.8 291.101 472 293.3 472 295.5Z" fill="url(#paint24_linear_435_4995)" stroke="#010101" stroke-miterlimit="10" stroke-linecap="round" stroke-linejoin="round"/>
<path d="M450.2 302.599C452 302.999 456.9 303.7 456.9 303.7L474.2 302.099L475.1 280.599C475.3 278.799 474.3 277 472 275.4C468.2 272.8 462.6 271.8 457.2 272.4L457.6 263.599H457.5C457.5 262.699 456.6 261.7 455 261.2L447.5 258.799C445.7 258.199 443.6 258.3 442.1 258.9C441.6 259.1 441.2 259.299 440.9 259.599C437.4 262.899 435.7 266.3 435.7 269.7L434.8 292.099C434.6 292.299 448.3 302.199 450.2 302.599Z" fill="url(#paint25_linear_435_4995)" stroke="#010101" stroke-miterlimit="10" stroke-linecap="round" stroke-linejoin="round"/>
<path d="M476.6 311.2C470.2 313.7 469.4 318.5 474.6 322.2C480 325.9 489 326.8 495.5 324.2C502 321.6 502.8 316.9 497.3 313.2C492.1 309.5 482.9 308.7 476.6 311.2Z" fill="#FFCE49" stroke="#010101" stroke-miterlimit="10" stroke-linecap="round" stroke-linejoin="round"/>
<path d="M468.4 307.6C475 305 476.1 300.4 471 296.9C466.7 294 460.1 293 454.2 294.3C452.6 291.9 453.2 289.1 456 286.3C457.2 285.1 456.3 283.5 454 282.8L446.5 280.4C444.7 279.8 442.6 279.9 441.1 280.5C440.6 280.7 440.2 280.9 439.9 281.2C432 288.6 433.1 297 442.8 303.7C450.6 309.2 460.7 310.6 468.4 307.6Z" fill="#FFCE49" stroke="#010101" stroke-miterlimit="10" stroke-linecap="round" stroke-linejoin="round"/>
<path d="M456.8 282.9L457.2 274.4" stroke="#010101" stroke-miterlimit="10" stroke-linecap="round" stroke-linejoin="round"/>
<path d="M621.4 140.8C621.4 192.5 543.2 234.5 446.8 234.5C378 234.5 319.1 213.2 290.9 182.2" stroke="#010101" stroke-miterlimit="10" stroke-linecap="round" stroke-linejoin="round"/>
<path d="M509.2 62.5997C515.1 68.0997 520.5 74.0005 525.5 80.4005C524.7 79.3005 523.8 78.1997 523 77.0997C526.4 81.4997 529.6 86.2001 532.6 91.0001C534.7 94.5001 538.3 97.3005 542.3 98.4005C546.2 99.5005 551.3 98.9999 554.8 96.7999C558.3 94.5999 561.3 91.2997 562.2 87.0997C563.2 82.8997 562.9 78.3997 560.6 74.5997C552.8 61.7997 544.7 52.2001 533.7 42.0001C530.6 39.1001 526.6 37.2999 522.3 37.2999C518.3 37.2999 512.1 36.7003 509.4 39.7003C506.6 42.8003 504.5 46.7997 504.7 51.0997C504.7 55.3997 506.1 59.6997 509.2 62.5997Z" fill="white"/>
<path d="M391.7 662.6L380.1 682.5L267.4 751.9L1.2002 620.2L113.6 551L125.6 530.9L391.7 662.6Z" fill="#FAB8A5" stroke="#010101" stroke-miterlimit="10" stroke-linecap="round" stroke-linejoin="round"/>
<path d="M391.7 697.5L267.4 761.2V751.9L380.1 682.5L391.7 662.6V697.5Z" fill="url(#paint26_linear_435_4995)" stroke="#010101" stroke-miterlimit="10" stroke-linecap="round" stroke-linejoin="round"/>
<path d="M125.6 530.9V565.8L1.2002 629.5V620.2L113.6 551L125.6 530.9Z" fill="#F58A6B" stroke="#010101" stroke-miterlimit="10" stroke-linecap="round" stroke-linejoin="round"/>
<path d="M267.4 751.9V761.2L1.30029 629.4L1.2002 620.2L267.4 751.9Z" fill="#F58A6B" stroke="#010101" stroke-miterlimit="10" stroke-linecap="round" stroke-linejoin="round"/>
<path d="M131.3 551.4L122.6 547.1L127.2 539.6L135.8 543.8L131.3 551.4Z" fill="#010101" stroke="#010101" stroke-miterlimit="10" stroke-linecap="round" stroke-linejoin="round"/>
<path d="M139.9 555.6L131.3 551.4L135.8 543.8L144.5 548L139.9 555.6Z" fill="#FFCE49" stroke="#010101" stroke-miterlimit="10" stroke-linecap="round" stroke-linejoin="round"/>
<path d="M148.5 559.8L139.9 555.6L144.5 548L153.1 552.2L148.5 559.8Z" fill="url(#paint27_linear_435_4995)" stroke="#010101" stroke-miterlimit="10" stroke-linecap="round" stroke-linejoin="round"/>
<path d="M157.2 564L148.5 559.8L153.1 552.2L161.7 556.4L157.2 564Z" fill="#FAFAF8" stroke="#010101" stroke-miterlimit="10" stroke-linecap="round" stroke-linejoin="round"/>
<path d="M391.7 697.5L125.6 565.8" stroke="#010101" stroke-miterlimit="10" stroke-linecap="round" stroke-linejoin="round"/>
<path d="M93.9006 588L78.6005 580.4C77.7005 579.9 77.7005 579.1 78.7005 578.5L91.4006 570.7C92.4006 570.1 93.9006 570 94.8006 570.5L110.101 578.099C111.001 578.599 111.001 579.4 110.001 580L97.3006 587.8C96.4006 588.3 94.8006 588.4 93.9006 588Z" fill="#FAFAF8" stroke="#010101" stroke-miterlimit="10" stroke-linecap="round" stroke-linejoin="round"/>
<path d="M117.001 599.401L101.701 591.8C100.801 591.3 100.801 590.501 101.801 589.901L114.501 582.1C115.501 581.5 117.001 581.401 117.901 581.901L133.201 589.5C134.101 590 134.101 590.801 133.101 591.401L120.401 599.2C119.501 599.8 117.901 599.901 117.001 599.401Z" fill="#FAFAF8" stroke="#010101" stroke-miterlimit="10" stroke-linecap="round" stroke-linejoin="round"/>
<path d="M140.101 610.901L124.801 603.3C123.901 602.8 123.901 602.001 124.901 601.401L137.601 593.6C138.601 593 140.101 592.901 141.001 593.401L156.301 601C157.201 601.5 157.201 602.301 156.201 602.901L143.501 610.7C142.501 611.3 141.001 611.401 140.101 610.901Z" fill="#FAFAF8" stroke="#010101" stroke-miterlimit="10" stroke-linecap="round" stroke-linejoin="round"/>
<path d="M163.101 622.401L147.801 614.8C146.901 614.3 146.901 613.501 147.901 612.901L160.601 605.1C161.601 604.5 163.101 604.401 164.001 604.901L179.301 612.5C180.201 613 180.201 613.801 179.201 614.401L166.501 622.2C165.601 622.7 164.101 622.801 163.101 622.401Z" fill="#FAFAF8" stroke="#010101" stroke-miterlimit="10" stroke-linecap="round" stroke-linejoin="round"/>
<path d="M186.2 633.901L170.9 626.3C170 625.8 170 625.001 171 624.401L183.7 616.6C184.7 616 186.2 615.901 187.1 616.401L202.4 624C203.3 624.5 203.3 625.301 202.3 625.901L189.6 633.7C188.7 634.2 187.1 634.301 186.2 633.901Z" fill="#FAFAF8" stroke="#010101" stroke-miterlimit="10" stroke-linecap="round" stroke-linejoin="round"/>
<path d="M209.3 645.3L194 637.7C193.1 637.2 193.1 636.4 194.1 635.8L206.8 628C207.8 627.4 209.3 627.3 210.2 627.8L225.5 635.4C226.4 635.9 226.4 636.7 225.4 637.3L212.7 645.099C211.8 645.699 210.2 645.8 209.3 645.3Z" fill="#FAFAF8" stroke="#010101" stroke-miterlimit="10" stroke-linecap="round" stroke-linejoin="round"/>
<path d="M232.401 656.8L217.101 649.2C216.201 648.7 216.2 647.9 217.2 647.3L229.901 639.5C230.901 638.9 232.401 638.8 233.301 639.3L248.601 646.9C249.501 647.4 249.501 648.2 248.501 648.8L235.801 656.599C234.801 657.199 233.301 657.3 232.401 656.8Z" fill="#FAFAF8" stroke="#010101" stroke-miterlimit="10" stroke-linecap="round" stroke-linejoin="round"/>
<path d="M255.401 668.3L240.101 660.7C239.201 660.2 239.2 659.4 240.2 658.8L252.901 651C253.901 650.4 255.401 650.3 256.301 650.8L271.601 658.4C272.501 658.9 272.501 659.7 271.501 660.3L258.801 668.099C257.901 668.599 256.401 668.7 255.401 668.3Z" fill="#FAFAF8" stroke="#010101" stroke-miterlimit="10" stroke-linecap="round" stroke-linejoin="round"/>
<path d="M278.501 679.8L263.201 672.2C262.301 671.7 262.301 670.9 263.301 670.3L276.001 662.5C277.001 661.9 278.501 661.8 279.401 662.3L294.701 669.9C295.601 670.4 295.601 671.2 294.601 671.8L281.901 679.599C281.001 680.099 279.401 680.2 278.501 679.8Z" fill="#FAFAF8" stroke="#010101" stroke-miterlimit="10" stroke-linecap="round" stroke-linejoin="round"/>
<path d="M324.701 702.7L286.801 683.8C285.901 683.3 285.901 682.501 286.901 681.901L299.601 674.1C300.601 673.5 302.101 673.401 303.001 673.901L340.901 692.8C341.801 693.3 341.801 694.1 340.801 694.7L328.101 702.5C327.101 703.1 325.601 703.2 324.701 702.7Z" fill="#FAFAF8" stroke="#010101" stroke-miterlimit="10" stroke-linecap="round" stroke-linejoin="round"/>
<path d="M96.8003 611.3L58.9003 592.4C58.0003 591.9 58.0003 591.1 59.0003 590.5L71.7002 582.7C72.7002 582.1 74.2003 582 75.1003 582.5L113 601.4C113.9 601.9 113.9 602.7 112.9 603.3L100.2 611.099C99.3002 611.699 97.8003 611.8 96.8003 611.3Z" fill="#FAFAF8" stroke="#010101" stroke-miterlimit="10" stroke-linecap="round" stroke-linejoin="round"/>
<path d="M120.401 623L105.101 615.4C104.201 614.9 104.2 614.1 105.2 613.5L117.901 605.7C118.901 605.1 120.401 605 121.301 605.5L136.601 613.099C137.501 613.599 137.501 614.4 136.501 615L123.801 622.8C122.801 623.4 121.301 623.5 120.401 623Z" fill="#FAFAF8" stroke="#010101" stroke-miterlimit="10" stroke-linecap="round" stroke-linejoin="round"/>
<path d="M143.401 634.5L128.101 626.9C127.201 626.4 127.2 625.6 128.2 625L140.901 617.2C141.901 616.6 143.401 616.5 144.301 617L159.601 624.599C160.501 625.099 160.501 625.9 159.501 626.5L146.801 634.3C145.901 634.8 144.401 634.9 143.401 634.5Z" fill="#FAFAF8" stroke="#010101" stroke-miterlimit="10" stroke-linecap="round" stroke-linejoin="round"/>
<path d="M166.5 645.901L151.2 638.3C150.3 637.8 150.3 637.001 151.3 636.401L164 628.6C165 628 166.5 627.901 167.4 628.401L182.7 636C183.6 636.5 183.6 637.301 182.6 637.901L169.9 645.7C169 646.3 167.4 646.401 166.5 645.901Z" fill="#FAFAF8" stroke="#010101" stroke-miterlimit="10" stroke-linecap="round" stroke-linejoin="round"/>
<path d="M189.6 657.401L174.3 649.8C173.4 649.3 173.4 648.501 174.4 647.901L187.1 640.1C188.1 639.5 189.6 639.401 190.5 639.901L205.8 647.5C206.7 648 206.7 648.801 205.7 649.401L193 657.2C192.1 657.8 190.5 657.901 189.6 657.401Z" fill="#FAFAF8" stroke="#010101" stroke-miterlimit="10" stroke-linecap="round" stroke-linejoin="round"/>
<path d="M212.7 668.901L197.4 661.3C196.5 660.8 196.5 660.001 197.5 659.401L210.2 651.6C211.2 651 212.7 650.901 213.6 651.401L228.9 659C229.8 659.5 229.8 660.301 228.8 660.901L216.1 668.7C215.1 669.3 213.6 669.401 212.7 668.901Z" fill="#FAFAF8" stroke="#010101" stroke-miterlimit="10" stroke-linecap="round" stroke-linejoin="round"/>
<path d="M235.7 680.401L220.4 672.8C219.5 672.3 219.5 671.501 220.5 670.901L233.2 663.1C234.2 662.5 235.7 662.401 236.6 662.901L251.9 670.5C252.8 671 252.8 671.801 251.8 672.401L239.1 680.2C238.2 680.7 236.7 680.801 235.7 680.401Z" fill="#FAFAF8" stroke="#010101" stroke-miterlimit="10" stroke-linecap="round" stroke-linejoin="round"/>
<path d="M258.8 691.8L243.5 684.2C242.6 683.7 242.6 682.9 243.6 682.3L256.3 674.5C257.3 673.9 258.8 673.8 259.7 674.3L275 681.9C275.9 682.4 275.9 683.2 274.9 683.8L262.2 691.599C261.3 692.199 259.7 692.3 258.8 691.8Z" fill="#FAFAF8" stroke="#010101" stroke-miterlimit="10" stroke-linecap="round" stroke-linejoin="round"/>
<path d="M281.901 703.3L266.601 695.7C265.701 695.2 265.7 694.4 266.7 693.8L279.401 686C280.401 685.4 281.901 685.3 282.801 685.8L298.101 693.4C299.001 693.9 299.001 694.7 298.001 695.3L285.301 703.099C284.401 703.699 282.801 703.8 281.901 703.3Z" fill="#FAFAF8" stroke="#010101" stroke-miterlimit="10" stroke-linecap="round" stroke-linejoin="round"/>
<path d="M54.5001 612.099L39.2001 604.5C38.3001 604 38.3002 603.199 39.3002 602.599L52.0001 594.8C53.0001 594.2 54.5001 594.099 55.4001 594.599L70.7001 602.2C71.6001 602.7 71.6001 603.499 70.6001 604.099L57.9001 611.9C57.0001 612.5 55.4001 612.599 54.5001 612.099Z" fill="#FAFAF8" stroke="#010101" stroke-miterlimit="10" stroke-linecap="round" stroke-linejoin="round"/>
<path d="M77.6001 623.599L62.3002 616C61.4002 615.5 61.4002 614.699 62.4002 614.099L75.1001 606.3C76.1001 605.7 77.6002 605.599 78.5002 606.099L93.8002 613.7C94.7002 614.2 94.7001 614.999 93.7001 615.599L81.0002 623.4C80.1002 624 78.5001 624.099 77.6001 623.599Z" fill="#FAFAF8" stroke="#010101" stroke-miterlimit="10" stroke-linecap="round" stroke-linejoin="round"/>
<path d="M100.6 635.099L85.3002 627.5C84.4002 627 84.4002 626.199 85.4002 625.599L98.1001 617.8C99.1001 617.2 100.6 617.099 101.5 617.599L116.8 625.2C117.7 625.7 117.7 626.499 116.7 627.099L104 634.9C103.1 635.4 101.6 635.499 100.6 635.099Z" fill="#FAFAF8" stroke="#010101" stroke-miterlimit="10" stroke-linecap="round" stroke-linejoin="round"/>
<path d="M123.7 646.599L108.4 639C107.5 638.5 107.5 637.699 108.5 637.099L121.2 629.3C122.2 628.7 123.7 628.599 124.6 629.099L139.9 636.7C140.8 637.2 140.8 637.999 139.8 638.599L127.1 646.4C126.2 646.9 124.7 646.999 123.7 646.599Z" fill="#FAFAF8" stroke="#010101" stroke-miterlimit="10" stroke-linecap="round" stroke-linejoin="round"/>
<path d="M146.8 658L131.5 650.4C130.6 649.9 130.6 649.1 131.6 648.5L144.3 640.7C145.3 640.1 146.8 640 147.7 640.5L163 648.099C163.9 648.599 163.9 649.4 162.9 650L150.2 657.8C149.3 658.4 147.7 658.5 146.8 658Z" fill="#FAFAF8" stroke="#010101" stroke-miterlimit="10" stroke-linecap="round" stroke-linejoin="round"/>
<path d="M169.9 669.5L154.6 661.9C153.7 661.4 153.7 660.6 154.7 660L167.4 652.2C168.4 651.6 169.9 651.5 170.8 652L186.1 659.599C187 660.099 187 660.9 186 661.5L173.3 669.3C172.3 669.9 170.8 670 169.9 669.5Z" fill="#FAFAF8" stroke="#010101" stroke-miterlimit="10" stroke-linecap="round" stroke-linejoin="round"/>
<path d="M192.9 681L177.6 673.4C176.7 672.9 176.7 672.1 177.7 671.5L190.4 663.7C191.4 663.1 192.9 663 193.8 663.5L209.1 671.099C210 671.599 210 672.4 209 673L196.3 680.8C195.4 681.3 193.9 681.5 192.9 681Z" fill="#FAFAF8" stroke="#010101" stroke-miterlimit="10" stroke-linecap="round" stroke-linejoin="round"/>
<path d="M216 692.5L200.7 684.9C199.8 684.4 199.8 683.6 200.8 683L213.5 675.2C214.5 674.6 216 674.5 216.9 675L232.2 682.599C233.1 683.099 233.1 683.9 232.1 684.5L219.4 692.3C218.5 692.8 217 692.9 216 692.5Z" fill="#FAFAF8" stroke="#010101" stroke-miterlimit="10" stroke-linecap="round" stroke-linejoin="round"/>
<path d="M239.1 703.901L223.8 696.3C222.9 695.8 222.9 695.001 223.9 694.401L236.6 686.6C237.6 686 239.1 685.901 240 686.401L255.3 694C256.2 694.5 256.2 695.301 255.2 695.901L242.5 703.7C241.6 704.3 240 704.401 239.1 703.901Z" fill="#FAFAF8" stroke="#010101" stroke-miterlimit="10" stroke-linecap="round" stroke-linejoin="round"/>
<path d="M262.2 715.401L246.9 707.8C246 707.3 246 706.501 247 705.901L259.7 698.1C260.7 697.5 262.2 697.401 263.1 697.901L278.4 705.5C279.3 706 279.3 706.801 278.3 707.401L265.6 715.2C264.6 715.8 263.1 715.901 262.2 715.401Z" fill="#FAFAF8" stroke="#010101" stroke-miterlimit="10" stroke-linecap="round" stroke-linejoin="round"/>
<path d="M285.2 726.9L269.9 719.3C269 718.8 269 718 270 717.4L302 697.7C303 697.1 304.5 697 305.4 697.5L320.7 705.099C321.6 705.599 321.6 706.4 320.6 707L288.6 726.7C287.7 727.2 286.2 727.4 285.2 726.9Z" fill="#FAFAF8" stroke="#010101" stroke-miterlimit="10" stroke-linecap="round" stroke-linejoin="round"/>
<path d="M34.8005 624.2L19.5004 616.599C18.6004 616.099 18.6004 615.3 19.6004 614.7L32.3005 606.9C33.3005 606.3 34.8004 606.2 35.7004 606.7L51.0004 614.3C51.9004 614.8 51.9004 615.6 50.9004 616.2L38.2004 624C37.3004 624.6 35.7005 624.7 34.8005 624.2Z" fill="#FAFAF8" stroke="#010101" stroke-miterlimit="10" stroke-linecap="round" stroke-linejoin="round"/>
<path d="M57.9006 635.7L42.6005 628.099C41.7005 627.599 41.7005 626.8 42.7005 626.2L55.4006 618.4C56.4006 617.8 57.9006 617.7 58.8006 618.2L74.1005 625.8C75.0005 626.3 75.0005 627.1 74.0005 627.7L61.3006 635.5C60.3006 636.1 58.8006 636.2 57.9006 635.7Z" fill="#FAFAF8" stroke="#010101" stroke-miterlimit="10" stroke-linecap="round" stroke-linejoin="round"/>
<path d="M80.9006 647.2L65.6005 639.599C64.7005 639.099 64.7005 638.3 65.7005 637.7L78.4006 629.9C79.4006 629.3 80.9006 629.2 81.8006 629.7L97.1005 637.3C98.0005 637.8 98.0005 638.6 97.0005 639.2L84.3006 647C83.4006 647.5 81.9006 647.6 80.9006 647.2Z" fill="#FAFAF8" stroke="#010101" stroke-miterlimit="10" stroke-linecap="round" stroke-linejoin="round"/>
<path d="M219.501 716.099L88.8007 651.099C87.9007 650.599 87.9007 649.8 88.9007 649.2L101.601 641.4C102.601 640.8 104.101 640.7 105.001 641.2L235.701 706.2C236.601 706.7 236.601 707.499 235.601 708.099L222.901 715.9C221.901 716.4 220.401 716.499 219.501 716.099Z" fill="#FAFAF8" stroke="#010101" stroke-miterlimit="10" stroke-linecap="round" stroke-linejoin="round"/>
<path d="M242.5 727.5L227.2 719.9C226.3 719.4 226.3 718.6 227.3 718L240 710.2C241 709.6 242.5 709.5 243.4 710L258.7 717.599C259.6 718.099 259.6 718.9 258.6 719.5L245.9 727.3C244.9 727.9 243.4 728 242.5 727.5Z" fill="#FAFAF8" stroke="#010101" stroke-miterlimit="10" stroke-linecap="round" stroke-linejoin="round"/>
<path d="M265.5 739L250.2 731.4C249.3 730.9 249.3 730.1 250.3 729.5L263 721.7C264 721.1 265.5 721 266.4 721.5L281.7 729.099C282.6 729.599 282.6 730.4 281.6 731L268.9 738.8C268 739.3 266.5 739.4 265.5 739Z" fill="#FAFAF8" stroke="#010101" stroke-miterlimit="10" stroke-linecap="round" stroke-linejoin="round"/>
<path d="M93.9006 586.901L78.6005 579.3C77.7005 578.8 77.7005 578.001 78.7005 577.401L91.4006 569.6C92.4006 569 93.9006 568.901 94.8006 569.401L110.101 577C111.001 577.5 111.001 578.301 110.001 578.901L97.3006 586.7C96.4006 587.2 94.8006 587.401 93.9006 586.901Z" fill="#FAFAF8" stroke="#010101" stroke-miterlimit="10" stroke-linecap="round" stroke-linejoin="round"/>
<path d="M117.001 598.401L101.701 590.8C100.801 590.3 100.801 589.501 101.801 588.901L114.501 581.1C115.501 580.5 117.001 580.401 117.901 580.901L133.201 588.5C134.101 589 134.101 589.801 133.101 590.401L120.401 598.2C119.501 598.7 117.901 598.801 117.001 598.401Z" fill="#FAFAF8" stroke="#010101" stroke-miterlimit="10" stroke-linecap="round" stroke-linejoin="round"/>
<path d="M140.101 609.8L124.801 602.2C123.901 601.7 123.901 600.9 124.901 600.3L137.601 592.5C138.601 591.9 140.101 591.8 141.001 592.3L156.301 599.9C157.201 600.4 157.201 601.2 156.201 601.8L143.501 609.599C142.501 610.199 141.001 610.3 140.101 609.8Z" fill="#FAFAF8" stroke="#010101" stroke-miterlimit="10" stroke-linecap="round" stroke-linejoin="round"/>
<path d="M163.101 621.3L147.801 613.7C146.901 613.2 146.901 612.4 147.901 611.8L160.601 604C161.601 603.4 163.101 603.3 164.001 603.8L179.301 611.4C180.201 611.9 180.201 612.7 179.201 613.3L166.501 621.099C165.601 621.699 164.101 621.8 163.101 621.3Z" fill="#FAFAF8" stroke="#010101" stroke-miterlimit="10" stroke-linecap="round" stroke-linejoin="round"/>
<path d="M186.2 632.8L170.9 625.2C170 624.7 170 623.9 171 623.3L183.7 615.5C184.7 614.9 186.2 614.8 187.1 615.3L202.4 622.9C203.3 623.4 203.3 624.2 202.3 624.8L189.6 632.599C188.7 633.199 187.1 633.3 186.2 632.8Z" fill="#FAFAF8" stroke="#010101" stroke-miterlimit="10" stroke-linecap="round" stroke-linejoin="round"/>
<path d="M209.3 644.3L194 636.7C193.1 636.2 193.1 635.4 194.1 634.8L206.8 627C207.8 626.4 209.3 626.3 210.2 626.8L225.5 634.4C226.4 634.9 226.4 635.7 225.4 636.3L212.7 644.099C211.8 644.599 210.2 644.7 209.3 644.3Z" fill="#FAFAF8" stroke="#010101" stroke-miterlimit="10" stroke-linecap="round" stroke-linejoin="round"/>
<path d="M232.401 655.7L217.101 648.099C216.201 647.599 216.2 646.8 217.2 646.2L229.901 638.4C230.901 637.8 232.401 637.7 233.301 638.2L248.601 645.8C249.501 646.3 249.501 647.1 248.501 647.7L235.801 655.5C234.801 656.1 233.301 656.2 232.401 655.7Z" fill="#FAFAF8" stroke="#010101" stroke-miterlimit="10" stroke-linecap="round" stroke-linejoin="round"/>
<path d="M255.401 667.2L240.101 659.599C239.201 659.099 239.2 658.3 240.2 657.7L252.901 649.9C253.901 649.3 255.401 649.2 256.301 649.7L271.601 657.3C272.501 657.8 272.501 658.6 271.501 659.2L258.801 667C257.901 667.6 256.401 667.7 255.401 667.2Z" fill="#FAFAF8" stroke="#010101" stroke-miterlimit="10" stroke-linecap="round" stroke-linejoin="round"/>
<path d="M278.501 678.7L263.201 671.099C262.301 670.599 262.301 669.8 263.301 669.2L276.001 661.4C277.001 660.8 278.501 660.7 279.401 661.2L294.701 668.8C295.601 669.3 295.601 670.1 294.601 670.7L281.901 678.5C281.001 679.1 279.401 679.2 278.501 678.7Z" fill="#F58A6B" stroke="#010101" stroke-miterlimit="10" stroke-linecap="round" stroke-linejoin="round"/>
<path d="M324.701 701.599L286.801 682.7C285.901 682.2 285.901 681.4 286.901 680.8L299.601 673C300.601 672.4 302.101 672.3 303.001 672.8L340.901 691.7C341.801 692.2 341.801 692.999 340.801 693.599L328.101 701.4C327.101 702 325.601 702.099 324.701 701.599Z" fill="#FAFAF8" stroke="#010101" stroke-miterlimit="10" stroke-linecap="round" stroke-linejoin="round"/>
<path d="M96.8003 610.2L58.9003 591.3C58.0003 590.8 58.0003 590.001 59.0003 589.401L71.7002 581.6C72.7002 581 74.2003 580.901 75.1003 581.401L113 600.3C113.9 600.8 113.9 601.6 112.9 602.2L100.2 610C99.3002 610.6 97.8003 610.7 96.8003 610.2Z" fill="#FAFAF8" stroke="#010101" stroke-miterlimit="10" stroke-linecap="round" stroke-linejoin="round"/>
<path d="M120.401 621.901L105.101 614.3C104.201 613.8 104.2 613.001 105.2 612.401L117.901 604.6C118.901 604 120.401 603.901 121.301 604.401L136.601 612C137.501 612.5 137.501 613.301 136.501 613.901L123.801 621.7C122.801 622.3 121.301 622.401 120.401 621.901Z" fill="#FAFAF8" stroke="#010101" stroke-miterlimit="10" stroke-linecap="round" stroke-linejoin="round"/>
<path d="M143.401 633.401L128.101 625.8C127.201 625.3 127.2 624.501 128.2 623.901L140.901 616.1C141.901 615.5 143.401 615.401 144.301 615.901L159.601 623.5C160.501 624 160.501 624.801 159.501 625.401L146.801 633.2C145.901 633.8 144.401 633.901 143.401 633.401Z" fill="#FAFAF8" stroke="#010101" stroke-miterlimit="10" stroke-linecap="round" stroke-linejoin="round"/>
<path d="M166.5 644.901L151.2 637.3C150.3 636.8 150.3 636.001 151.3 635.401L164 627.6C165 627 166.5 626.901 167.4 627.401L182.7 635C183.6 635.5 183.6 636.301 182.6 636.901L169.9 644.7C169 645.2 167.4 645.301 166.5 644.901Z" fill="#FAFAF8" stroke="#010101" stroke-miterlimit="10" stroke-linecap="round" stroke-linejoin="round"/>
<path d="M189.6 656.401L174.3 648.8C173.4 648.3 173.4 647.501 174.4 646.901L187.1 639.1C188.1 638.5 189.6 638.401 190.5 638.901L205.8 646.5C206.7 647 206.7 647.801 205.7 648.401L193 656.2C192.1 656.7 190.5 656.801 189.6 656.401Z" fill="#FAFAF8" stroke="#010101" stroke-miterlimit="10" stroke-linecap="round" stroke-linejoin="round"/>
<path d="M212.7 667.8L197.4 660.2C196.5 659.7 196.5 658.9 197.5 658.3L210.2 650.5C211.2 649.9 212.7 649.8 213.6 650.3L228.9 657.9C229.8 658.4 229.8 659.2 228.8 659.8L216.1 667.599C215.1 668.199 213.6 668.3 212.7 667.8Z" fill="#FAFAF8" stroke="#010101" stroke-miterlimit="10" stroke-linecap="round" stroke-linejoin="round"/>
<path d="M235.7 679.3L220.4 671.7C219.5 671.2 219.5 670.4 220.5 669.8L233.2 662C234.2 661.4 235.7 661.3 236.6 661.8L251.9 669.4C252.8 669.9 252.8 670.7 251.8 671.3L239.1 679.099C238.2 679.699 236.7 679.8 235.7 679.3Z" fill="#FAFAF8" stroke="#010101" stroke-miterlimit="10" stroke-linecap="round" stroke-linejoin="round"/>
<path d="M258.8 690.8L243.5 683.2C242.6 682.7 242.6 681.9 243.6 681.3L256.3 673.5C257.3 672.9 258.8 672.8 259.7 673.3L275 680.9C275.9 681.4 275.9 682.2 274.9 682.8L262.2 690.599C261.3 691.099 259.7 691.2 258.8 690.8Z" fill="#FAFAF8" stroke="#010101" stroke-miterlimit="10" stroke-linecap="round" stroke-linejoin="round"/>
<path d="M281.901 702.3L266.601 694.7C265.701 694.2 265.7 693.4 266.7 692.8L279.401 685C280.401 684.4 281.901 684.3 282.801 684.8L298.101 692.4C299.001 692.9 299.001 693.7 298.001 694.3L285.301 702.099C284.401 702.599 282.801 702.7 281.901 702.3Z" fill="#FAFAF8" stroke="#010101" stroke-miterlimit="10" stroke-linecap="round" stroke-linejoin="round"/>
<path d="M54.5001 611.099L39.2001 603.5C38.3001 603 38.3002 602.199 39.3002 601.599L52.0001 593.8C53.0001 593.2 54.5001 593.099 55.4001 593.599L70.7001 601.2C71.6001 601.7 71.6001 602.499 70.6001 603.099L57.9001 610.9C57.0001 611.4 55.4001 611.499 54.5001 611.099Z" fill="#FAFAF8" stroke="#010101" stroke-miterlimit="10" stroke-linecap="round" stroke-linejoin="round"/>
<path d="M77.6001 622.5L62.3002 614.9C61.4002 614.4 61.4002 613.6 62.4002 613L75.1001 605.2C76.1001 604.6 77.6002 604.5 78.5002 605L93.8002 612.599C94.7002 613.099 94.7001 613.9 93.7001 614.5L81.0002 622.3C80.1002 622.9 78.5001 623 77.6001 622.5Z" fill="#FAFAF8" stroke="#010101" stroke-miterlimit="10" stroke-linecap="round" stroke-linejoin="round"/>
<path d="M100.6 634L85.3002 626.4C84.4002 625.9 84.4002 625.1 85.4002 624.5L98.1001 616.7C99.1001 616.1 100.6 616 101.5 616.5L116.8 624.099C117.7 624.599 117.7 625.4 116.7 626L104 633.8C103.1 634.4 101.6 634.5 100.6 634Z" fill="#FAFAF8" stroke="#010101" stroke-miterlimit="10" stroke-linecap="round" stroke-linejoin="round"/>
<path d="M123.7 645.5L108.4 637.9C107.5 637.4 107.5 636.6 108.5 636L121.2 628.2C122.2 627.6 123.7 627.5 124.6 628L139.9 635.599C140.8 636.099 140.8 636.9 139.8 637.5L127.1 645.3C126.2 645.9 124.7 646 123.7 645.5Z" fill="#FAFAF8" stroke="#010101" stroke-miterlimit="10" stroke-linecap="round" stroke-linejoin="round"/>
<path d="M146.8 657L131.5 649.4C130.6 648.9 130.6 648.1 131.6 647.5L144.3 639.7C145.3 639.1 146.8 639 147.7 639.5L163 647.099C163.9 647.599 163.9 648.4 162.9 649L150.2 656.8C149.3 657.3 147.7 657.4 146.8 657Z" fill="#FAFAF8" stroke="#010101" stroke-miterlimit="10" stroke-linecap="round" stroke-linejoin="round"/>
<path d="M169.9 668.5L154.6 660.9C153.7 660.4 153.7 659.6 154.7 659L167.4 651.2C168.4 650.6 169.9 650.5 170.8 651L186.1 658.599C187 659.099 187 659.9 186 660.5L173.3 668.3C172.3 668.8 170.8 668.9 169.9 668.5Z" fill="#FAFAF8" stroke="#010101" stroke-miterlimit="10" stroke-linecap="round" stroke-linejoin="round"/>
<path d="M192.9 679.901L177.6 672.3C176.7 671.8 176.7 671.001 177.7 670.401L190.4 662.6C191.4 662 192.9 661.901 193.8 662.401L209.1 670C210 670.5 210 671.301 209 671.901L196.3 679.7C195.4 680.3 193.9 680.401 192.9 679.901Z" fill="#FAFAF8" stroke="#010101" stroke-miterlimit="10" stroke-linecap="round" stroke-linejoin="round"/>
<path d="M216 691.401L200.7 683.8C199.8 683.3 199.8 682.501 200.8 681.901L213.5 674.1C214.5 673.5 216 673.401 216.9 673.901L232.2 681.5C233.1 682 233.1 682.801 232.1 683.401L219.4 691.2C218.5 691.8 217 691.901 216 691.401Z" fill="#FAFAF8" stroke="#010101" stroke-miterlimit="10" stroke-linecap="round" stroke-linejoin="round"/>
<path d="M239.1 702.901L223.8 695.3C222.9 694.8 222.9 694.001 223.9 693.401L236.6 685.6C237.6 685 239.1 684.901 240 685.401L255.3 693C256.2 693.5 256.2 694.301 255.2 694.901L242.5 702.7C241.6 703.2 240 703.301 239.1 702.901Z" fill="#FAFAF8" stroke="#010101" stroke-miterlimit="10" stroke-linecap="round" stroke-linejoin="round"/>
<path d="M262.2 714.401L246.9 706.8C246 706.3 246 705.501 247 704.901L259.7 697.1C260.7 696.5 262.2 696.401 263.1 696.901L278.4 704.5C279.3 705 279.3 705.801 278.3 706.401L265.6 714.2C264.6 714.7 263.1 714.801 262.2 714.401Z" fill="#FAFAF8" stroke="#010101" stroke-miterlimit="10" stroke-linecap="round" stroke-linejoin="round"/>
<path d="M285.2 725.8L269.9 718.2C269 717.7 269 716.9 270 716.3L302 696.6C303 696 304.5 695.901 305.4 696.401L320.7 704C321.6 704.5 321.6 705.301 320.6 705.901L288.6 725.6C287.7 726.2 286.2 726.3 285.2 725.8Z" fill="url(#paint28_linear_435_4995)" stroke="#010101" stroke-width="1.1426" stroke-miterlimit="10" stroke-linecap="round" stroke-linejoin="round"/>
<path d="M34.8005 623.2L19.5004 615.599C18.6004 615.099 18.6004 614.3 19.6004 613.7L32.3005 605.9C33.3005 605.3 34.8004 605.2 35.7004 605.7L51.0004 613.3C51.9004 613.8 51.9004 614.6 50.9004 615.2L38.2004 623C37.3004 623.5 35.7005 623.6 34.8005 623.2Z" fill="#FAFAF8" stroke="#010101" stroke-miterlimit="10" stroke-linecap="round" stroke-linejoin="round"/>
<path d="M57.9006 634.599L42.6005 627C41.7005 626.5 41.7005 625.699 42.7005 625.099L55.4006 617.3C56.4006 616.7 57.9006 616.599 58.8006 617.099L74.1005 624.7C75.0005 625.2 75.0005 625.999 74.0005 626.599L61.3006 634.4C60.3006 635 58.8006 635.099 57.9006 634.599Z" fill="#FAFAF8" stroke="#010101" stroke-miterlimit="10" stroke-linecap="round" stroke-linejoin="round"/>
<path d="M80.9006 646.099L65.6005 638.5C64.7005 638 64.7005 637.199 65.7005 636.599L78.4006 628.8C79.4006 628.2 80.9006 628.099 81.8006 628.599L97.1005 636.2C98.0005 636.7 98.0005 637.499 97.0005 638.099L84.3006 645.9C83.4006 646.5 81.9006 646.599 80.9006 646.099Z" fill="#FAFAF8" stroke="#010101" stroke-miterlimit="10" stroke-linecap="round" stroke-linejoin="round"/>
<path d="M219.501 715L88.8007 650C87.9007 649.5 87.9007 648.699 88.9007 648.099L101.601 640.3C102.601 639.7 104.101 639.599 105.001 640.099L235.701 705.099C236.601 705.599 236.601 706.4 235.601 707L222.901 714.8C221.901 715.4 220.401 715.5 219.501 715Z" fill="#FAFAF8" stroke="#010101" stroke-miterlimit="10" stroke-linecap="round" stroke-linejoin="round"/>
<path d="M242.5 726.401L227.2 718.8C226.3 718.3 226.3 717.501 227.3 716.901L240 709.1C241 708.5 242.5 708.401 243.4 708.901L258.7 716.5C259.6 717 259.6 717.801 258.6 718.401L245.9 726.2C244.9 726.8 243.4 726.901 242.5 726.401Z" fill="#FAFAF8" stroke="#010101" stroke-miterlimit="10" stroke-linecap="round" stroke-linejoin="round"/>
<path d="M265.5 737.901L250.2 730.3C249.3 729.8 249.3 729.001 250.3 728.401L263 720.6C264 720 265.5 719.901 266.4 720.401L281.7 728C282.6 728.5 282.6 729.301 281.6 729.901L268.9 737.7C268 738.3 266.5 738.401 265.5 737.901Z" fill="#FAFAF8" stroke="#010101" stroke-miterlimit="10" stroke-linecap="round" stroke-linejoin="round"/>
<path d="M118.4 554L354 670.3" stroke="#010101" stroke-miterlimit="10" stroke-linecap="round" stroke-linejoin="round"/>
<path d="M508 665.2L519.7 685L632.8 754.5L900 622.7L787.3 553.6L775.2 533.5L508 665.2Z" fill="#FAB8A5" stroke="#010101" stroke-miterlimit="10" stroke-linecap="round" stroke-linejoin="round"/>
<path d="M508 700.1L632.8 763.8V754.5L519.7 685L508 665.2V700.1Z" fill="url(#paint29_linear_435_4995)" stroke="#010101" stroke-miterlimit="10" stroke-linecap="round" stroke-linejoin="round"/>
<path d="M775.2 533.5V568.4L900 632.1V622.7L787.3 553.6L775.2 533.5Z" fill="#F58A6B" stroke="#010101" stroke-miterlimit="10" stroke-linecap="round" stroke-linejoin="round"/>
<path d="M632.8 754.5V763.8L900 632V622.7L632.8 754.5Z" fill="#FAFAF8" stroke="#010101" stroke-miterlimit="10" stroke-linecap="round" stroke-linejoin="round"/>
<path d="M550.5 662.3L559.2 658L554.6 650.4L545.9 654.7L550.5 662.3Z" fill="#FAFAF8" stroke="#010101" stroke-miterlimit="10" stroke-linecap="round" stroke-linejoin="round"/>
<path d="M541.8 666.5L550.5 662.3L545.9 654.7L537.2 658.9L541.8 666.5Z" fill="url(#paint30_linear_435_4995)" stroke="#010101" stroke-miterlimit="10" stroke-linecap="round" stroke-linejoin="round"/>
<path d="M533.1 670.7L541.8 666.5L537.2 658.9L528.6 663.1L533.1 670.7Z" fill="#FFCE49" stroke="#010101" stroke-miterlimit="10" stroke-linecap="round" stroke-linejoin="round"/>
<path d="M524.5 674.9L533.1 670.7L528.6 663.1L519.9 667.3L524.5 674.9Z" fill="#010101" stroke="#010101" stroke-miterlimit="10" stroke-linecap="round" stroke-linejoin="round"/>
<path d="M775.2 568.4L508 700.1" stroke="#010101" stroke-miterlimit="10" stroke-linecap="round" stroke-linejoin="round"/>
<path d="M591 699.099L575.6 706.8C574.7 707.3 573.1 707.199 572.2 706.599L559.6 698.7C558.6 698.1 558.6 697.2 559.6 696.8L575 689.099C575.9 688.599 577.5 688.7 578.4 689.3L591 697.2C591.9 697.8 591.9 698.699 591 699.099Z" fill="#FAFAF8" stroke="#010101" stroke-miterlimit="10" stroke-linecap="round" stroke-linejoin="round"/>
<path d="M614.2 687.5L598.8 695.2C597.9 695.7 596.3 695.6 595.4 695L582.8 687.099C581.8 686.499 581.8 685.6 582.8 685.2L598.2 677.5C599.1 677 600.7 677.1 601.6 677.7L614.2 685.599C615.1 686.199 615.2 687 614.2 687.5Z" fill="#FAFAF8" stroke="#010101" stroke-miterlimit="10" stroke-linecap="round" stroke-linejoin="round"/>
<path d="M637.5 675.901L622.1 683.6C621.2 684.1 619.6 684.001 618.7 683.401L606.1 675.5C605.1 674.9 605.1 674 606.1 673.6L621.5 665.901C622.4 665.401 624 665.5 624.9 666.1L637.5 674C638.4 674.6 638.4 675.401 637.5 675.901Z" fill="#FAFAF8" stroke="#010101" stroke-miterlimit="10" stroke-linecap="round" stroke-linejoin="round"/>
<path d="M660.7 664.3L645.3 672C644.4 672.5 642.8 672.4 641.9 671.8L629.3 663.9C628.3 663.3 628.3 662.4 629.3 662L644.7 654.3C645.6 653.8 647.2 653.9 648.1 654.5L660.7 662.4C661.6 663 661.7 663.8 660.7 664.3Z" fill="#FAFAF8" stroke="#010101" stroke-miterlimit="10" stroke-linecap="round" stroke-linejoin="round"/>
<path d="M684 652.7L668.6 660.4C667.7 660.9 666.1 660.8 665.2 660.2L652.6 652.3C651.6 651.7 651.6 650.8 652.6 650.4L668 642.7C668.9 642.2 670.5 642.3 671.4 642.9L684 650.8C684.9 651.4 684.9 652.2 684 652.7Z" fill="#FAFAF8" stroke="#010101" stroke-miterlimit="10" stroke-linecap="round" stroke-linejoin="round"/>
<path d="M707.2 641.099L691.8 648.8C690.9 649.3 689.3 649.199 688.4 648.599L675.8 640.7C674.8 640.1 674.8 639.2 675.8 638.8L691.2 631.099C692.1 630.599 693.7 630.7 694.6 631.3L707.2 639.2C708.1 639.7 708.2 640.599 707.2 641.099Z" fill="#FAFAF8" stroke="#010101" stroke-miterlimit="10" stroke-linecap="round" stroke-linejoin="round"/>
<path d="M730.5 629.5L715.1 637.2C714.2 637.7 712.6 637.6 711.7 637L699.1 629.099C698.1 628.499 698.1 627.6 699.1 627.2L714.5 619.5C715.4 619 717 619.1 717.9 619.7L730.5 627.599C731.4 628.099 731.4 629 730.5 629.5Z" fill="#FAFAF8" stroke="#010101" stroke-miterlimit="10" stroke-linecap="round" stroke-linejoin="round"/>
<path d="M753.7 617.901L738.3 625.6C737.4 626.1 735.8 626.001 734.9 625.401L722.3 617.5C721.3 616.9 721.3 616 722.3 615.6L737.7 607.901C738.6 607.401 740.2 607.5 741.1 608.1L753.7 616C754.6 616.5 754.7 617.401 753.7 617.901Z" fill="#FAFAF8" stroke="#010101" stroke-miterlimit="10" stroke-linecap="round" stroke-linejoin="round"/>
<path d="M777 606.3L761.6 614C760.7 614.5 759.1 614.4 758.2 613.8L745.6 605.9C744.6 605.3 744.6 604.4 745.6 604L761 596.3C761.9 595.8 763.5 595.9 764.4 596.5L777 604.4C777.9 604.9 777.9 605.8 777 606.3Z" fill="#FAFAF8" stroke="#010101" stroke-miterlimit="10" stroke-linecap="round" stroke-linejoin="round"/>
<path d="M823.5 583L785.3 602.099C784.4 602.599 782.8 602.5 781.9 601.9L769.3 594C768.3 593.4 768.3 592.499 769.3 592.099L807.5 573C808.4 572.5 810 572.6 810.9 573.2L823.5 581.099C824.4 581.699 824.4 582.6 823.5 583Z" fill="#FAFAF8" stroke="#010101" stroke-miterlimit="10" stroke-linecap="round" stroke-linejoin="round"/>
<path d="M633.3 700L595.1 719.099C594.2 719.599 592.6 719.5 591.7 718.9L579.1 711C578.1 710.4 578.1 709.499 579.1 709.099L617.3 690C618.2 689.5 619.8 689.6 620.7 690.2L633.3 698.099C634.3 698.599 634.3 699.5 633.3 700Z" fill="#FAFAF8" stroke="#010101" stroke-miterlimit="10" stroke-linecap="round" stroke-linejoin="round"/>
<path d="M657 688.099L641.6 695.8C640.7 696.3 639.1 696.199 638.2 695.599L625.6 687.7C624.6 687.1 624.6 686.2 625.6 685.8L641 678.099C641.9 677.599 643.5 677.7 644.4 678.3L657 686.2C658 686.8 658 687.699 657 688.099Z" fill="#FAFAF8" stroke="#010101" stroke-miterlimit="10" stroke-linecap="round" stroke-linejoin="round"/>
<path d="M680.3 676.5L664.9 684.2C664 684.7 662.4 684.6 661.5 684L648.9 676.099C647.9 675.499 647.9 674.6 648.9 674.2L664.3 666.5C665.2 666 666.8 666.1 667.7 666.7L680.3 674.599C681.2 675.199 681.2 676.1 680.3 676.5Z" fill="#FAFAF8" stroke="#010101" stroke-miterlimit="10" stroke-linecap="round" stroke-linejoin="round"/>
<path d="M703.5 664.901L688.1 672.6C687.2 673.1 685.6 673.001 684.7 672.401L672.1 664.5C671.1 663.9 671.1 663 672.1 662.6L687.5 654.901C688.4 654.401 690 654.5 690.9 655.1L703.5 663C704.5 663.6 704.5 664.401 703.5 664.901Z" fill="#FAFAF8" stroke="#010101" stroke-miterlimit="10" stroke-linecap="round" stroke-linejoin="round"/>
<path d="M726.8 653.3L711.4 661C710.5 661.5 708.9 661.4 708 660.8L695.4 652.9C694.4 652.3 694.4 651.4 695.4 651L710.8 643.3C711.7 642.8 713.3 642.9 714.2 643.5L726.8 651.4C727.7 652 727.7 652.8 726.8 653.3Z" fill="#FAFAF8" stroke="#010101" stroke-miterlimit="10" stroke-linecap="round" stroke-linejoin="round"/>
<path d="M750 641.7L734.6 649.4C733.7 649.9 732.1 649.8 731.2 649.2L718.6 641.3C717.6 640.7 717.6 639.8 718.6 639.4L734 631.7C734.9 631.2 736.5 631.3 737.4 631.9L750 639.8C751 640.4 751 641.2 750 641.7Z" fill="#FAFAF8" stroke="#010101" stroke-miterlimit="10" stroke-linecap="round" stroke-linejoin="round"/>
<path d="M773.3 630.099L757.9 637.8C757 638.3 755.4 638.199 754.5 637.599L741.9 629.7C740.9 629.1 740.9 628.2 741.9 627.8L757.3 620.099C758.2 619.599 759.8 619.7 760.7 620.3L773.3 628.2C774.2 628.8 774.2 629.599 773.3 630.099Z" fill="#FAFAF8" stroke="#010101" stroke-miterlimit="10" stroke-linecap="round" stroke-linejoin="round"/>
<path d="M796.5 618.5L781.1 626.2C780.2 626.7 778.6 626.6 777.7 626L765.1 618.099C764.1 617.499 764.1 616.6 765.1 616.2L780.5 608.5C781.4 608 783 608.1 783.9 608.7L796.5 616.599C797.4 617.199 797.5 618 796.5 618.5Z" fill="#FAFAF8" stroke="#010101" stroke-miterlimit="10" stroke-linecap="round" stroke-linejoin="round"/>
<path d="M819.8 606.901L804.4 614.6C803.5 615.1 801.9 615.001 801 614.401L788.4 606.5C787.4 605.9 787.4 605 788.4 604.6L803.8 596.901C804.7 596.401 806.3 596.5 807.2 597.1L819.8 605C820.7 605.5 820.7 606.401 819.8 606.901Z" fill="#FAFAF8" stroke="#010101" stroke-miterlimit="10" stroke-linecap="round" stroke-linejoin="round"/>
<path d="M630.1 723.599L614.7 731.3C613.8 731.8 612.2 731.699 611.3 731.099L598.7 723.2C597.7 722.6 597.7 721.7 598.7 721.3L614.1 713.599C615 713.099 616.6 713.2 617.5 713.8L630.1 721.7C631 722.2 631 723.099 630.1 723.599Z" fill="#FAFAF8" stroke="#010101" stroke-miterlimit="10" stroke-linecap="round" stroke-linejoin="round"/>
<path d="M653.3 712L637.9 719.7C637 720.2 635.4 720.1 634.5 719.5L621.9 711.599C620.9 710.999 620.9 710.1 621.9 709.7L637.3 702C638.2 701.5 639.8 701.6 640.7 702.2L653.3 710.099C654.3 710.599 654.3 711.5 653.3 712Z" fill="#FAFAF8" stroke="#010101" stroke-miterlimit="10" stroke-linecap="round" stroke-linejoin="round"/>
<path d="M676.6 700.401L661.2 708.1C660.3 708.6 658.7 708.501 657.8 707.901L645.2 700C644.2 699.4 644.2 698.5 645.2 698.1L660.6 690.401C661.5 689.901 663.1 690 664 690.6L676.6 698.5C677.5 699 677.5 699.901 676.6 700.401Z" fill="#FAFAF8" stroke="#010101" stroke-miterlimit="10" stroke-linecap="round" stroke-linejoin="round"/>
<path d="M699.8 688.7L684.4 696.4C683.5 696.9 681.9 696.8 681 696.2L668.4 688.3C667.4 687.7 667.4 686.8 668.4 686.4L683.8 678.7C684.7 678.2 686.3 678.3 687.2 678.9L699.8 686.8C700.8 687.4 700.8 688.3 699.8 688.7Z" fill="#FAFAF8" stroke="#010101" stroke-miterlimit="10" stroke-linecap="round" stroke-linejoin="round"/>
<path d="M723.1 677.099L707.7 684.8C706.8 685.3 705.2 685.199 704.3 684.599L691.7 676.7C690.7 676.1 690.7 675.2 691.7 674.8L707.1 667.099C708 666.599 709.6 666.7 710.5 667.3L723.1 675.2C724 675.8 724 676.699 723.1 677.099Z" fill="#FAFAF8" stroke="#010101" stroke-miterlimit="10" stroke-linecap="round" stroke-linejoin="round"/>
<path d="M746.3 665.5L730.9 673.2C730 673.7 728.4 673.6 727.5 673L714.9 665.099C713.9 664.499 713.9 663.6 714.9 663.2L730.3 655.5C731.2 655 732.8 655.1 733.7 655.7L746.3 663.599C747.3 664.199 747.3 665.1 746.3 665.5Z" fill="#FAFAF8" stroke="#010101" stroke-miterlimit="10" stroke-linecap="round" stroke-linejoin="round"/>
<path d="M769.6 653.901L754.2 661.6C753.3 662.1 751.7 662.001 750.8 661.401L738.2 653.5C737.2 652.9 737.2 652 738.2 651.6L753.6 643.901C754.5 643.401 756.1 643.5 757 644.1L769.6 652C770.5 652.6 770.5 653.501 769.6 653.901Z" fill="#FAFAF8" stroke="#010101" stroke-miterlimit="10" stroke-linecap="round" stroke-linejoin="round"/>
<path d="M792.8 642.3L777.4 650C776.5 650.5 774.9 650.4 774 649.8L761.4 641.9C760.4 641.3 760.4 640.4 761.4 640L776.8 632.3C777.7 631.8 779.3 631.9 780.2 632.5L792.8 640.4C793.8 641 793.8 641.9 792.8 642.3Z" fill="#FAFAF8" stroke="#010101" stroke-miterlimit="10" stroke-linecap="round" stroke-linejoin="round"/>
<path d="M816.1 630.7L800.7 638.4C799.8 638.9 798.2 638.8 797.3 638.2L784.7 630.3C783.7 629.7 783.7 628.8 784.7 628.4L800.1 620.7C801 620.2 802.6 620.3 803.5 620.9L816.1 628.8C817 629.4 817 630.2 816.1 630.7Z" fill="#FAFAF8" stroke="#010101" stroke-miterlimit="10" stroke-linecap="round" stroke-linejoin="round"/>
<path d="M839.3 619.099L823.9 626.8C823 627.3 821.4 627.199 820.5 626.599L807.9 618.7C806.9 618.1 806.9 617.2 807.9 616.8L823.3 609.099C824.2 608.599 825.8 608.7 826.7 609.3L839.3 617.2C840.3 617.8 840.3 618.599 839.3 619.099Z" fill="#FAFAF8" stroke="#010101" stroke-miterlimit="10" stroke-linecap="round" stroke-linejoin="round"/>
<path d="M862.6 607.5L847.2 615.2C846.3 615.7 844.7 615.6 843.8 615L812 595.099C811 594.499 811 593.6 812 593.2L827.4 585.5C828.3 585 829.9 585.1 830.8 585.7L862.6 605.599C863.5 606.199 863.5 607 862.6 607.5Z" fill="#FAFAF8" stroke="#010101" stroke-miterlimit="10" stroke-linecap="round" stroke-linejoin="round"/>
<path d="M649.7 735.8L634.3 743.5C633.4 744 631.8 743.9 630.9 743.3L618.3 735.4C617.3 734.8 617.3 733.9 618.3 733.5L633.7 725.8C634.6 725.3 636.2 725.4 637.1 726L649.7 733.9C650.6 734.5 650.6 735.3 649.7 735.8Z" fill="#FAFAF8" stroke="#010101" stroke-miterlimit="10" stroke-linecap="round" stroke-linejoin="round"/>
<path d="M672.9 724.2L657.5 731.9C656.6 732.4 655 732.3 654.1 731.7L641.5 723.8C640.5 723.2 640.5 722.3 641.5 721.9L656.9 714.2C657.8 713.7 659.4 713.8 660.3 714.4L672.9 722.3C673.8 722.8 673.8 723.7 672.9 724.2Z" fill="#FAFAF8" stroke="#010101" stroke-miterlimit="10" stroke-linecap="round" stroke-linejoin="round"/>
<path d="M696.2 712.599L680.8 720.3C679.9 720.8 678.3 720.699 677.4 720.099L664.8 712.2C663.8 711.6 663.8 710.7 664.8 710.3L680.2 702.599C681.1 702.099 682.7 702.2 683.6 702.8L696.2 710.7C697.1 711.2 697.1 712.099 696.2 712.599Z" fill="#FAFAF8" stroke="#010101" stroke-miterlimit="10" stroke-linecap="round" stroke-linejoin="round"/>
<path d="M835.7 642.901L704 708.7C703.1 709.2 701.5 709.1 700.6 708.5L688 700.6C687 700 687 699.1 688 698.7L819.7 632.901C820.6 632.401 822.2 632.5 823.1 633.1L835.7 641C836.7 641.6 836.7 642.401 835.7 642.901Z" fill="#FAFAF8" stroke="#010101" stroke-miterlimit="10" stroke-linecap="round" stroke-linejoin="round"/>
<path d="M858.9 631.3L843.5 639C842.6 639.5 841 639.4 840.1 638.8L827.5 630.9C826.5 630.3 826.5 629.4 827.5 629L842.9 621.3C843.8 620.8 845.4 620.9 846.3 621.5L858.9 629.4C859.8 630 859.8 630.9 858.9 631.3Z" fill="#FAFAF8" stroke="#010101" stroke-miterlimit="10" stroke-linecap="round" stroke-linejoin="round"/>
<path d="M882.1 619.7L866.7 627.4C865.8 627.9 864.2 627.8 863.3 627.2L850.7 619.3C849.7 618.7 849.7 617.8 850.7 617.4L866.1 609.7C867 609.2 868.6 609.3 869.5 609.9L882.1 617.8C883.1 618.4 883.1 619.3 882.1 619.7Z" fill="#FAFAF8" stroke="#010101" stroke-miterlimit="10" stroke-linecap="round" stroke-linejoin="round"/>
<path d="M591 698.099L575.6 705.8C574.7 706.3 573.1 706.199 572.2 705.599L559.6 697.7C558.6 697.1 558.6 696.2 559.6 695.8L575 688.099C575.9 687.599 577.5 687.7 578.4 688.3L591 696.2C591.9 696.7 591.9 697.599 591 698.099Z" fill="#FAFAF8" stroke="#010101" stroke-miterlimit="10" stroke-linecap="round" stroke-linejoin="round"/>
<path d="M614.2 686.5L598.8 694.2C597.9 694.7 596.3 694.6 595.4 694L582.8 686.099C581.8 685.499 581.8 684.6 582.8 684.2L598.2 676.5C599.1 676 600.7 676.1 601.6 676.7L614.2 684.599C615.1 685.099 615.2 686 614.2 686.5Z" fill="#FAFAF8" stroke="#010101" stroke-miterlimit="10" stroke-linecap="round" stroke-linejoin="round"/>
<path d="M637.5 674.8L622.1 682.5C621.2 683 619.6 682.9 618.7 682.3L606.1 674.4C605.1 673.8 605.1 672.9 606.1 672.5L621.5 664.8C622.4 664.3 624 664.4 624.9 665L637.5 672.9C638.4 673.5 638.4 674.4 637.5 674.8Z" fill="#FAFAF8" stroke="#010101" stroke-miterlimit="10" stroke-linecap="round" stroke-linejoin="round"/>
<path d="M660.7 663.2L645.3 670.9C644.4 671.4 642.8 671.3 641.9 670.7L629.3 662.8C628.3 662.2 628.3 661.3 629.3 660.9L644.7 653.2C645.6 652.7 647.2 652.8 648.1 653.4L660.7 661.3C661.6 661.9 661.7 662.8 660.7 663.2Z" fill="#FAFAF8" stroke="#010101" stroke-miterlimit="10" stroke-linecap="round" stroke-linejoin="round"/>
<path d="M684 651.599L668.6 659.3C667.7 659.8 666.1 659.699 665.2 659.099L652.6 651.2C651.6 650.6 651.6 649.7 652.6 649.3L668 641.599C668.9 641.099 670.5 641.2 671.4 641.8L684 649.7C684.9 650.3 684.9 651.199 684 651.599Z" fill="#FAFAF8" stroke="#010101" stroke-miterlimit="10" stroke-linecap="round" stroke-linejoin="round"/>
<path d="M707.2 640L691.8 647.7C690.9 648.2 689.3 648.1 688.4 647.5L675.8 639.599C674.8 638.999 674.8 638.1 675.8 637.7L691.2 630C692.1 629.5 693.7 629.6 694.6 630.2L707.2 638.099C708.1 638.699 708.2 639.6 707.2 640Z" fill="#FAFAF8" stroke="#010101" stroke-miterlimit="10" stroke-linecap="round" stroke-linejoin="round"/>
<path d="M730.5 628.401L715.1 636.1C714.2 636.6 712.6 636.501 711.7 635.901L699.1 628C698.1 627.4 698.1 626.5 699.1 626.1L714.5 618.401C715.4 617.901 717 618 717.9 618.6L730.5 626.5C731.4 627.1 731.4 627.901 730.5 628.401Z" fill="#FAFAF8" stroke="#010101" stroke-miterlimit="10" stroke-linecap="round" stroke-linejoin="round"/>
<path d="M753.7 616.8L738.3 624.5C737.4 625 735.8 624.9 734.9 624.3L722.3 616.4C721.3 615.8 721.3 614.9 722.3 614.5L737.7 606.8C738.6 606.3 740.2 606.4 741.1 607L753.7 614.9C754.6 615.5 754.7 616.3 753.7 616.8Z" fill="#FAFAF8" stroke="#010101" stroke-miterlimit="10" stroke-linecap="round" stroke-linejoin="round"/>
<path d="M777 605.2L761.6 612.9C760.7 613.4 759.1 613.3 758.2 612.7L745.6 604.8C744.6 604.2 744.6 603.3 745.6 602.9L761 595.2C761.9 594.7 763.5 594.8 764.4 595.4L777 603.3C777.9 603.9 777.9 604.7 777 605.2Z" fill="#F58A6B" stroke="#010101" stroke-miterlimit="10" stroke-linecap="round" stroke-linejoin="round"/>
<path d="M823.5 582L785.3 601.099C784.4 601.599 782.8 601.5 781.9 600.9L769.3 593C768.3 592.4 768.3 591.499 769.3 591.099L807.5 572C808.4 571.5 810 571.6 810.9 572.2L823.5 580.099C824.4 580.599 824.4 581.5 823.5 582Z" fill="#FAFAF8" stroke="#010101" stroke-miterlimit="10" stroke-linecap="round" stroke-linejoin="round"/>
<path d="M633.3 698.901L595.1 718C594.2 718.5 592.6 718.4 591.7 717.8L579.1 709.901C578.1 709.301 578.1 708.4 579.1 708L617.3 688.901C618.2 688.401 619.8 688.5 620.7 689.1L633.3 697C634.3 697.6 634.3 698.401 633.3 698.901Z" fill="#FAFAF8" stroke="#010101" stroke-miterlimit="10" stroke-linecap="round" stroke-linejoin="round"/>
<path d="M657 687.099L641.6 694.8C640.7 695.3 639.1 695.199 638.2 694.599L625.6 686.7C624.6 686.1 624.6 685.2 625.6 684.8L641 677.099C641.9 676.599 643.5 676.7 644.4 677.3L657 685.2C658 685.7 658 686.599 657 687.099Z" fill="#FAFAF8" stroke="#010101" stroke-miterlimit="10" stroke-linecap="round" stroke-linejoin="round"/>
<path d="M680.3 675.5L664.9 683.2C664 683.7 662.4 683.6 661.5 683L648.9 675.099C647.9 674.499 647.9 673.6 648.9 673.2L664.3 665.5C665.2 665 666.8 665.1 667.7 665.7L680.3 673.599C681.2 674.099 681.2 675 680.3 675.5Z" fill="#FAFAF8" stroke="#010101" stroke-miterlimit="10" stroke-linecap="round" stroke-linejoin="round"/>
<path d="M703.5 663.901L688.1 671.6C687.2 672.1 685.6 672.001 684.7 671.401L672.1 663.5C671.1 662.9 671.1 662 672.1 661.6L687.5 653.901C688.4 653.401 690 653.5 690.9 654.1L703.5 662C704.5 662.5 704.5 663.401 703.5 663.901Z" fill="#FAFAF8" stroke="#010101" stroke-miterlimit="10" stroke-linecap="round" stroke-linejoin="round"/>
<path d="M726.8 652.2L711.4 659.9C710.5 660.4 708.9 660.3 708 659.7L695.4 651.8C694.4 651.2 694.4 650.3 695.4 649.9L710.8 642.2C711.7 641.7 713.3 641.8 714.2 642.4L726.8 650.3C727.7 650.9 727.7 651.8 726.8 652.2Z" fill="#FAFAF8" stroke="#010101" stroke-miterlimit="10" stroke-linecap="round" stroke-linejoin="round"/>
<path d="M750 640.599L734.6 648.3C733.7 648.8 732.1 648.699 731.2 648.099L718.6 640.2C717.6 639.6 717.6 638.7 718.6 638.3L734 630.599C734.9 630.099 736.5 630.2 737.4 630.8L750 638.7C751 639.3 751 640.199 750 640.599Z" fill="#FAFAF8" stroke="#010101" stroke-miterlimit="10" stroke-linecap="round" stroke-linejoin="round"/>
<path d="M773.3 629L757.9 636.7C757 637.2 755.4 637.1 754.5 636.5L741.9 628.599C740.9 627.999 740.9 627.1 741.9 626.7L757.3 619C758.2 618.5 759.8 618.6 760.7 619.2L773.3 627.099C774.2 627.699 774.2 628.6 773.3 629Z" fill="#FAFAF8" stroke="#010101" stroke-miterlimit="10" stroke-linecap="round" stroke-linejoin="round"/>
<path d="M796.5 617.401L781.1 625.1C780.2 625.6 778.6 625.501 777.7 624.901L765.1 617C764.1 616.4 764.1 615.5 765.1 615.1L780.5 607.401C781.4 606.901 783 607 783.9 607.6L796.5 615.5C797.4 616.1 797.5 617.001 796.5 617.401Z" fill="#FAFAF8" stroke="#010101" stroke-miterlimit="10" stroke-linecap="round" stroke-linejoin="round"/>
<path d="M819.8 605.8L804.4 613.5C803.5 614 801.9 613.9 801 613.3L788.4 605.4C787.4 604.8 787.4 603.9 788.4 603.5L803.8 595.8C804.7 595.3 806.3 595.4 807.2 596L819.8 603.9C820.7 604.5 820.7 605.4 819.8 605.8Z" fill="#FAFAF8" stroke="#010101" stroke-miterlimit="10" stroke-linecap="round" stroke-linejoin="round"/>
<path d="M630.1 722.5L614.7 730.2C613.8 730.7 612.2 730.6 611.3 730L598.7 722.099C597.7 721.499 597.7 720.6 598.7 720.2L614.1 712.5C615 712 616.6 712.1 617.5 712.7L630.1 720.599C631 721.199 631 722 630.1 722.5Z" fill="#FAFAF8" stroke="#010101" stroke-miterlimit="10" stroke-linecap="round" stroke-linejoin="round"/>
<path d="M653.3 710.901L637.9 718.6C637 719.1 635.4 719.001 634.5 718.401L621.9 710.5C620.9 709.9 620.9 709 621.9 708.6L637.3 700.901C638.2 700.401 639.8 700.5 640.7 701.1L653.3 709C654.3 709.6 654.3 710.401 653.3 710.901Z" fill="#FAFAF8" stroke="#010101" stroke-miterlimit="10" stroke-linecap="round" stroke-linejoin="round"/>
<path d="M676.6 699.3L661.2 707C660.3 707.5 658.7 707.4 657.8 706.8L645.2 698.9C644.2 698.3 644.2 697.4 645.2 697L660.6 689.3C661.5 688.8 663.1 688.9 664 689.5L676.6 697.4C677.5 698 677.5 698.8 676.6 699.3Z" fill="#FAFAF8" stroke="#010101" stroke-miterlimit="10" stroke-linecap="round" stroke-linejoin="round"/>
<path d="M699.8 687.7L684.4 695.4C683.5 695.9 681.9 695.8 681 695.2L668.4 687.3C667.4 686.7 667.4 685.8 668.4 685.4L683.8 677.7C684.7 677.2 686.3 677.3 687.2 677.9L699.8 685.8C700.8 686.3 700.8 687.2 699.8 687.7Z" fill="#FAFAF8" stroke="#010101" stroke-miterlimit="10" stroke-linecap="round" stroke-linejoin="round"/>
<path d="M723.1 676.099L707.7 683.8C706.8 684.3 705.2 684.199 704.3 683.599L691.7 675.7C690.7 675.1 690.7 674.2 691.7 673.8L707.1 666.099C708 665.599 709.6 665.7 710.5 666.3L723.1 674.2C724 674.7 724 675.599 723.1 676.099Z" fill="#FAFAF8" stroke="#010101" stroke-miterlimit="10" stroke-linecap="round" stroke-linejoin="round"/>
<path d="M746.3 664.5L730.9 672.2C730 672.7 728.4 672.6 727.5 672L714.9 664.099C713.9 663.499 713.9 662.6 714.9 662.2L730.3 654.5C731.2 654 732.8 654.1 733.7 654.7L746.3 662.599C747.3 663.099 747.3 664 746.3 664.5Z" fill="#FAFAF8" stroke="#010101" stroke-miterlimit="10" stroke-linecap="round" stroke-linejoin="round"/>
<path d="M769.6 652.901L754.2 660.6C753.3 661.1 751.7 661.001 750.8 660.401L738.2 652.5C737.2 651.9 737.2 651 738.2 650.6L753.6 642.901C754.5 642.401 756.1 642.5 757 643.1L769.6 651C770.5 651.5 770.5 652.401 769.6 652.901Z" fill="#FAFAF8" stroke="#010101" stroke-miterlimit="10" stroke-linecap="round" stroke-linejoin="round"/>
<path d="M792.8 641.3L777.4 649C776.5 649.5 774.9 649.4 774 648.8L761.4 640.9C760.4 640.3 760.4 639.4 761.4 639L776.8 631.3C777.7 630.8 779.3 630.9 780.2 631.5L792.8 639.4C793.8 639.9 793.8 640.8 792.8 641.3Z" fill="#FAFAF8" stroke="#010101" stroke-miterlimit="10" stroke-linecap="round" stroke-linejoin="round"/>
<path d="M816.1 629.7L800.7 637.4C799.8 637.9 798.2 637.8 797.3 637.2L784.7 629.3C783.7 628.7 783.7 627.8 784.7 627.4L800.1 619.7C801 619.2 802.6 619.3 803.5 619.9L816.1 627.8C817 628.3 817 629.2 816.1 629.7Z" fill="#FAFAF8" stroke="#010101" stroke-miterlimit="10" stroke-linecap="round" stroke-linejoin="round"/>
<path d="M839.3 618L823.9 625.7C823 626.2 821.4 626.1 820.5 625.5L807.9 617.599C806.9 616.999 806.9 616.1 807.9 615.7L823.3 608C824.2 607.5 825.8 607.6 826.7 608.2L839.3 616.099C840.3 616.699 840.3 617.6 839.3 618Z" fill="#FAFAF8" stroke="#010101" stroke-miterlimit="10" stroke-linecap="round" stroke-linejoin="round"/>
<path d="M862.6 606.401L847.2 614.1C846.3 614.6 844.7 614.501 843.8 613.901L812 594C811 593.4 811 592.5 812 592.1L827.4 584.401C828.3 583.901 829.9 584 830.8 584.6L862.6 604.5C863.5 605.1 863.5 606.001 862.6 606.401Z" fill="url(#paint31_linear_435_4995)" stroke="#010101" stroke-width="1.1426" stroke-miterlimit="10" stroke-linecap="round" stroke-linejoin="round"/>
<path d="M649.7 734.7L634.3 742.4C633.4 742.9 631.8 742.8 630.9 742.2L618.3 734.3C617.3 733.7 617.3 732.8 618.3 732.4L633.7 724.7C634.6 724.2 636.2 724.3 637.1 724.9L649.7 732.8C650.6 733.4 650.6 734.3 649.7 734.7Z" fill="#FAFAF8" stroke="#010101" stroke-miterlimit="10" stroke-linecap="round" stroke-linejoin="round"/>
<path d="M672.9 723.099L657.5 730.8C656.6 731.3 655 731.199 654.1 730.599L641.5 722.7C640.5 722.1 640.5 721.2 641.5 720.8L656.9 713.099C657.8 712.599 659.4 712.7 660.3 713.3L672.9 721.2C673.8 721.8 673.8 722.699 672.9 723.099Z" fill="#FAFAF8" stroke="#010101" stroke-miterlimit="10" stroke-linecap="round" stroke-linejoin="round"/>
<path d="M696.2 711.5L680.8 719.2C679.9 719.7 678.3 719.6 677.4 719L664.8 711.099C663.8 710.499 663.8 709.6 664.8 709.2L680.2 701.5C681.1 701 682.7 701.1 683.6 701.7L696.2 709.599C697.1 710.199 697.1 711.1 696.2 711.5Z" fill="#FAFAF8" stroke="#010101" stroke-miterlimit="10" stroke-linecap="round" stroke-linejoin="round"/>
<path d="M835.7 641.8L704 707.599C703.1 708.099 701.5 708 700.6 707.4L688 699.5C687 698.9 687 697.999 688 697.599L819.7 631.8C820.6 631.3 822.2 631.4 823.1 632L835.7 639.9C836.7 640.5 836.7 641.4 835.7 641.8Z" fill="#FAFAF8" stroke="#010101" stroke-miterlimit="10" stroke-linecap="round" stroke-linejoin="round"/>
<path d="M858.9 630.3L843.5 638C842.6 638.5 841 638.4 840.1 637.8L827.5 629.9C826.5 629.3 826.5 628.4 827.5 628L842.9 620.3C843.8 619.8 845.4 619.9 846.3 620.5L858.9 628.4C859.8 628.9 859.8 629.8 858.9 630.3Z" fill="#FAFAF8" stroke="#010101" stroke-miterlimit="10" stroke-linecap="round" stroke-linejoin="round"/>
<path d="M882.1 618.7L866.7 626.4C865.8 626.9 864.2 626.8 863.3 626.2L850.7 618.3C849.7 617.7 849.7 616.8 850.7 616.4L866.1 608.7C867 608.2 868.6 608.3 869.5 608.9L882.1 616.8C883.1 617.3 883.1 618.2 882.1 618.7Z" fill="#FAFAF8" stroke="#010101" stroke-miterlimit="10" stroke-linecap="round" stroke-linejoin="round"/>
<path d="M782.4 556.6L545.8 672.9" stroke="#010101" stroke-miterlimit="10" stroke-linecap="round" stroke-linejoin="round"/>
<path d="M761.8 461.6C784.72 461.6 803.3 443.019 803.3 420.1C803.3 397.18 784.72 378.6 761.8 378.6C738.88 378.6 720.3 397.18 720.3 420.1C720.3 443.019 738.88 461.6 761.8 461.6Z" fill="#DBEFE5"/>
<path d="M761.5 551.7V419.5" stroke="#010101" stroke-miterlimit="10" stroke-linecap="round" stroke-linejoin="round"/>
<path d="M761.5 429.5C766.913 429.5 771.3 425.113 771.3 419.7C771.3 414.288 766.913 409.9 761.5 409.9C756.088 409.9 751.7 414.288 751.7 419.7C751.7 425.113 756.088 429.5 761.5 429.5Z" fill="url(#paint32_linear_435_4995)" stroke="#010101" stroke-width="1.1426" stroke-miterlimit="10" stroke-linecap="round" stroke-linejoin="round"/>
<defs>
<linearGradient id="paint0_linear_435_4995" x1="272.186" y1="511.271" x2="621.412" y2="511.271" gradientUnits="userSpaceOnUse">
<stop stop-color="#EFF8F5"/>
<stop offset="1" stop-color="#DFEDE8"/>
</linearGradient>
<linearGradient id="paint1_linear_435_4995" x1="344.483" y1="235.839" x2="549.821" y2="30.4999" gradientUnits="userSpaceOnUse">
<stop stop-color="#EFF8F5" stop-opacity="0"/>
<stop offset="1" stop-color="#DFEDE8"/>
</linearGradient>
<linearGradient id="paint2_linear_435_4995" x1="447.271" y1="512.278" x2="447.271" y2="49.2623" gradientUnits="userSpaceOnUse">
<stop stop-color="#EFF8F5" stop-opacity="0"/>
<stop offset="1" stop-color="#DFEDE8"/>
</linearGradient>
<linearGradient id="paint3_linear_435_4995" x1="481.83" y1="362.374" x2="404.488" y2="432.401" gradientUnits="userSpaceOnUse">
<stop offset="0.2821" stop-color="#D0D3D3"/>
<stop offset="0.34" stop-color="#CACDCD"/>
<stop offset="0.7346" stop-color="#A1A7A7"/>
</linearGradient>
<linearGradient id="paint4_linear_435_4995" x1="441.568" y1="378.746" x2="364.228" y2="448.771" gradientUnits="userSpaceOnUse">
<stop offset="0.2821" stop-color="#D0D3D3"/>
<stop offset="0.34" stop-color="#CACDCD"/>
<stop offset="0.7346" stop-color="#A1A7A7"/>
</linearGradient>
<linearGradient id="paint5_linear_435_4995" x1="488.485" y1="133.631" x2="397.863" y2="81.9449" gradientUnits="userSpaceOnUse">
<stop stop-color="white"/>
<stop offset="0.148" stop-color="#93D1B1"/>
<stop offset="1" stop-color="#62C089"/>
</linearGradient>
<linearGradient id="paint6_linear_435_4995" x1="387.118" y1="116.632" x2="487.869" y2="116.632" gradientUnits="userSpaceOnUse">
<stop offset="0.8939" stop-color="#62C089"/>
<stop offset="1" stop-color="#36B779"/>
</linearGradient>
<linearGradient id="paint7_linear_435_4995" x1="460.391" y1="100.472" x2="369.771" y2="48.7871" gradientUnits="userSpaceOnUse">
<stop stop-color="white"/>
<stop offset="0.148" stop-color="#93D1B1"/>
<stop offset="1" stop-color="#62C089"/>
</linearGradient>
<linearGradient id="paint8_linear_435_4995" x1="358.866" y1="83.7469" x2="459.616" y2="83.7469" gradientUnits="userSpaceOnUse">
<stop offset="0.8939" stop-color="#62C089"/>
<stop offset="1" stop-color="#36B779"/>
</linearGradient>
<linearGradient id="paint9_linear_435_4995" x1="313.34" y1="431.823" x2="422.014" y2="454.736" gradientUnits="userSpaceOnUse">
<stop offset="0.00837989" stop-color="#FAB9A8"/>
<stop offset="0.8436" stop-color="#F58A6B"/>
</linearGradient>
<linearGradient id="paint10_linear_435_4995" x1="297.597" y1="307.468" x2="389.243" y2="307.468" gradientUnits="userSpaceOnUse">
<stop offset="0.3184" stop-color="#FFCE49"/>
<stop offset="1" stop-color="white"/>
</linearGradient>
<linearGradient id="paint11_linear_435_4995" x1="485.559" y1="374.098" x2="602.396" y2="374.098" gradientUnits="userSpaceOnUse">
<stop offset="0.8939" stop-color="#62C089"/>
<stop offset="1" stop-color="#36B779"/>
</linearGradient>
<linearGradient id="paint12_linear_435_4995" x1="485.558" y1="361.483" x2="602.406" y2="361.483" gradientUnits="userSpaceOnUse">
<stop stop-color="white"/>
<stop offset="0.148" stop-color="#93D1B1"/>
<stop offset="1" stop-color="#62C089"/>
</linearGradient>
<linearGradient id="paint13_linear_435_4995" x1="562.239" y1="146.314" x2="547.563" y2="262.24" gradientUnits="userSpaceOnUse">
<stop offset="0.2821" stop-color="#D0D3D3"/>
<stop offset="0.34" stop-color="#CACDCD"/>
<stop offset="0.7346" stop-color="#A1A7A7"/>
</linearGradient>
<linearGradient id="paint14_linear_435_4995" x1="463.059" y1="485.745" x2="507.12" y2="561.113" gradientUnits="userSpaceOnUse">
<stop offset="0.1369" stop-color="#FEE8AA"/>
<stop offset="0.595" stop-color="#FFCE49"/>
<stop offset="1" stop-color="#FFCE49"/>
</linearGradient>
<linearGradient id="paint15_linear_435_4995" x1="427.893" y1="473.729" x2="444.888" y2="502.799" gradientUnits="userSpaceOnUse">
<stop stop-color="#FEE8AA"/>
<stop offset="0.6257" stop-color="#FFCE49"/>
</linearGradient>
<linearGradient id="paint16_linear_435_4995" x1="535.898" y1="122.785" x2="458.303" y2="152.917" gradientUnits="userSpaceOnUse">
<stop offset="0.1369" stop-color="#FEE8AA"/>
<stop offset="0.595" stop-color="#FFCE49"/>
<stop offset="1" stop-color="#FFCE49"/>
</linearGradient>
<linearGradient id="paint17_linear_435_4995" x1="551.2" y1="91.559" x2="521.271" y2="103.181" gradientUnits="userSpaceOnUse">
<stop stop-color="#FEE8AA"/>
<stop offset="0.6257" stop-color="#FFCE49"/>
</linearGradient>
<linearGradient id="paint18_linear_435_4995" x1="524.545" y1="467.958" x2="579.621" y2="419.857" gradientUnits="userSpaceOnUse">
<stop offset="0.1369" stop-color="#FEE8AA"/>
<stop offset="0.595" stop-color="#FFCE49"/>
<stop offset="1" stop-color="#FFCE49"/>
</linearGradient>
<linearGradient id="paint19_linear_435_4995" x1="302.364" y1="201.23" x2="361.62" y2="201.23" gradientUnits="userSpaceOnUse">
<stop offset="0.3017" stop-color="#F58A6B"/>
<stop offset="0.6732" stop-color="#F8A690"/>
</linearGradient>
<linearGradient id="paint20_linear_435_4995" x1="410.595" y1="171.284" x2="429.749" y2="194.11" gradientUnits="userSpaceOnUse">
<stop stop-color="white"/>
<stop offset="0.148" stop-color="#93D1B1"/>
<stop offset="1" stop-color="#62C089"/>
</linearGradient>
<linearGradient id="paint21_linear_435_4995" x1="412.571" y1="205.408" x2="438.221" y2="235.975" gradientUnits="userSpaceOnUse">
<stop stop-color="white"/>
<stop offset="0.148" stop-color="#93D1B1"/>
<stop offset="1" stop-color="#62C089"/>
</linearGradient>
<linearGradient id="paint22_linear_435_4995" x1="421.882" y1="161.797" x2="441.048" y2="184.636" gradientUnits="userSpaceOnUse">
<stop stop-color="white"/>
<stop offset="0.148" stop-color="#93D1B1"/>
<stop offset="1" stop-color="#62C089"/>
</linearGradient>
<linearGradient id="paint23_linear_435_4995" x1="422.912" y1="196.731" x2="448.564" y2="227.3" gradientUnits="userSpaceOnUse">
<stop stop-color="white"/>
<stop offset="0.148" stop-color="#93D1B1"/>
<stop offset="1" stop-color="#62C089"/>
</linearGradient>
<linearGradient id="paint24_linear_435_4995" x1="501.279" y1="303.444" x2="471.503" y2="302.236" gradientUnits="userSpaceOnUse">
<stop offset="0.0446927" stop-color="#FFCE49"/>
<stop offset="0.2654" stop-color="#FFCE49"/>
<stop offset="1" stop-color="#FEE8AA"/>
</linearGradient>
<linearGradient id="paint25_linear_435_4995" x1="474.717" y1="281.926" x2="434.845" y2="280.309" gradientUnits="userSpaceOnUse">
<stop offset="0.0446927" stop-color="#FFCE49"/>
<stop offset="0.2654" stop-color="#FFCE49"/>
<stop offset="0.8631" stop-color="#FFF2CE"/>
</linearGradient>
<linearGradient id="paint26_linear_435_4995" x1="267.353" y1="711.939" x2="391.716" y2="711.939" gradientUnits="userSpaceOnUse">
<stop offset="0.0893855" stop-color="white"/>
<stop offset="0.2038" stop-color="#FEE9E1"/>
<stop offset="0.4218" stop-color="#FBC7B8"/>
</linearGradient>
<linearGradient id="paint27_linear_435_4995" x1="139.903" y1="553.891" x2="153.093" y2="553.891" gradientUnits="userSpaceOnUse">
<stop offset="0.8939" stop-color="#62C089"/>
<stop offset="1" stop-color="#36B779"/>
</linearGradient>
<linearGradient id="paint28_linear_435_4995" x1="269.289" y1="711.131" x2="321.455" y2="711.131" gradientUnits="userSpaceOnUse">
<stop offset="0.8939" stop-color="#62C089"/>
<stop offset="1" stop-color="#36B779"/>
</linearGradient>
<linearGradient id="paint29_linear_435_4995" x1="507.982" y1="714.515" x2="632.849" y2="714.515" gradientUnits="userSpaceOnUse">
<stop offset="0.0893855" stop-color="white"/>
<stop offset="0.2038" stop-color="#FEE9E1"/>
<stop offset="0.4218" stop-color="#FBC7B8"/>
</linearGradient>
<linearGradient id="paint30_linear_435_4995" x1="537.238" y1="660.565" x2="550.481" y2="660.565" gradientUnits="userSpaceOnUse">
<stop offset="0.8939" stop-color="#62C089"/>
<stop offset="1" stop-color="#36B779"/>
</linearGradient>
<linearGradient id="paint31_linear_435_4995" x1="811.235" y1="599.258" x2="863.279" y2="599.258" gradientUnits="userSpaceOnUse">
<stop offset="0.8939" stop-color="#62C089"/>
<stop offset="1" stop-color="#36B779"/>
</linearGradient>
<linearGradient id="paint32_linear_435_4995" x1="751.746" y1="419.668" x2="771.307" y2="419.668" gradientUnits="userSpaceOnUse">
<stop offset="0.8939" stop-color="#62C089"/>
<stop offset="1" stop-color="#36B779"/>
</linearGradient>
</defs>
</svg>
