<?xml version="1.0" encoding="UTF-8"?>
<svg width="239px" height="186px" viewBox="0 0 239 186" version="1.1" xmlns="http://www.w3.org/2000/svg" xmlns:xlink="http://www.w3.org/1999/xlink">
    <title>hero_graphic_saucebot</title>
    <defs>
        <radialGradient cx="26.2653884%" cy="2.74120539%" fx="26.2653884%" fy="2.74120539%" r="86.2521463%" gradientTransform="translate(0.262654,0.027412),scale(1.000000,0.868858),translate(-0.262654,-0.027412)" id="radialGradient-1">
            <stop stop-color="#000000" offset="65%"></stop>
            <stop stop-color="#FFFFFF" offset="100%"></stop>
        </radialGradient>
        <radialGradient cx="61.0334785%" cy="-55.9507408%" fx="61.0334785%" fy="-55.9507408%" r="96.9953171%" gradientTransform="translate(0.610335,-0.559507),scale(1.000000,0.662400),translate(-0.610335,0.559507)" id="radialGradient-2">
            <stop stop-color="#000000" offset="65%"></stop>
            <stop stop-color="#FFFFFF" offset="100%"></stop>
        </radialGradient>
        <radialGradient cx="47.0987616%" cy="41.1467355%" fx="47.0987616%" fy="41.1467355%" r="121.111891%" gradientTransform="translate(0.470988,0.411467),scale(0.396536,1.000000),rotate(-6.911227),translate(-0.470988,-0.411467)" id="radialGradient-3">
            <stop stop-color="#000000" offset="65%"></stop>
            <stop stop-color="#FFFFFF" offset="100%"></stop>
        </radialGradient>
        <radialGradient cx="13.354125%" cy="32.8747785%" fx="13.354125%" fy="32.8747785%" r="90.0885952%" gradientTransform="translate(0.133541,0.328748),scale(1.000000,0.422568),translate(-0.133541,-0.328748)" id="radialGradient-4">
            <stop stop-color="#000000" offset="74%"></stop>
            <stop stop-color="#FFFFFF" stop-opacity="0.1" offset="100%"></stop>
        </radialGradient>
        <radialGradient cx="9.00738748%" cy="-15.6306764%" fx="9.00738748%" fy="-15.6306764%" r="84.7832904%" gradientTransform="translate(0.090074,-0.156307),scale(1.000000,0.887453),translate(-0.090074,0.156307)" id="radialGradient-5">
            <stop stop-color="#000000" offset="65%"></stop>
            <stop stop-color="#FFFFFF" offset="100%"></stop>
        </radialGradient>
        <radialGradient cx="51.9862084%" cy="48.3710384%" fx="51.9862084%" fy="48.3710384%" r="50.2196175%" gradientTransform="translate(0.519862,0.483710),scale(0.783954,1.000000),translate(-0.519862,-0.483710)" id="radialGradient-6">
            <stop stop-color="#000000" offset="76%"></stop>
            <stop stop-color="#FFFFFF" stop-opacity="0.1" offset="100%"></stop>
        </radialGradient>
    </defs>
    <g id="Desktop" stroke="none" stroke-width="1" fill="none" fill-rule="evenodd">
        <g id="1-home-copy" transform="translate(-670.000000, -108.000000)">
            <g id="hero_graphic_saucebot" transform="translate(670.000000, 108.000000)">
                <polygon id="Path" fill="#805F57" points="90.1372174 180.387652 65.108087 165.726 106.65887 141.982696 131.688 156.644348"></polygon>
                <polygon id="Path" fill="#805F57" points="90.2261739 185.07 65.108087 170.764174 65.108087 165.766435 90.1372174 180.387652"></polygon>
                <polygon id="Path" fill="#B08871" points="90.2261739 185.07 90.1372174 180.387652 131.688 156.644348 131.688 160.768696"></polygon>
                <ellipse id="Oval" fill="#000000" fill-rule="nonzero" opacity="0.05" cx="44.0092174" cy="144.44113" rx="44.0092174" ry="21.1231304"></ellipse>
                <path d="M70.671913,90.954 C47.9071304,105.591391 37.7337391,88.5764348 48.9422609,76.0578261" id="Path" stroke="#E8322E" stroke-width="6.928" stroke-linecap="round" stroke-linejoin="round"></path>
                <path d="M69.7823478,88.4227826 C59.2288696,95.2077391 50.8912174,94.8923478 48.4408696,91.9810435 C46.5485217,89.7086087 46.4595652,85.382087 49.5811304,81.0393913 C47.235913,84.9777391 47.4704348,88.7624348 49.2010435,90.8407826 C51.6271304,93.7601739 59.4229565,94.0755652 69.9845217,87.2663478 L69.7823478,88.4227826 Z" id="Path" fill="#F19386" fill-rule="nonzero"></path>
                <path d="M88.3257391,103.092522 C89.4326065,102.639991 90.4530632,101.999812 91.3421739,101.200174 C92.5675316,100.178521 93.5089321,98.8583325 94.0755652,97.3669565 C94.3223016,96.8778094 94.127059,96.2812347 93.6388696,96.0326087 C93.0323478,95.7091304 91.5766957,94.9732174 90.776087,94.5526957 C90.4459565,94.3235798 90.0423573,94.2255628 89.643913,94.2777391 L86.7326087,95.3290435 C87.1300362,95.2745193 87.5335449,95.369632 87.8647826,95.595913 C88.6734783,96.0164348 90.1210435,96.7523478 90.7194783,97.083913 C90.9548185,97.2002922 91.1340672,97.4056725 91.217546,97.654591 C91.3010248,97.9035096 91.2818481,98.1754349 91.1642609,98.4101739 C90.5923852,99.9031331 89.6487508,101.225335 88.4227826,102.251478 C87.6359636,102.951507 86.7503844,103.531902 85.7945217,103.974 L88.3257391,103.092522 Z" id="Path" fill="#A71821" fill-rule="nonzero"></path>
                <path d="M84.4116522,98.1675652 C83.5794917,98.1968766 82.7511116,98.0422456 81.9855652,97.7146957 C80.6524009,97.1176482 79.5265552,96.1381624 78.7507826,94.9004348 C76.7533043,91.8435652 76.826087,87.6221739 78.9125217,85.1313913 C79.1959166,84.7949121 79.5159853,84.4911181 79.8667826,84.2256522 C78.3614631,84.2923383 76.9582455,85.0057389 76.0173913,86.1826957 C73.9309565,88.6815652 73.8581739,92.8867826 75.8556522,95.9436522 C76.6310504,97.1816998 77.7570053,98.1612806 79.0904348,98.757913 C80.8392975,99.5450501 82.8778466,99.3188889 84.4116522,98.1675652 Z" id="Path" fill="#A71821" fill-rule="nonzero"></path>
                <path d="M94.302,88.5036522 C93.8358896,86.3212154 92.9125627,84.2623343 91.5928696,82.4626957 C88.527913,78.3302609 83.9911304,76.6886087 80.0527826,77.8207826 L77.1172174,78.9044348 C81.0474783,77.7722609 85.5842609,79.413913 88.6492174,83.5544348 C89.9726706,85.3498628 90.898921,87.4063594 91.3664348,89.5873043 C91.4719098,89.993576 91.329506,90.423952 91.0025217,90.6871304 L93.5903478,89.7247826 C93.8563527,89.673616 94.0872547,89.5099614 94.2236474,89.2759238 C94.3600402,89.0418862 94.3886077,88.7603148 94.302,88.5036522 Z" id="Path" fill="#A71821" fill-rule="nonzero"></path>
                <path d="M91.0025217,90.6871304 L90.6547826,90.8165217 C90.7799273,90.8041568 90.8997333,90.7595779 91.0025217,90.6871304 L91.0025217,90.6871304 Z" id="Path" fill="#A71821" fill-rule="nonzero"></path>
                <path d="M88.4227826,102.251478 C89.6487508,101.225335 90.5923852,99.9031331 91.1642609,98.4101739 C91.2818481,98.1754349 91.3010248,97.9035096 91.217546,97.654591 C91.1340672,97.4056725 90.9548185,97.2002922 90.7194783,97.083913 C90.1210435,96.7523478 88.6653913,96.0164348 87.8647826,95.595913 C87.5335449,95.369632 87.1300362,95.2745193 86.7326087,95.3290435 C86.513313,95.4091839 86.3393553,95.5801931 86.2554783,95.798087 C85.9238937,96.4456965 85.519637,97.0534382 85.0505217,97.6095652 C83.5024678,99.2251887 81.1022995,99.6857616 79.0661739,98.757913 C77.7327445,98.1612806 76.6067895,97.1816998 75.8313913,95.9436522 C73.833913,92.8867826 73.9066957,88.6653913 75.9931304,86.1826957 C78.4677391,83.2228696 82.7053043,83.6757391 85.2122609,87.0641739 C85.9092598,88.0053549 86.4148098,89.0741537 86.7002609,90.21 C86.7790446,90.7042347 87.2026,91.069722 87.7030435,91.0753043 L90.6466957,90.8165217 C90.9119118,90.7609256 91.1409845,90.5951939 91.2767557,90.3606801 C91.4125269,90.1261662 91.4421916,89.8449879 91.3583478,89.5873043 C90.8908341,87.4063594 89.9645836,85.3498628 88.6411304,83.5544348 C85.5761739,79.413913 81.0393913,77.7722609 77.1091304,78.9044348 C75.3757978,79.4203873 73.8266407,80.4222878 72.6451304,81.7914783 C68.7553043,86.2231304 68.6016522,93.921913 72.354,99.3886957 C73.6915872,101.430652 75.5857697,103.047021 77.8126957,104.046783 C79.7133488,104.898791 81.8404257,105.106103 83.8698261,104.63713 C85.5625781,104.233775 87.1276625,103.413704 88.4227826,102.251478 L88.4227826,102.251478 Z" id="Path" fill="#E8322E" fill-rule="nonzero"></path>
                <path d="M59.0347826,109.376087 L42.1573043,112.206522 L46.4514783,133.159826 C47.6321739,139.297826 53.8995652,143.30087 60.8462609,142.128261 C67.7929565,140.955652 73.1384348,135.521217 69.741913,128.380435 L59.0347826,109.376087 Z" id="Path" fill="#E8322E" fill-rule="nonzero"></path>
                <path d="M36.3185217,121.094087 L19.2550435,119.686957 L12.5428696,143.713304 C11.3217391,149.099217 14.8557391,154.85713 22.6434783,155.819478 C30.4312174,156.781826 36.2295652,151.687043 36.2295652,145.654174 L36.3185217,121.094087 Z" id="Path" fill="#E8322E" fill-rule="nonzero"></path>
                <g id="Group" opacity="0.15" style="mix-blend-mode: multiply;" transform="translate(42.052174, 109.173913)" fill="url(#radialGradient-1)" fill-rule="nonzero">
                    <path d="M16.9826087,0.202173913 L0.105130435,3.0326087 L4.39930435,23.985913 C5.58,30.123913 11.8473913,34.1269565 18.794087,32.9543478 C25.7407826,31.7817391 31.0862609,26.3473043 27.6897391,19.2065217 L16.9826087,0.202173913 Z" id="Path"></path>
                </g>
                <g id="Group" opacity="0.15" style="mix-blend-mode: multiply;" transform="translate(12.130435, 119.686957)" fill="url(#radialGradient-2)" fill-rule="nonzero">
                    <path d="M24.188087,1.40713043 L7.1246087,0 L0.412434783,24.0263478 C-0.808695652,29.4122609 2.72530435,35.1701739 10.5130435,36.1325217 C18.3007826,37.0948696 24.0991304,32.000087 24.0991304,25.9672174 L24.188087,1.40713043 Z" id="Path"></path>
                </g>
                <path d="M20.4114783,76.2114783 C13.941913,81.3224348 11.6694783,88.7786087 10.9982609,98.2888696 C10.3270435,107.79913 9.99547826,113.743043 15.0417391,118.506261 C20.088,123.269478 29.8408696,126.657913 43.1196522,124.450174 C56.3984348,122.242435 67.332,113.071826 68.3347826,108.14687 C69.3375652,103.221913 69.386087,94.6901739 69.7257391,86.8781739 C70.0653913,79.0661739 65.0433913,72.0952174 54.6193043,69.5478261 C44.1952174,67.0004348 28.9917391,69.4103478 20.4114783,76.2114783 Z" id="Path" fill="#E8322E" fill-rule="nonzero"></path>
                <path d="M26.4686087,122.234348 C14.8314783,119.808261 11.0063478,112.311652 10.6505217,104.507739 C10.4726087,110.56487 11.1923478,114.875217 15.0336522,118.498174 C20.079913,123.253304 29.8327826,126.649826 43.1115652,124.442087 C47.6418472,123.658032 52.0128906,122.136362 56.0506957,119.937652 C46.6066183,123.489869 36.3477863,124.286345 26.4686087,122.234348 Z" id="Path" fill="#F19386" fill-rule="nonzero"></path>
                <path d="M47.0984348,107.224957 C46.7421304,106.081279 46.5674847,104.888776 46.5808696,103.690957 C46.5808696,97.7793913 50.1391304,90.8973913 54.489913,88.3257391 C54.8506048,88.117412 55.2263444,87.9363001 55.614,87.783913 L54.7163478,89.5145217 L54.4737391,89.652 C50.6566957,91.884 47.5432174,97.9168696 47.5432174,103.100609 C47.5397659,103.916372 47.6265544,104.730015 47.802,105.526696 L53.8672174,101.992696 L51.336,109.982609 L57.465913,98.0058261 L49.1282609,102.858 L58.4929565,84.6866011 C57.0609827,84.6845681 55.6581871,85.0913788 54.4494783,85.8592174 C49.0716522,88.9969565 44.6885217,97.4882609 44.6885217,104.790783 C44.6885217,109.562087 46.5646957,112.659391 49.3627826,113.35487 L52.274087,104.200435 L47.0984348,107.224957 Z" id="Path" fill="#FFFFFF" fill-rule="nonzero"></path>
                <path d="M59.5604348,84.824087 L56.6491304,93.9866087 L61.8490435,90.945913 C62.2215565,92.0860165 62.3992625,93.2807474 62.3746957,94.479913 C62.3746957,100.391478 58.8326087,107.265391 54.4737391,109.84513 C54.1030727,110.060383 53.7164638,110.246929 53.3173043,110.40313 L54.2068696,108.672522 L54.4737391,108.526957 C58.2988696,106.294957 61.4123478,100.262087 61.4123478,95.0783478 C61.4040438,94.2628045 61.3146473,93.450109 61.1454783,92.6522609 L55.0802609,96.1943478 L57.6114783,88.2286957 L51.3926087,100.278261 L59.7464348,95.426087 L50.4545217,113.500435 C51.8854899,113.495423 53.2863676,113.089168 54.498,112.327826 C59.8434783,109.173913 64.2346957,100.698783 64.2346957,93.3962609 C64.2346957,88.6249565 62.3666087,85.5276522 59.5604348,84.824087" id="Path" fill="#FFFFFF" fill-rule="nonzero"></path>
                <g id="Group" opacity="0.15" style="mix-blend-mode: multiply;" transform="translate(14.556522, 67.930435)" fill="url(#radialGradient-3)" fill-rule="nonzero">
                    <path d="M52.2417391,9.09782609 C49.7671304,5.66086957 45.7155652,3.00026087 40.0627826,1.6173913 C37.1864436,0.946837449 34.2418861,0.61303047 31.2884348,0.622491652 C24.8916522,1.77913043 18.2684348,3.1053913 12.825913,4.23756522 C10.3331537,5.27013818 7.98891831,6.62990346 5.85495652,8.28104348 C3.40758205,10.2042872 1.40943659,12.638492 5.74612821e-15,15.4137391 C4.66617391,21.8347826 20.451913,23.3146957 36.0516522,18.4786957 C44.3650435,15.9070435 49.3304348,12.470087 52.2417391,9.09782609 Z" id="Path"></path>
                </g>
                <g id="Group" opacity="0.15" style="mix-blend-mode: multiply;" transform="translate(10.513043, 88.147826)" fill="url(#radialGradient-4)" fill-rule="nonzero">
                    <path d="M0.266869565,13.4405217 C-0.0970434783,19.6027826 0.0242608696,24.1153043 2.40991304,27.8191304 C11.3621739,24.2770435 13.1413043,6.58278261 10.6666957,0.436695652 L0.266869565,13.4405217 Z" id="Path"></path>
                </g>
                <path d="M4.35078261,37.4426087 C-1.09173913,50.3817391 3.08921739,68.1730435 13.6912174,74.6830435 C32.0162609,85.8915652 57.9753913,78.2251304 69.3375652,63.1267826 C80.6997391,48.0284348 74.4,26.1936522 66.3130435,18.8021739 C59.2854783,12.3892174 43.7827826,7.77156522 26.1289565,16.0849565 C11.3217391,23.0478261 6.53426087,32.2507826 4.35078261,37.4426087 Z" id="Path" fill="#E8322E" fill-rule="nonzero"></path>
                <path d="M69.3375652,63.1267826 C78.2332174,51.3683478 76.3246957,35.5098261 71.238,25.5871304 C70.8336522,35.6392174 59.4229565,44.7855652 42.1249565,50.3898261 C29.565913,54.4333043 28.5065217,53.7863478 28.8461739,61.0888696 C29.1534783,67.8172174 28.6035652,74.5293913 27.2287826,79.5352174 C43.1196522,81.9936522 60.5713043,74.780087 69.3375652,63.1267826 Z" id="Path" fill="#31B8E3" fill-rule="nonzero"></path>
                <path d="M71.238,25.5871304 C70.8336522,35.6392174 59.4229565,44.7855652 42.1249565,50.3898261 C29.565913,54.4333043 28.5065217,53.7863478 28.8461739,61.0888696 C29.1534783,67.8172174 28.6035652,74.5293913 27.2287826,79.5352174 C30.4561346,80.0201455 33.728384,80.1341044 36.9816522,79.8748696 C38.7607826,73.2273913 38.4453913,63.231913 38.2836522,61.4285217 C38.121913,59.6251304 37.4749565,58.032 40.3053913,57.0130435 C65.9814783,47.8586087 72.6532174,35.1782609 72.9847826,29.4446087 C72.4791598,28.1254365 71.8958784,26.8373568 71.238,25.5871304 L71.238,25.5871304 Z" id="Path" fill="#109CD7" fill-rule="nonzero"></path>
                <ellipse id="Oval" fill="#E8322E" fill-rule="nonzero" transform="translate(7.372135, 59.352383) rotate(-16.650000) translate(-7.372135, -59.352383) " cx="7.3721351" cy="59.3523828" rx="3.4773913" ry="5.8226087"></ellipse>
                <path d="M5.99243478,52.266 C6.40916745,51.5535792 7.0699646,51.0163224 7.85243478,50.7537391 C10.3998261,49.9450435 13.5133043,52.7916522 14.8072174,57.0696522 C16.1011304,61.3476522 15.0821739,65.4477391 12.5347826,66.2321739 C11.7406237,66.4563305 10.8918388,66.3815223 10.1491304,66.021913 L7.3833913,64.7926957 C7.90722265,65.0363795 8.50082148,65.0851292 9.0573913,64.9301739 C10.8931304,64.356 11.6209565,61.4042609 10.6747826,58.3312174 C9.7286087,55.2581739 7.52086957,53.2121739 5.66086957,53.7782609 C5.10305027,53.9642169 4.63174874,54.346431 4.3346087,54.8538261 L5.99243478,52.266 Z" id="Path" fill="#F19386" fill-rule="nonzero"></path>
                <path d="M12.5347826,66.2321739 C11.7406237,66.4563305 10.8918388,66.3815223 10.1491304,66.021913 L7.3833913,64.7926957 C7.90722265,65.0363795 8.50082148,65.0851292 9.0573913,64.9301739 C10.0763478,64.6066957 10.7556522,63.5473043 10.9982609,62.1401739 L15.252,62.2776522 C14.9285217,64.2751304 13.9823478,65.7873913 12.5347826,66.2321739 Z" id="Path" fill="#B62621" fill-rule="nonzero"></path>
                <path d="M66.3130435,18.8021739 C59.2854783,12.3892174 43.7827826,7.77156522 26.1289565,16.0849565 C21.7296085,18.0999823 17.644034,20.7392634 13.9985217,23.9212174 C28.3043478,13.028087 57.5710435,7.59365217 71.238,25.5871304 L71.238,25.5871304 C70.0052442,23.0551818 68.3383899,20.7588095 66.3130435,18.8021739 L66.3130435,18.8021739 Z" id="Path" fill="#F19386" fill-rule="nonzero"></path>
                <ellipse id="Oval" fill="#E8322E" fill-rule="nonzero" cx="23.7352174" cy="3.18626087" rx="3.15391304" ry="3.18626087"></ellipse>
                <path d="M27.342,9.76095652 C27.342,9.76095652 23.3955652,5.47486957 23.3713043,5.48295652 L26.403913,4.91686957 L32.7117391,11.6694783 L27.4956522,12.4215652 L31.062,16.6753043 L28.0051304,17.1362609 L22.4413043,10.4645217 L27.342,9.76095652 Z" id="Path" fill="#E8322E" fill-rule="nonzero"></path>
                <g id="Group" opacity="0.1" style="mix-blend-mode: multiply;" transform="translate(26.686957, 25.069565)" fill="url(#radialGradient-5)" fill-rule="nonzero">
                    <path d="M42.6506087,38.0572174 C51.5462609,26.2987826 49.6377391,10.4402609 44.5510435,0.517565217 C44.1466957,10.5696522 32.736,19.716 15.438,25.3202609 C2.87895652,29.3637391 1.81956522,28.7167826 2.15921739,36.0193043 C2.46652174,42.7476522 1.9166087,49.4598261 0.541826087,54.4656522 C16.4326957,56.924087 33.8843478,49.7105217 42.6506087,38.0572174 Z" id="Path"></path>
                </g>
                <path d="M41.9389565,50.4464348 C43.4593043,61.6145217 43.2409565,71.7717391 41.2677391,79.3411304 C43.2015473,79.0058418 45.1135025,78.5548581 46.9933043,77.9906087 C48.6611998,68.2846105 48.6611998,58.3652156 46.9933043,48.6592174 C45.4352174,49.2738261 43.8178261,49.8506957 42.1411304,50.3898261 L41.9389565,50.4464348 Z" id="Path" fill="#FFFFFF" fill-rule="nonzero"></path>
                <path d="M25.482,117.826957 C20.4195652,117.826957 13.4647826,114.462783 11.16,111.70513 C6.30782609,105.947217 8.08695652,97.100087 14.3947826,90.0886957 C15.6806087,88.6492174 16.0121739,88.6087826 17.4597391,89.9107826 C18.9073043,91.2127826 18.4786957,92.1670435 17.1928696,93.6065217 C12.8744348,98.4586957 15.1226087,104.709913 17.2333043,107.233043 C19.6593913,110.160522 26.2826087,111.171391 36.836087,104.378348 C37.6196978,103.865975 38.5771315,103.692069 39.4908752,103.896138 C40.4046189,104.100208 41.1970931,104.664927 41.6882609,105.462 C42.7233913,107.079391 46.4110435,109.683391 44.7855652,110.726609 C37.7822609,115.182522 30.2209565,117.826957 25.482,117.826957 Z" id="Path" fill="url(#radialGradient-6)" fill-rule="nonzero" opacity="0.15" style="mix-blend-mode: multiply;"></path>
                <path d="M37.6124348,104.806957 C14.8395652,119.444348 4.67426087,102.429391 15.8746957,89.9107826" id="Path" stroke="#E8322E" stroke-width="6.928" stroke-linecap="round" stroke-linejoin="round"></path>
                <path d="M36.7147826,102.275739 C26.2017391,109.068783 17.8317391,108.745304 15.3733043,105.842087 C13.4890435,103.569652 13.392,99.2350435 16.5135652,94.8923478 C14.1683478,98.8387826 14.4028696,102.615391 16.1334783,104.701826 C18.5595652,107.621217 26.3553913,107.936609 36.9169565,101.119304 L36.7147826,102.275739 Z" id="Path" fill="#F19386" fill-rule="nonzero"></path>
                <path d="M55.2581739,116.953565 C56.3635073,116.498051 57.3834793,115.858176 58.2746087,115.061217 C59.503547,114.039588 60.4455334,112.71579 61.008,111.219913 C61.1261632,110.986165 61.1465318,110.715024 61.0646169,110.466245 C60.982702,110.217467 60.8052271,110.01147 60.5713043,109.893652 C59.9728696,109.562087 58.5091304,108.826174 57.7166087,108.405652 C57.3853709,108.179371 56.9818623,108.084258 56.5844348,108.138783 L53.6650435,109.173913 C54.0634877,109.121737 54.467087,109.219754 54.7972174,109.44887 C55.605913,109.869391 57.0534783,110.597217 57.66,110.928783 C58.1435326,111.177255 58.3380137,111.767901 58.0966957,112.255043 C57.5329115,113.750219 56.591148,115.073703 55.3633043,116.096348 C54.5770539,116.801017 53.6880817,117.381849 52.7269565,117.81887 L55.2581739,116.953565 Z" id="Path" fill="#A71821" fill-rule="nonzero"></path>
                <path d="M51.344087,112.028609 C50.5111348,112.057805 49.6822004,111.900307 48.918,111.567652 C47.5851409,110.974019 46.4590901,109.99717 45.6832174,108.761478 C43.6857391,105.696522 43.7585217,101.483217 45.8449565,98.9924348 C46.1281439,98.6533556 46.4482023,98.346859 46.7992174,98.0786087 C45.2889894,98.1438436 43.8802192,98.8570703 42.9336522,100.035652 C40.8391304,102.534522 40.7744348,106.739739 42.7638261,109.804696 C43.5381903,111.041679 44.6646839,112.018912 45.9986087,112.61087 C47.7511981,113.419071 49.8066019,113.195184 51.344087,112.028609 L51.344087,112.028609 Z" id="Path" fill="#A71821" fill-rule="nonzero"></path>
                <path d="M61.2425217,102.356609 C60.775008,100.175664 59.8487575,98.1191671 58.5253043,96.3237391 C55.4603478,92.1913043 50.9478261,90.573913 46.9933043,91.6737391 L44.0496522,92.7654783 C47.988,91.6333043 52.5166957,93.2749565 55.5816522,97.4073913 C56.9037933,99.2065855 57.8298546,101.265418 58.2988696,103.448348 C58.4070235,103.850618 58.2674661,104.278805 57.9430435,104.540087 L60.5308696,103.585826 C60.7960858,103.53023 61.0251585,103.364498 61.1609296,103.129984 C61.2967008,102.895471 61.3263655,102.614292 61.2425217,102.356609 Z" id="Path" fill="#A71821" fill-rule="nonzero"></path>
                <path d="M57.9430435,104.540087 L57.5872174,104.669478 C57.7154211,104.659672 57.8384863,104.614921 57.9430435,104.540087 L57.9430435,104.540087 Z" id="Path" fill="#A71821" fill-rule="nonzero"></path>
                <path d="M55.3633043,116.104435 C56.591148,115.08179 57.5329115,113.758306 58.0966957,112.26313 C58.3380137,111.775988 58.1435326,111.185342 57.66,110.93687 C57.0534783,110.605304 55.5978261,109.877478 54.7972174,109.456957 C54.467087,109.227841 54.0634877,109.129824 53.6650435,109.182 C53.444076,109.263925 53.2698378,109.438163 53.187913,109.65913 C52.8563285,110.30674 52.4520718,110.914482 51.9829565,111.470609 C50.4380472,113.086586 48.0380657,113.544498 46.0066957,112.61087 C44.6727708,112.018912 43.5462773,111.041679 42.771913,109.804696 C40.7825217,106.739739 40.8472174,102.526435 42.9417391,100.035652 C45.3678261,97.0758261 49.6458261,97.5367826 52.1608696,100.91713 C52.853797,101.862657 53.3564141,102.933808 53.6407826,104.071043 C53.7226173,104.563571 54.1443637,104.927498 54.6435652,104.936348 L57.5872174,104.669478 C57.851851,104.615898 58.080988,104.451813 58.2169387,104.218534 C58.3528895,103.985255 58.3827017,103.705007 58.2988696,103.448348 C57.8298546,101.265418 56.9037933,99.2065855 55.5816522,97.4073913 C52.5166957,93.2749565 47.988,91.6333043 44.0496522,92.7654783 C42.3280575,93.2821491 40.7921052,94.2845897 39.626087,95.6525217 C35.7362609,100.084174 35.5826087,107.782957 39.3349565,113.249739 C40.6745881,115.289893 42.5681841,116.905762 44.7936522,117.907826 C46.6989626,118.753715 48.8274294,118.958048 50.8588696,118.490087 C52.5333117,118.076411 54.0802558,117.257114 55.3633043,116.104435 Z" id="Path" fill="#E8322E" fill-rule="nonzero"></path>
                <polygon id="Path" fill="#C5A180" points="90.5011304 166.599391 104.661391 158.350696 104.661391 102.817565 90.5011304 111.074348"></polygon>
                <polygon id="Path" fill="#E2CFBA" points="81.6135652 129.844174 48.1578261 110.249478 103.70713 78.5081739 137.170957 98.1028696"></polygon>
                <polygon id="Path" fill="#805F57" points="81.7429565 136.095391 48.1578261 116.977826 48.1578261 110.298 81.6135652 129.844174"></polygon>
                <polygon id="Path" fill="#B08871" points="81.7429565 136.095391 81.6135652 129.844174 137.170957 98.1028696 137.170957 103.610087"></polygon>
                <path d="M93.0566087,83.2956522 L53.4952174,105.979565 C53.0981427,106.205208 52.8528519,106.626726 52.8528519,107.083435 C52.8528519,107.540143 53.0981427,107.961662 53.4952174,108.187304 L77.1010435,120.891913 L118.344522,97.3507826 L93.0566087,83.2956522 Z" id="Path" fill="#898A8F" fill-rule="nonzero"></path>
                <g id="keyboard" transform="translate(60.652174, 88.147826)" fill-rule="nonzero">
                    <path d="M15.8585217,29.6225217 C16.1617108,29.7727708 16.5176805,29.7727708 16.8208696,29.6225217 L51.5058261,9.10591304 C51.7565217,8.95226087 51.7403478,8.70965217 51.4653913,8.56408696 L36.5530435,0.590347826 C36.2487402,0.444934163 35.8949989,0.444934163 35.5906957,0.590347826 L0.90573913,21.1150435 C0.655043478,21.2606087 0.679304348,21.5032174 0.95426087,21.6568696 L15.8585217,29.6225217 Z" id="Path" fill="#6A6B6F"></path>
                    <path d="M45.6993913,8.66113043 C45.6266087,8.66113043 45.6185217,8.56408696 45.6993913,8.53173913 L47.4138261,7.51278261 C47.4905962,7.47636733 47.5796646,7.47636733 47.6564348,7.51278261 L49.653913,8.58026087 C49.7266957,8.58026087 49.7347826,8.6853913 49.653913,8.71773913 L47.9475652,9.70434783 C47.8717054,9.74460375 47.7808164,9.74460375 47.7049565,9.70434783 L45.6993913,8.66113043 Z" id="Path" fill="#DADADA"></path>
                    <path d="M39.3915652,9.29191304 C39.3187826,9.29191304 39.3026087,9.18678261 39.3915652,9.15443478 L41.106,8.14356522 C41.1818598,8.1033093 41.2727489,8.1033093 41.3486087,8.14356522 L43.3541739,9.21913043 C43.4269565,9.21913043 43.4350435,9.31617391 43.3541739,9.34852174 L41.6397391,10.3674783 C41.562969,10.4038935 41.4739006,10.4038935 41.3971304,10.3674783 L39.3915652,9.29191304 Z" id="Path" fill="#DADADA"></path>
                    <path d="M36.0678261,8.14356522 C35.9950435,8.14356522 35.9869565,8.04652174 36.0678261,8.00608696 L37.7822609,6.99521739 C37.8598957,6.96286957 37.9472348,6.96286957 38.0248696,6.99521739 L40.0304348,8.07078261 C40.0951304,8.07078261 40.1032174,8.16782609 40.0304348,8.20826087 L38.316,9.21913043 C38.2392299,9.25554571 38.1501615,9.25554571 38.0733913,9.21913043 L36.0678261,8.14356522 Z" id="Path" fill="#DADADA"></path>
                    <path d="M34.4666087,5.98434783 C34.3938261,5.94391304 34.3857391,5.88730435 34.4666087,5.84686957 L36.1810435,4.836 C36.2586783,4.80365217 36.3460174,4.80365217 36.4236522,4.836 L38.4292174,5.91156522 C38.502,5.91156522 38.510087,6.0086087 38.4292174,6.04904348 L36.7147826,7.05991304 C36.6380125,7.09632832 36.5489441,7.09632832 36.4721739,7.05991304 L34.4666087,5.98434783 Z" id="Path" fill="#DADADA"></path>
                    <path d="M34.3129565,2.57165217 C34.2401739,2.57165217 34.232087,2.4746087 34.3129565,2.44226087 L36.0273913,1.42330435 C36.1041615,1.38688907 36.1932299,1.38688907 36.27,1.42330435 L38.6233043,2.67678261 C38.696087,2.71721739 38.7041739,2.78191304 38.6233043,2.81426087 L36.9088696,3.82513043 C36.8330097,3.86538635 36.7421207,3.86538635 36.6662609,3.82513043 L34.3129565,2.57165217 Z" id="Path" fill="#DADADA"></path>
                    <path d="M31.9596522,3.97069565 C31.8868696,3.97069565 31.8787826,3.86556522 31.9596522,3.83321739 L33.666,2.81426087 C33.7427701,2.77784559 33.8318385,2.77784559 33.9086087,2.81426087 L36.261913,4.06773913 C36.3346957,4.06773913 36.3427826,4.17286957 36.261913,4.20521739 L34.5474783,5.22417391 C34.4707081,5.26058919 34.3816397,5.26058919 34.3048696,5.22417391 L31.9596522,3.97069565 Z" id="Path" fill="#DADADA"></path>
                    <path d="M29.6063478,5.36165217 C29.5335652,5.36165217 29.5254783,5.25652174 29.6063478,5.22417391 L31.3126957,4.21330435 C31.3885555,4.17304843 31.4794445,4.17304843 31.5553043,4.21330435 L33.9086087,5.47486957 C33.9813913,5.47486957 33.9894783,5.57191304 33.9086087,5.60426087 L32.1941739,6.62321739 C32.1174038,6.65963267 32.0283354,6.65963267 31.9515652,6.62321739 L29.6063478,5.36165217 Z" id="Path" fill="#DADADA"></path>
                    <path d="M9.50217391,17.2494783 C9.4293913,17.2090435 9.42130435,17.1524348 9.50217391,17.112 L11.2166087,16.1011304 C11.2942435,16.0687826 11.3815826,16.0687826 11.4592174,16.1011304 L13.8125217,17.3626957 C13.8853043,17.4031304 13.8933913,17.4597391 13.8125217,17.5001739 L12.1304348,18.5110435 C12.0545749,18.5512994 11.9636859,18.5512994 11.8878261,18.5110435 L9.50217391,17.2494783 Z" id="Path" fill="#DADADA"></path>
                    <path d="M7.14886957,18.6485217 C7.07608696,18.608087 7.068,18.5433913 7.14886957,18.5110435 L8.86330435,17.5001739 C8.93916418,17.459918 9.03005321,17.459918 9.10591304,17.5001739 L10.1572174,18.0581739 C10.221913,18.0581739 10.23,18.1633043 10.1572174,18.1956522 L8.44278261,19.2065217 C8.36692277,19.2467777 8.27603375,19.2467777 8.20017391,19.2065217 L7.14886957,18.6485217 Z" id="Path" fill="#DADADA"></path>
                    <path d="M2.42608696,21.4385217 C2.35330435,21.4385217 2.34521739,21.3414783 2.42608696,21.3010435 L4.14052174,20.2901739 C4.21729189,20.2537586 4.30636029,20.2537586 4.38313043,20.2901739 L5.42634783,20.8562609 C5.49913043,20.8562609 5.50721739,20.9533043 5.42634783,20.9856522 L3.71191304,22.0046087 C3.6351429,22.041024 3.5460745,22.041024 3.46930435,22.0046087 L2.42608696,21.4385217 Z" id="Path" fill="#DADADA"></path>
                    <path d="M26.6384348,7.11652174 C26.5656522,7.11652174 26.5575652,7.01947826 26.6384348,6.97904348 L28.9674783,5.60426087 C29.0433381,5.56400495 29.1342271,5.56400495 29.210087,5.60426087 L31.5633913,6.86582609 C31.6361739,6.86582609 31.6442609,6.96286957 31.5633913,7.00330435 L29.2343478,8.37808696 C29.1575777,8.41450223 29.0685093,8.41450223 28.9917391,8.37808696 L26.6384348,7.11652174 Z" id="Path" fill="#DADADA"></path>
                    <path d="M11.8635652,15.8585217 C11.7907826,15.818087 11.7826957,15.7533913 11.8635652,15.7210435 L14.1926087,14.3381739 C14.2693788,14.3017586 14.3584472,14.3017586 14.4352174,14.3381739 L16.7885217,15.5916522 C16.8532174,15.632087 16.8693913,15.6967826 16.7885217,15.7291304 L14.4594783,17.112 C14.3827081,17.1484153 14.2936397,17.1484153 14.2168696,17.112 L11.8635652,15.8585217 Z" id="Path" fill="#DADADA"></path>
                    <path d="M14.8395652,14.0955652 C14.7667826,14.0551304 14.7586957,13.9985217 14.8395652,13.958087 L25.9914783,7.35913043 C26.0682484,7.32271516 26.1573168,7.32271516 26.234087,7.35913043 L28.5873913,8.6126087 C28.652087,8.6126087 28.6601739,8.71773913 28.5873913,8.75008696 L17.4354783,15.3652174 C17.3587081,15.4016327 17.2696397,15.4016327 17.1928696,15.3652174 L14.8395652,14.0955652 Z" id="Path" fill="#DADADA"></path>
                    <path d="M32.1052174,7.3833913 C32.0324348,7.3833913 32.0243478,7.27826087 32.1052174,7.24591304 L33.8196522,6.23504348 C33.895512,6.19478756 33.986401,6.19478756 34.0622609,6.23504348 L36.0597391,7.3106087 C36.1325217,7.3106087 36.1406087,7.40765217 36.0597391,7.44 L34.3453043,8.45895652 C34.2685342,8.4953718 34.1794658,8.4953718 34.1026957,8.45895652 L32.1052174,7.3833913 Z" id="Path" fill="#DADADA"></path>
                    <path d="M29.7438261,8.77434783 C29.6710435,8.77434783 29.6629565,8.67730435 29.7438261,8.64495652 L31.4582609,7.626 C31.535031,7.58958472 31.6240994,7.58958472 31.7008696,7.626 L33.7064348,8.69347826 C33.7792174,8.69347826 33.7873043,8.7986087 33.7064348,8.83095652 L31.992,9.84182609 C31.9161402,9.88208201 31.8252511,9.88208201 31.7493913,9.84182609 L29.7438261,8.77434783 Z" id="Path" fill="#DADADA"></path>
                    <path d="M27.3824348,10.1733913 C27.3177391,10.1733913 27.3015652,10.0763478 27.3824348,10.035913 L29.0968696,9.02504348 C29.1727294,8.98478756 29.2636184,8.98478756 29.3394783,9.02504348 L31.3450435,10.1006087 C31.4178261,10.1410435 31.425913,10.1976522 31.3450435,10.238087 L29.6306087,11.2489565 C29.5538385,11.2853718 29.4647701,11.2853718 29.388,11.2489565 L27.3824348,10.1733913 Z" id="Path" fill="#DADADA"></path>
                    <path d="M25.0695652,11.5724348 C24.9967826,11.5724348 24.9886957,11.4673043 25.0695652,11.4349565 L26.784,10.416 C26.8607701,10.3795847 26.9498385,10.3795847 27.0266087,10.416 L29.0321739,11.4834783 C29.1049565,11.523913 29.1130435,11.5886087 29.0321739,11.6209565 L27.3258261,12.639913 C27.2490559,12.6763283 27.1599875,12.6763283 27.0832174,12.639913 L25.0695652,11.5724348 Z" id="Path" fill="#DADADA"></path>
                    <path d="M22.6434783,12.9391304 C22.5706957,12.9391304 22.5626087,12.842087 22.6434783,12.8016522 L24.3498261,11.7907826 C24.4265962,11.7543673 24.5156646,11.7543673 24.5924348,11.7907826 L26.598,12.8582609 C26.6707826,12.8582609 26.6788696,12.9553043 26.598,12.9957391 L24.8835652,14.0066087 C24.8077054,14.0468646 24.7168164,14.0468646 24.6409565,14.0066087 L22.6434783,12.9391304 Z" id="Path" fill="#DADADA"></path>
                    <path d="M20.3063478,14.3624348 C20.2335652,14.322 20.2254783,14.2653913 20.3063478,14.2249565 L22.0207826,13.214087 C22.0966424,13.173831 22.1875315,13.173831 22.2633913,13.214087 L24.2689565,14.2896522 C24.3336522,14.2896522 24.3498261,14.3866957 24.2689565,14.4271304 L22.5545217,15.438 C22.4777516,15.4744153 22.3886832,15.4744153 22.311913,15.438 L20.3063478,14.3624348 Z" id="Path" fill="#DADADA"></path>
                    <path d="M17.9449565,15.7614783 C17.8721739,15.7210435 17.864087,15.6563478 17.9449565,15.624 L19.6593913,14.6050435 C19.7361615,14.5686282 19.8252299,14.5686282 19.902,14.6050435 L21.9075652,15.6725217 C21.9803478,15.7129565 21.9884348,15.7776522 21.9075652,15.81 L20.2173913,16.8370435 C20.1406212,16.8734588 20.0515528,16.8734588 19.9747826,16.8370435 L17.9449565,15.7614783 Z" id="Path" fill="#DADADA"></path>
                    <path d="M15.5916522,17.1524348 C15.5188696,17.112 15.5107826,17.0553913 15.5916522,17.0149565 L17.306087,16.004087 C17.3837217,15.9717391 17.4710609,15.9717391 17.5486957,16.004087 L19.5542609,17.0796522 C19.6270435,17.0796522 19.6351304,17.1766957 19.5542609,17.2171304 L17.8398261,18.228 C17.7630559,18.2644153 17.6739875,18.2644153 17.5972174,18.228 L15.5916522,17.1524348 Z" id="Path" fill="#DADADA"></path>
                    <path d="M13.2302609,18.5514783 C13.1574783,18.5110435 13.1493913,18.4463478 13.2302609,18.414 L14.9446957,17.4031304 C15.0205555,17.3628745 15.1114445,17.3628745 15.1873043,17.4031304 L17.1928696,18.4786957 C17.2656522,18.4786957 17.2737391,18.5757391 17.1928696,18.608087 L15.4784348,19.6270435 C15.4016646,19.6634588 15.3125962,19.6634588 15.2358261,19.6270435 L13.2302609,18.5514783 Z" id="Path" fill="#DADADA"></path>
                    <path d="M10.8688696,19.9424348 C10.796087,19.9424348 10.788,19.8453913 10.8688696,19.8130435 L12.5833043,18.794087 C12.6600745,18.7576717 12.7491429,18.7576717 12.825913,18.794087 L14.8233913,19.8615652 C14.8961739,19.902 14.9042609,19.9666957 14.8233913,19.9990435 L13.1170435,21.026087 C13.0411836,21.0663429 12.9502946,21.0663429 12.8744348,21.026087 L10.8688696,19.9424348 Z" id="Path" fill="#DADADA"></path>
                    <path d="M5.55573913,23.0882609 C5.48295652,23.0478261 5.47486957,22.9912174 5.55573913,22.9507826 L10.2057391,20.2173913 C10.2825093,20.180976 10.3715777,20.180976 10.4483478,20.2173913 L12.453913,21.2929565 C12.5266957,21.2929565 12.5347826,21.39 12.453913,21.4304348 L7.78773913,24.188087 C7.7118793,24.2283429 7.62099027,24.2283429 7.54513043,24.188087 L5.55573913,23.0882609 Z" id="Path" fill="#DADADA"></path>
                    <path d="M33.7145217,9.5426087 C33.6336522,9.5426087 33.6255652,9.44556522 33.7145217,9.40513043 L35.4289565,8.39426087 C35.5048164,8.35400495 35.5957054,8.35400495 35.6715652,8.39426087 L37.6771304,9.46982609 C37.749913,9.46982609 37.758,9.56686957 37.6771304,9.59921739 L35.9626957,10.6181739 C35.8859255,10.6545892 35.7968571,10.6545892 35.720087,10.6181739 L33.7145217,9.5426087 Z" id="Path" fill="#DADADA"></path>
                    <path d="M31.3531304,10.9335652 C31.2803478,10.9335652 31.2722609,10.8365217 31.3531304,10.8041739 L33.0675652,9.78521739 C33.1443354,9.74880211 33.2334038,9.74880211 33.3101739,9.78521739 L35.3157391,10.8526957 C35.3885217,10.8526957 35.3966087,10.9497391 35.3157391,10.9901739 L33.6013043,12.0010435 C33.5283226,12.0413371 33.4397643,12.0413371 33.3667826,12.0010435 L31.3531304,10.9335652 Z" id="Path" fill="#DADADA"></path>
                    <path d="M28.9917391,12.3326087 C28.9189565,12.3326087 28.9108696,12.2355652 28.9917391,12.1951304 L30.698087,11.1842609 C30.7739468,11.1440049 30.8648358,11.1440049 30.9406957,11.1842609 L32.9462609,12.2598261 C33.0190435,12.2598261 33.0271304,12.3568696 32.9462609,12.3973043 L31.2318261,13.4081739 C31.1550559,13.4445892 31.0659875,13.4445892 30.9892174,13.4081739 L28.9917391,12.3326087 Z" id="Path" fill="#DADADA"></path>
                    <path d="M26.6303478,13.7478261 C26.5575652,13.7478261 26.5494783,13.6426957 26.6303478,13.6103478 L28.3447826,12.5913913 C28.4215528,12.554976 28.5106212,12.554976 28.5873913,12.5913913 L30.5929565,13.6588696 C30.6576522,13.6993043 30.6657391,13.764 30.5929565,13.7963478 L28.8785217,14.8153043 C28.8017516,14.8517196 28.7126832,14.8517196 28.635913,14.8153043 L26.6303478,13.7478261 Z" id="Path" fill="#DADADA"></path>
                    <path d="M24.2608696,15.1226087 C24.188087,15.1226087 24.18,15.0255652 24.2608696,14.9851304 L25.9753043,13.9742609 C26.0520745,13.9378456 26.1411429,13.9378456 26.217913,13.9742609 L28.2234783,15.0417391 C28.2962609,15.0417391 28.3043478,15.1387826 28.2234783,15.1792174 L26.5171304,16.173913 C26.4403603,16.2103283 26.3512919,16.2103283 26.2745217,16.173913 L24.2608696,15.1226087 Z" id="Path" fill="#DADADA"></path>
                    <path d="M21.9156522,16.5216522 C21.8347826,16.4812174 21.8347826,16.4246087 21.9156522,16.3841739 L23.630087,15.3733043 C23.7059468,15.3330484 23.7968358,15.3330484 23.8726957,15.3733043 L25.8782609,16.4488696 C25.9510435,16.4488696 25.9591304,16.545913 25.8782609,16.5863478 L24.1638261,17.5972174 C24.0870559,17.6336327 23.9979875,17.6336327 23.9212174,17.5972174 L21.9156522,16.5216522 Z" id="Path" fill="#DADADA"></path>
                    <path d="M19.5542609,17.9126087 C19.4814783,17.9126087 19.4733913,17.8155652 19.5542609,17.7832174 L21.2686957,16.7642609 C21.3454658,16.7278456 21.4345342,16.7278456 21.5113043,16.7642609 L23.5168696,17.8317391 C23.5896522,17.8721739 23.5977391,17.9368696 23.5168696,17.9692174 L21.8347826,18.9881739 C21.7589228,19.0284298 21.6680337,19.0284298 21.5921739,18.9881739 L19.5542609,17.9126087 Z" id="Path" fill="#DADADA"></path>
                    <path d="M17.1928696,19.3116522 C17.120087,19.3116522 17.112,19.2146087 17.1928696,19.1741739 L18.9073043,18.1633043 C18.9812899,18.1271149 19.0678405,18.1271149 19.1418261,18.1633043 L21.1473913,19.2388696 C21.2201739,19.2793043 21.2282609,19.335913 21.1473913,19.3763478 L19.4086957,20.3872174 C19.3319255,20.4236327 19.2428571,20.4236327 19.166087,20.3872174 L17.1928696,19.3116522 Z" id="Path" fill="#DADADA"></path>
                    <path d="M14.8314783,20.7106957 C14.7586957,20.6702609 14.7506087,20.6055652 14.8314783,20.5732174 L16.545913,19.5623478 C16.6217729,19.5220919 16.7126619,19.5220919 16.7885217,19.5623478 L18.794087,20.637913 C18.8587826,20.637913 18.8749565,20.7349565 18.794087,20.7673043 L17.0796522,21.7862609 C17.002882,21.8226761 16.9138136,21.8226761 16.8370435,21.7862609 L14.8314783,20.7106957 Z" id="Path" fill="#DADADA"></path>
                    <path d="M12.470087,22.1016522 C12.3973043,22.1016522 12.3973043,22.0046087 12.470087,21.9722609 L14.1845217,20.9533043 C14.2612919,20.9168891 14.3503603,20.9168891 14.4271304,20.9533043 L16.4326957,22.0207826 C16.5054783,22.0207826 16.5135652,22.1178261 16.4326957,22.1582609 L14.7182609,23.1691304 C14.642401,23.2093864 14.551512,23.2093864 14.4756522,23.1691304 L12.470087,22.1016522 Z" id="Path" fill="#DADADA"></path>
                    <path d="M10.1167826,23.5006957 C10.044,23.4602609 10.035913,23.4036522 10.1167826,23.3632174 L11.8312174,22.3523478 C11.9070772,22.3120919 11.9979663,22.3120919 12.0738261,22.3523478 L14.0551304,23.4521739 C14.127913,23.4926087 14.136,23.5492174 14.0551304,23.5896522 L12.3406957,24.6005217 C12.2657785,24.6324338 12.1810911,24.6324338 12.1061739,24.6005217 L10.1167826,23.5006957 Z" id="Path" fill="#DADADA"></path>
                    <path d="M37.0301739,10.6828696 C36.9573913,10.6828696 36.9493043,10.5858261 37.0301739,10.5453913 L38.7446087,9.53452174 C38.8241456,9.49782717 38.9157674,9.49782717 38.9953043,9.53452174 L40.9927826,10.602 C41.0655652,10.602 41.0736522,10.7071304 40.9927826,10.7394783 L39.2783478,11.7503478 C39.202488,11.7906037 39.111599,11.7906037 39.0357391,11.7503478 L37.0301739,10.6828696 Z" id="Path" fill="#DADADA"></path>
                    <path d="M34.6687826,12.081913 C34.596,12.081913 34.587913,11.9848696 34.6687826,11.9444348 L36.3832174,10.9335652 C36.4590772,10.8933093 36.5499663,10.8933093 36.6258261,10.9335652 L38.6313913,12.0091304 C38.696087,12.0495652 38.7041739,12.1061739 38.6313913,12.1466087 L36.9169565,13.1574783 C36.8393217,13.1898261 36.7519826,13.1898261 36.6743478,13.1574783 L34.6687826,12.081913 Z" id="Path" fill="#DADADA"></path>
                    <path d="M32.3478261,13.4809565 C32.2750435,13.4809565 32.2669565,13.3758261 32.3478261,13.3434783 L34.0622609,12.3245217 C34.139031,12.2881065 34.2280994,12.2881065 34.3048696,12.3245217 L36.3104348,13.392 C36.3751304,13.4324348 36.3913043,13.4971304 36.3104348,13.5294783 L34.5555652,14.5565217 C34.4787951,14.592937 34.3897267,14.592937 34.3129565,14.5565217 L32.3478261,13.4809565 Z" id="Path" fill="#DADADA"></path>
                    <path d="M29.9217391,14.871913 C29.8489565,14.871913 29.8408696,14.7748696 29.9217391,14.7344348 L31.6361739,13.7235652 C31.7120337,13.6833093 31.8029228,13.6833093 31.8787826,13.7235652 L33.8843478,14.7910435 C33.9571304,14.7910435 33.9652174,14.888087 33.8843478,14.9285217 L32.169913,15.9393913 C32.0931429,15.9758066 32.0040745,15.9758066 31.9273043,15.9393913 L29.9217391,14.871913 Z" id="Path" fill="#DADADA"></path>
                    <path d="M27.5926957,16.2709565 C27.519913,16.2305217 27.5118261,16.1658261 27.5926957,16.1334783 L29.3071304,15.1226087 C29.3829903,15.0823528 29.4738793,15.0823528 29.5497391,15.1226087 L31.5391304,16.173913 C31.611913,16.173913 31.62,16.2709565 31.5391304,16.3033043 L29.8246957,17.3222609 C29.7479255,17.3586761 29.6588571,17.3586761 29.582087,17.3222609 L27.5926957,16.2709565 Z" id="Path" fill="#DADADA"></path>
                    <path d="M25.2313043,17.661913 C25.1585217,17.661913 25.1504348,17.5648696 25.2313043,17.5325217 L26.9457391,16.5135652 C27.0252761,16.4768707 27.1168978,16.4768707 27.1964348,16.5135652 L29.193913,17.5810435 C29.2666957,17.6214783 29.2747826,17.6861739 29.193913,17.7185217 L27.4956522,18.7455652 C27.418882,18.7819805 27.3298136,18.7819805 27.2530435,18.7455652 L25.2313043,17.661913 Z" id="Path" fill="#DADADA"></path>
                    <path d="M22.869913,19.0609565 C22.7971304,19.0609565 22.7890435,18.963913 22.869913,18.9234783 L24.5843478,17.9126087 C24.661118,17.8761934 24.7501864,17.8761934 24.8269565,17.9126087 L26.8325217,18.9881739 C26.8972174,19.0286087 26.9053043,19.0852174 26.8325217,19.1256522 L25.118087,20.1365217 C25.0413168,20.172937 24.9522484,20.172937 24.8754783,20.1365217 L22.869913,19.0609565 Z" id="Path" fill="#DADADA"></path>
                    <path d="M20.5085217,20.46 C20.4357391,20.4195652 20.4276522,20.3548696 20.5085217,20.3225217 L22.2229565,19.3035652 C22.2997267,19.2671499 22.3887951,19.2671499 22.4655652,19.3035652 L24.4711304,20.3791304 C24.543913,20.3791304 24.552,20.4761739 24.4711304,20.5085217 L22.7566957,21.5274783 C22.6799255,21.5638935 22.5908571,21.5638935 22.514087,21.5274783 L20.5085217,20.46 Z" id="Path" fill="#DADADA"></path>
                    <path d="M18.1552174,21.8347826 C18.0824348,21.8347826 18.0743478,21.7377391 18.1552174,21.6973043 L19.8696522,20.6864348 C19.9464223,20.6500195 20.0354907,20.6500195 20.1122609,20.6864348 L22.1178261,21.753913 C22.1906087,21.753913 22.1986957,21.8509565 22.1178261,21.8913913 L20.4033913,22.9022609 C20.3304096,22.9425545 20.2418513,22.9425545 20.1688696,22.9022609 L18.1552174,21.8347826 Z" id="Path" fill="#DADADA"></path>
                    <path d="M15.7938261,23.25 C15.7210435,23.2095652 15.7129565,23.1529565 15.7938261,23.1125217 L17.5082609,22.1016522 C17.5841207,22.0613963 17.6750097,22.0613963 17.7508696,22.1016522 L19.7564348,23.1772174 C19.8292174,23.2176522 19.8373043,23.2742609 19.7564348,23.3146957 L18.042,24.3255652 C17.9643652,24.357913 17.8770261,24.357913 17.7993913,24.3255652 L15.7938261,23.25 Z" id="Path" fill="#DADADA"></path>
                    <path d="M13.4324348,24.6490435 C13.3596522,24.6490435 13.3515652,24.543913 13.4324348,24.5115652 L15.1387826,23.4926087 C15.2183196,23.4559141 15.3099413,23.4559141 15.3894783,23.4926087 L17.3950435,24.560087 C17.4597391,24.6005217 17.4678261,24.6652174 17.3950435,24.6975652 L15.6806087,25.7165217 C15.6038385,25.752937 15.5147701,25.752937 15.438,25.7165217 L13.4324348,24.6490435 Z" id="Path" fill="#DADADA"></path>
                    <path d="M41.7448696,7.89286957 C41.672087,7.85243478 41.664,7.79582609 41.7448696,7.7553913 L44.648087,6.04095652 C44.7239468,6.0007006 44.8148358,6.0007006 44.8906957,6.04095652 L46.9043478,7.11652174 C46.9771304,7.11652174 46.9852174,7.21356522 46.9043478,7.254 L44.0011304,8.96843478 C43.9243603,9.00485006 43.8352919,9.00485006 43.7585217,8.96843478 L41.7448696,7.89286957 Z" id="Path" fill="#DADADA"></path>
                    <path d="M13.8367826,27.4956522 C13.764,27.4552174 13.755913,27.3905217 13.8367826,27.3581739 L16.748087,25.6356522 C16.8248571,25.5992369 16.9139255,25.5992369 16.9906957,25.6356522 L18.9881739,26.7031304 C19.0609565,26.7435652 19.0690435,26.8082609 18.9881739,26.8406087 L16.0768696,28.5631304 C16.0000994,28.5995457 15.911031,28.5995457 15.8342609,28.5631304 L13.8367826,27.4956522 Z" id="Path" fill="#DADADA"></path>
                    <path d="M38.4292174,6.74452174 C38.3564348,6.74452174 38.3483478,6.64747826 38.4292174,6.61513043 L41.8904348,4.56104348 C41.9672049,4.5246282 42.0562733,4.5246282 42.1330435,4.56104348 L44.1386087,5.62852174 C44.2113913,5.62852174 44.2194783,5.72556522 44.1386087,5.766 L40.6773913,7.812 C40.6015315,7.85225592 40.5106424,7.85225592 40.4347826,7.812 L38.4292174,6.74452174 Z" id="Path" fill="#DADADA"></path>
                    <path d="M36.819913,4.5933913 C36.7552174,4.55295652 36.7471304,4.48826087 36.819913,4.45591304 L39.1327826,3.08921739 C39.2086424,3.04896147 39.2995315,3.04896147 39.3753913,3.08921739 L41.3809565,4.16478261 C41.4537391,4.16478261 41.4618261,4.26182609 41.3809565,4.30226087 L39.068087,5.66086957 C38.9913168,5.69728484 38.9022484,5.69728484 38.8254783,5.66086957 L36.819913,4.5933913 Z" id="Path" fill="#DADADA"></path>
                    <path d="M43.338,10.0601739 C43.2652174,10.0601739 43.2571304,9.96313043 43.338,9.92269565 L45.0524348,8.91182609 C45.1292049,8.87541081 45.2182733,8.87541081 45.2950435,8.91182609 L47.3006087,9.9873913 C47.3733913,10.0278261 47.3814783,10.0844348 47.3006087,10.1248696 L45.5861739,11.1357391 C45.5094038,11.1721544 45.4203354,11.1721544 45.3435652,11.1357391 L43.338,10.0601739 Z" id="Path" fill="#DADADA"></path>
                    <path d="M40.9846957,11.4592174 C40.911913,11.4592174 40.8957391,11.354087 40.9846957,11.3217391 L42.6991304,10.3027826 C42.7759006,10.2663673 42.864969,10.2663673 42.9417391,10.3027826 L44.9473043,11.3702609 C45.020087,11.4106957 45.0281739,11.4753913 44.9473043,11.5077391 L43.2328696,12.5266957 C43.1560994,12.5631109 43.067031,12.5631109 42.9902609,12.5266957 L40.9846957,11.4592174 Z" id="Path" fill="#DADADA"></path>
                    <path d="M38.6233043,12.8501739 C38.5505217,12.8501739 38.5424348,12.7531304 38.6233043,12.7126957 L40.3377391,11.7018261 C40.4145093,11.6654108 40.5035777,11.6654108 40.5803478,11.7018261 L42.585913,12.7693043 C42.6586957,12.7693043 42.6667826,12.8663478 42.585913,12.9067826 L40.8714783,13.9176522 C40.7927748,13.9579644 40.6994861,13.9579644 40.6207826,13.9176522 L38.6233043,12.8501739 Z" id="Path" fill="#DADADA"></path>
                    <path d="M36.261913,14.2492174 C36.1891304,14.2087826 36.1810435,14.1521739 36.261913,14.1117391 L37.9682609,13.1008696 C38.0469644,13.0605573 38.140253,13.0605573 38.2189565,13.1008696 L40.2164348,14.1764348 C40.2892174,14.1764348 40.2973043,14.2734783 40.2164348,14.3058261 L38.510087,15.3652174 C38.4333168,15.4016327 38.3442484,15.4016327 38.2674783,15.3652174 L36.261913,14.2492174 Z" id="Path" fill="#DADADA"></path>
                    <path d="M33.9005217,15.6401739 C33.8277391,15.6401739 33.8196522,15.5431304 33.9005217,15.5107826 L35.6149565,14.4918261 C35.6917267,14.4554108 35.7807951,14.4554108 35.8575652,14.4918261 L37.8631304,15.5593043 C37.935913,15.5997391 37.944,15.6644348 37.8631304,15.6967826 L36.1486957,16.7076522 C36.0728358,16.7479081 35.9819468,16.7479081 35.906087,16.7076522 L33.9005217,15.6401739 Z" id="Path" fill="#DADADA"></path>
                    <path d="M31.5391304,17.0392174 C31.4663478,17.0392174 31.4582609,16.9421739 31.5391304,16.9017391 L33.2535652,15.8908696 C33.3303354,15.8544543 33.4194038,15.8544543 33.4961739,15.8908696 L35.5017391,16.9664348 C35.5745217,17.0068696 35.5826087,17.0634783 35.5017391,17.103913 L33.7873043,18.1147826 C33.7105342,18.1511979 33.6214658,18.1511979 33.5446957,18.1147826 L31.5391304,17.0392174 Z" id="Path" fill="#DADADA"></path>
                    <path d="M29.1858261,18.4382609 C29.1130435,18.3978261 29.1049565,18.3331304 29.1858261,18.3007826 L30.9002609,17.289913 C30.9761207,17.2496571 31.0670097,17.2496571 31.1428696,17.289913 L33.1565217,18.3573913 C33.2293043,18.3978261 33.2373913,18.4625217 33.1565217,18.4948696 L31.4501739,19.5138261 C31.370637,19.5505207 31.2790152,19.5505207 31.1994783,19.5138261 L29.1858261,18.4382609 Z" id="Path" fill="#DADADA"></path>
                    <path d="M26.8244348,19.8292174 C26.7516522,19.8292174 26.7435652,19.7321739 26.8244348,19.6917391 L28.5307826,18.6808696 C28.6103196,18.644175 28.7019413,18.644175 28.7814783,18.6808696 L30.7789565,19.7483478 C30.8517391,19.7483478 30.8598261,19.8453913 30.7789565,19.8858261 L29.1130435,20.9047826 C29.0371836,20.9450385 28.9462946,20.9450385 28.8704348,20.9047826 L26.8244348,19.8292174 Z" id="Path" fill="#DADADA"></path>
                    <path d="M24.4630435,21.2282609 C24.3902609,21.1878261 24.3821739,21.1312174 24.4630435,21.0907826 L26.1774783,20.079913 C26.2533381,20.0396571 26.3442271,20.0396571 26.420087,20.079913 L28.4175652,21.1554783 C28.4903478,21.195913 28.4984348,21.2525217 28.4175652,21.2929565 L26.6869565,22.3038261 C26.6101864,22.3402414 26.521118,22.3402414 26.4443478,22.3038261 L24.4630435,21.2282609 Z" id="Path" fill="#DADADA"></path>
                    <path d="M22.1016522,22.6434783 C22.0288696,22.6434783 22.0207826,22.5383478 22.1016522,22.506 L23.816087,21.4870435 C23.8928571,21.4506282 23.9819255,21.4506282 24.0586957,21.4870435 L26.0642609,22.5545217 C26.1370435,22.5949565 26.1451304,22.6596522 26.0642609,22.692 L24.3498261,23.7109565 C24.2730559,23.7473718 24.1839875,23.7473718 24.1072174,23.7109565 L22.1016522,22.6434783 Z" id="Path" fill="#DADADA"></path>
                    <path d="M19.7483478,24.0182609 C19.6755652,24.0182609 19.6674783,23.9212174 19.7483478,23.8807826 L21.4627826,22.869913 C21.5395528,22.8334978 21.6286212,22.8334978 21.7053913,22.869913 L23.7109565,23.9454783 C23.7837391,23.9454783 23.7918261,24.0425217 23.7109565,24.0829565 L21.9884348,25.0695652 C21.9125749,25.1098211 21.8216859,25.1098211 21.7458261,25.0695652 L19.7483478,24.0182609 Z" id="Path" fill="#DADADA"></path>
                    <path d="M17.3869565,25.4173043 C17.3141739,25.3768696 17.306087,25.3202609 17.3869565,25.2798261 L19.0771304,24.2608696 C19.1529903,24.2206136 19.2438793,24.2206136 19.3197391,24.2608696 L21.3253043,25.3364348 C21.398087,25.3364348 21.4061739,25.4334783 21.3253043,25.4658261 L19.6108696,26.4847826 C19.5340994,26.5211979 19.445031,26.5211979 19.3682609,26.4847826 L17.3869565,25.4173043 Z" id="Path" fill="#DADADA"></path>
                    <path d="M7.82817391,19.4895652 L6.72026087,18.8992174 C6.68086463,18.886257 6.63835277,18.886257 6.59895652,18.8992174 C6.55905782,18.8899058 6.51755088,18.8899058 6.47765217,18.8992174 L4.76321739,19.9181739 C4.75421555,19.9387997 4.75421555,19.9622437 4.76321739,19.9828696 C4.77551142,20.0120526 4.79872999,20.0352712 4.82791304,20.0475652 L5.92773913,20.637913 L7.82817391,19.4895652 Z" id="Path" fill="#DADADA"></path>
                    <path d="M6.03286957,20.7106957 L7.14078261,21.3010435 C7.21728015,21.3386501 7.30689376,21.3386501 7.3833913,21.3010435 L9.09782609,20.282087 C9.10682793,20.2614611 9.10682793,20.2380171 9.09782609,20.2173913 C9.0858633,20.1860496 9.06285348,20.1601635 9.03313043,20.1446087 L7.93330435,19.5542609 L6.03286957,20.7106957 Z" id="Path" fill="#DADADA"></path>
                    <path d="M15.0336522,26.1046957 C15.0336522,26.1046957 15.0821739,26.0642609 15.0336522,26.04 C15.0298098,26.0070899 15.0079952,25.9790425 14.9770435,25.9672174 L12.9714783,24.8997391 C12.9293384,24.8866662 12.8842268,24.8866662 12.842087,24.8997391 C12.8050577,24.8893875 12.7658988,24.8893875 12.7288696,24.8997391 L12.276,25.1666087 L9.70434783,23.7513913 C9.62785029,23.7137847 9.53823667,23.7137847 9.46173913,23.7513913 L8.3133913,24.4387826 C8.3133913,24.4387826 8.26486957,24.4387826 8.27295652,24.5034783 C8.27835936,24.5357267 8.29963895,24.5630862 8.32956522,24.5762609 L13.0927826,27.1236522 C13.1354243,27.1328352 13.1795323,27.1328352 13.2221739,27.1236522 C13.2586806,27.1372922 13.2988847,27.1372922 13.3353913,27.1236522 L15.0336522,26.1046957 Z" id="Path" fill="#DADADA"></path>
                </g>
                <polygon id="Path" fill="#6A6B6F" fill-rule="nonzero" points="76.2438261 94.1645217 68.3266957 98.7013043 73.1465217 101.378087 81.0636522 96.8413043"></polygon>
                <path d="M117.454957,61.4608696 L77.4973043,84.3469565 C77.0914212,84.5832158 76.8422605,85.0175798 76.8422605,85.4872174 L77.1172174,120.891913 L118.360696,97.3507826 L118.360696,61.9541739 C118.358622,61.7400649 118.240779,61.5438632 118.05274,61.4414495 C117.864702,61.3390358 117.635951,61.3464672 117.454957,61.4608696 Z" id="Path" fill="#909296" fill-rule="nonzero"></path>
                <g id="Group" transform="translate(36.391304, 90.573913)" fill-rule="nonzero">
                    <path d="M18.8668696,26.3796522 C19.972203,25.9241382 20.9921749,25.2842631 21.8833043,24.4873043 C23.1122427,23.4656745 24.0542291,22.1418771 24.6166957,20.646 C24.7348589,20.4122517 24.7552275,20.1411109 24.6733126,19.8923324 C24.5913977,19.6435538 24.4139227,19.4375567 24.18,19.3197391 C23.5815652,18.9881739 22.1178261,18.2522609 21.3253043,17.8317391 C20.9940666,17.6054581 20.590558,17.5103454 20.1931304,17.5648696 L17.2737391,18.6 C17.6721834,18.5478237 18.0757826,18.6458407 18.405913,18.8749565 C19.2146087,19.2954783 20.6621739,20.0233043 21.2686957,20.3548696 C21.7522283,20.6033418 21.9467093,21.1939879 21.7053913,21.6811304 C21.1416071,23.1763059 20.1998437,24.4997901 18.972,25.5224348 C18.1857496,26.2271042 17.2967773,26.8079358 16.3356522,27.2449565 L18.8668696,26.3796522 Z" id="Path" fill="#A71821"></path>
                    <path d="M14.9527826,21.4546957 C14.1198305,21.4838917 13.2908961,21.3263942 12.5266957,20.9937391 C11.1938366,20.4001063 10.0677858,19.4232573 9.29191304,18.1875652 C7.29443478,15.1226087 7.36721739,10.9093043 9.45365217,8.41852174 C9.73683957,8.07944255 10.056898,7.77294594 10.407913,7.50469565 C8.897685,7.56993057 7.48891487,8.28315729 6.54234783,9.46173913 C4.44782609,11.9606087 4.38313043,16.1658261 6.37252174,19.2307826 C7.14688598,20.4677663 8.27337953,21.4449994 9.60730435,22.0369565 C11.3598937,22.8451578 13.4152975,22.6212712 14.9527826,21.4546957 L14.9527826,21.4546957 Z" id="Path" fill="#A71821"></path>
                    <path d="M24.8512174,11.7826957 C24.3837037,9.60175067 23.4574532,7.54525411 22.134,5.74982609 C19.0690435,1.6173913 14.5565217,-1.11022302e-16 10.602,1.09982609 L7.65834783,2.19156522 C11.5966957,1.0593913 16.1253913,2.70104348 19.1903478,6.83347826 C20.5124889,8.63267241 21.4385503,10.6915052 21.9075652,12.8744348 C22.0157192,13.2767046 21.8761618,13.7048921 21.5517391,13.9661739 L24.1395652,13.011913 C24.4047814,12.9563169 24.6338541,12.7905853 24.7696253,12.5560714 C24.9053965,12.3215575 24.9350611,12.0403792 24.8512174,11.7826957 Z" id="Path" fill="#A71821"></path>
                    <path d="M21.5517391,13.9661739 L21.195913,14.0955652 C21.3241168,14.0857591 21.447182,14.0410081 21.5517391,13.9661739 L21.5517391,13.9661739 Z" id="Path" fill="#A71821"></path>
                    <path d="M18.972,25.5305217 C20.1998437,24.507877 21.1416071,23.1843929 21.7053913,21.6892174 C21.9467093,21.2020748 21.7522283,20.6114287 21.2686957,20.3629565 C20.6621739,20.0313913 19.2065217,19.3035652 18.405913,18.8830435 C18.0757826,18.6539276 17.6721834,18.5559107 17.2737391,18.608087 C17.0527716,18.6900117 16.8785335,18.8642499 16.7966087,19.0852174 C16.4650242,19.7328269 16.0607674,20.3405686 15.5916522,20.8966957 C14.0467428,22.5126728 11.6467613,22.9705854 9.6153913,22.0369565 C8.28146649,21.4449994 7.15497294,20.4677663 6.3806087,19.2307826 C4.39121739,16.1658261 4.45591304,11.9525217 6.55043478,9.46173913 C8.97652174,6.50191304 13.2545217,6.96286957 15.7695652,10.3432174 C16.4624926,11.2887441 16.9651097,12.3598953 17.2494783,13.4971304 C17.3313129,13.9896582 17.7530593,14.3535845 18.2522609,14.3624348 L21.195913,14.0955652 C21.4605467,14.0419854 21.6896836,13.8779002 21.8256344,13.6446211 C21.9615851,13.4113419 21.9913973,13.131094 21.9075652,12.8744348 C21.4385503,10.6915052 20.5124889,8.63267241 19.1903478,6.83347826 C16.1253913,2.70104348 11.5966957,1.0593913 7.65834783,2.19156522 C5.9367532,2.70823607 4.40080089,3.71067661 3.23478261,5.0786087 C-0.655043478,9.51026087 -0.808695652,17.2090435 2.94365217,22.6758261 C4.28328377,24.7159801 6.17687973,26.3318487 8.40234783,27.333913 C10.3076583,28.1798024 12.4361251,28.3841352 14.4675652,27.9161739 C16.1420074,27.5024984 17.6889514,26.6832013 18.972,25.5305217 Z" id="Path" fill="#E8322E"></path>
                </g>
                <path d="M100.512783,64.2751304 C101.806696,21.753913 179.676,-17.2252174 234.368087,61.185913" id="Path" stroke="#FFFFFF" stroke-width="0.92" stroke-linecap="round" stroke-linejoin="round" stroke-dasharray="3.672000122070313"></path>
                <polyline id="Path" stroke="#FFFFFF" stroke-width="0.944" stroke-linecap="round" stroke-linejoin="round" points="228.197739 62.7547826 237.473478 65.4477391 237.740348 57.7004348"></polyline>
            </g>
        </g>
    </g>
</svg>