<?xml version="1.0" encoding="UTF-8"?>
<svg width="81px" height="84px" viewBox="0 0 81 84" version="1.1" xmlns="http://www.w3.org/2000/svg" xmlns:xlink="http://www.w3.org/1999/xlink">
    <title>hero_graphic_seleniumbox</title>
    <g id="Desktop" stroke="none" stroke-width="1" fill="none" fill-rule="evenodd">
        <g id="1-home-copy" transform="translate(-794.000000, -246.000000)" fill-rule="nonzero">
            <g id="hero_graphic_seleniumbox" transform="translate(794.000000, 245.997458)">
                <polygon id="Path" fill="#CCCCD1" points="18.256 43.264 26.52 38.512 26.496 27.28 18.232 32.024"></polygon>
                <polygon id="Path" fill="#CCCCD1" points="13.16 25.376 17.336 22.976 17.328 17.288 13.144 19.696"></polygon>
                <polygon id="Path" fill="#CCCCD1" points="26.376 20.904 32.56 17.36 32.544 8.96 26.36 12.504"></polygon>
                <polygon id="Path" fill="#CCCCD1" points="9.96 13.448 13.408 11.472 13.4 6.784 9.952 8.768"></polygon>
                <polygon id="Path" fill="#CCCCD1" points="0.008 5.608 2.904 3.944 2.896 0 0 1.664"></polygon>
                <path d="M32.4,66.704 L61.272,51.432 C62.0373281,50.9915924 62.5347066,50.2005809 62.6,49.32 L62.528,12.664 C62.528,11.864 61.928,11.568 61.192,11.96 L32.32,27.2 C31.5546719,27.6404076 31.0572934,28.4314191 30.992,29.312 L31.064,65.968 C31.072,66.784 31.664,67.096 32.4,66.704 Z" id="Path" fill="#BCBDC2"></path>
                <path d="M37.52,75.824 L70.28,58.496 C71.1471445,57.9937042 71.7100888,57.0953887 71.784,56.096 L71.696,14.496 C71.696,13.616 71.016,13.256 70.184,13.696 L37.424,31.04 C36.5548445,31.5402107 35.9911578,32.4397108 35.92,33.44 L36.008,75.04 C36,75.912 36.688,76.264 37.52,75.824 Z" id="Path" fill="#E4E3E3"></path>
                <path d="M43.296,83.712 L79.296,64.672 C80.253395,64.1228907 80.8743559,63.132953 80.952,62.032 L80.856,16.328 C80.856,15.352 80.112,14.968 79.192,15.448 L43.2,34.496 C42.2446249,35.0472078 41.6244126,36.0359521 41.544,37.136 L41.6,82.84 C41.6,83.808 42.4,84.2 43.296,83.712 Z" id="Path" fill="#FFFFFF"></path>
                <path d="M66.68,51.128 C65.7239085,51.7104363 65.0983596,52.7095357 64.992,53.824 C64.992,53.824 64.992,53.888 65.04,53.88 L65.04,53.88 L68.32,52.136 C68.3532534,52.1150937 68.37417,52.0792366 68.376,52.04 L68.376,52.04 C68.32,50.984 67.56,50.584 66.68,51.128 Z" id="Path" fill="#44AB5D"></path>
                <path d="M73.72,33.856 L66.752,47.2 C66.672,47.352 66.536,47.424 66.448,47.376 L66.448,47.376 L62.88,44.728 C62.8138857,44.6286616 62.8138857,44.4993384 62.88,44.4 L64.04,41.928 C64.104,41.776 64.24,41.68 64.336,41.712 L64.384,41.712 L66.4,43.4 C66.48,43.472 66.616,43.4 66.704,43.264 L72.304,30.952 C72.352,30.84 72.304,30.736 72.304,30.712 C72.2806542,30.7040755 72.2553458,30.7040755 72.232,30.712 L52.688,41.112 C52.5882399,41.1747188 52.5254899,41.2822903 52.52,41.4 L52.52,41.4 L52.52,68.672 C52.52,68.784 52.6,68.832 52.688,68.784 L52.688,68.784 L73.904,57.504 C74.0017408,57.4404246 74.0616576,57.3325745 74.064,57.216 L74.064,57.216 L74.064,33.864 C74.064,33.76 74.064,33.696 73.944,33.72 C73.8518385,33.7267708 73.7685235,33.7773549 73.72,33.856 Z M58.448,62.656 C57.3353818,63.4510351 55.8818967,63.5884444 54.64,63.016 C54.5745424,62.913564 54.5745424,62.782436 54.64,62.68 L55.44,60.816 C55.504,60.664 55.64,60.568 55.728,60.6 L55.728,60.6 C56.6107214,60.9655901 57.6096344,60.9239828 58.4588954,60.4862512 C59.3081563,60.0485196 59.9216114,59.2590696 60.136,58.328 C60.136,56.304 54.776,60.536 54.776,56.24 C54.9509096,53.9400854 56.3294074,51.9042907 58.4,50.888 C59.4229611,50.1827178 60.7278598,50.0270877 61.888,50.472 C61.96,50.528 61.96,50.68 61.888,50.816 L61.032,52.656 C60.968,52.8 60.832,52.896 60.744,52.856 L60.744,52.856 C59.9008712,52.537927 58.9568234,52.6388629 58.2,53.128 C57.422541,53.435615 56.8822043,54.1519472 56.8,54.984 C56.8,56.792 62.152,52.744 62.152,56.984 C62.0712206,59.413349 60.6425543,61.5949194 58.448,62.64 L58.448,62.656 Z M70.144,52.456 C70.1390128,52.5844346 70.0737961,52.7030103 69.968,52.776 L65.072,55.376 C65.037653,55.3958281 65.0163532,55.4323421 65.016,55.472 L65.016,55.472 C65.184,56.544 66.04,56.912 67,56.312 C67.6714303,55.9065897 68.2472555,55.3607838 68.688,54.712 C68.768,54.592 68.88,54.552 68.944,54.616 L68.944,54.616 L69.544,55.368 C69.6009899,55.4699068 69.6009899,55.5940932 69.544,55.696 C68.8527515,56.7317755 67.919044,57.583097 66.824,58.176 C64.856,59.36 63.2,58.4 63.096,56.112 C63.0880023,55.9761176 63.0880023,55.8398824 63.096,55.704 C63.1298911,53.1798788 64.4084073,50.8354333 66.512,49.44 L66.68,49.352 C68.744,48.248 70.144,49.408 70.144,52.184 L70.144,52.456 Z" id="Shape" fill="#44AB5D"></path>
            </g>
        </g>
    </g>
</svg>