<?xml version="1.0" encoding="UTF-8"?>
<svg width="220px" height="292px" viewBox="0 0 220 292" version="1.1" xmlns="http://www.w3.org/2000/svg" xmlns:xlink="http://www.w3.org/1999/xlink">
    <title>hero_graphic_whitebot</title>
    <defs>
        <linearGradient x1="-0.00203809074%" y1="49.9213049%" x2="99.9972889%" y2="49.9213049%" id="linearGradient-1">
            <stop stop-color="#000000" stop-opacity="0.05" offset="0%"></stop>
            <stop stop-color="#000000" stop-opacity="0.1" offset="100%"></stop>
        </linearGradient>
    </defs>
    <g id="Desktop" stroke="none" stroke-width="1" fill="none" fill-rule="evenodd">
        <g id="1-home-copy" transform="translate(-1135.000000, -297.000000)">
            <g id="hero_graphic_whitebot" transform="translate(1135.000000, 297.103061)">
                <path d="M162.288,290.104 C132.208,289.248 106.608,274.904 107.088,257.904 L107.088,257.904 C107.584,240.2 133.072,226.56 164,227.44 C194.928,228.32 219.6,243.384 219.096,261.088 C218.616,278.136 192.368,290.96 162.288,290.104 Z" id="Path" fill="#000000" fill-rule="nonzero" opacity="0.05"></path>
                <path d="M122.8,257.952 C114.384,261.352 118.504,278.536 149.304,278.752 C149.304,278.752 173.944,288.264 197.464,275.168 C214.832,265.504 202.832,249.744 195.672,247.416 C188.512,245.088 122.8,257.952 122.8,257.952 Z" id="Path" fill="url(#linearGradient-1)" fill-rule="nonzero" opacity="0.5"></path>
                <path d="M147.768,257.472 C147.768,257.472 143.664,257.808 138.272,254.624 C135.448,252.952 132.576,248.576 132.048,246.936 C130.696,242.776 122.288,239.84 116.952,244.952 C110.912,250.736 113.072,262.864 125.752,269.328 C137.328,275.248 146.432,273.544 148.608,272.768 C151.544,271.704 154.088,267.832 152.792,262.912 C151.536,258.232 147.768,257.472 147.768,257.472 Z" id="Path" fill="#ECEBEB" fill-rule="nonzero"></path>
                <path d="M151.432,270.616 L151.432,270.56 C151.432,270.56 135.808,272.472 122.936,264.304 C117.432,260.808 113.744,255.84 113.912,250.904 C112.92,256.968 116.568,264.64 125.752,269.304 C137.328,275.224 146.432,273.52 148.608,272.744 C149.729029,272.311301 150.70705,271.574322 151.432,270.616 L151.432,270.616 Z" id="Path" fill="#E0E1E2" fill-rule="nonzero" style="mix-blend-mode: multiply;"></path>
                <path d="M171.632,229.176 L124.384,257.408 C123.677905,257.823429 122.802095,257.823429 122.096,257.408 L91.696,239.808 C91.2438197,239.548098 90.9324504,239.098669 90.848,238.584 L90.768,238.104 L140.424,210.904 L171.912,227.024 C172.496,227.336 172.192,228.848 171.632,229.176 Z" id="Path" fill="#DDDDDD" fill-rule="nonzero"></path>
                <path d="M171.632,228.208 L124.384,256.44 C123.679329,256.860626 122.800671,256.860626 122.096,256.44 L91,238.4 L140.44,209.92 L171.6,226.72 C171.908095,226.833966 172.115208,227.124691 172.122457,227.453112 C172.129334,227.781534 171.934911,228.080894 171.632,228.208 Z" id="Path" fill="#EAEAEA" fill-rule="nonzero"></path>
                <path d="M91.52,238.616 L91.52,238.616 L91.52,238.616 C91.5693666,238.561315 91.622857,238.510499 91.68,238.464 L91.8,238.384 L91.928,238.296 L91.928,238.296 L96.728,235.504 L101.528,232.712 L106.328,229.92 L111.128,227.128 L112.896,226.104 L113.048,226.016 L112.96,225.96 L92.216,237.96 C91.416,238.4 90.832,238.048 90.832,237.16 L81.104,203.288 C81.1470755,202.312412 81.6598382,201.418058 82.48,200.888 L131.2,176.92 C132,176.472 132.584,176.832 132.584,177.72 L140.952,208.184 C140.9063,209.158824 140.394177,210.052062 139.576,210.584 L125.112,218.936 L125.168,218.936 L125.536,218.72 L130.336,215.928 L135.136,213.136 L139.936,210.344 L140,210.344 L140.048,210.344 L140.112,210.344 L140.192,210.344 L140.144,210.344 C140.074329,210.354455 140.006798,210.376066 139.944,210.408 L140.136,210.312 L140.368,210.224 L140.368,210.224 L140.472,210.224 L140.512,210.224 C140.858486,209.759624 141.05899,209.202668 141.088,208.624 L132.8,177.376 C132.8,176.52 132.184,176.168 131.432,176.576 L82.248,200.8 C81.4446772,201.316611 80.9409377,202.189958 80.896,203.144 L90.624,237.688 C90.624,238.352 90.992,238.704 91.504,238.632 L91.52,238.616 Z" id="Path" fill="#ECECEC" fill-rule="nonzero"></path>
                <path d="M124.928,218.8 L125.144,218.92 L139.608,210.568 C140.426177,210.036062 140.9383,209.142824 140.984,208.168 L132.616,177.704 C132.616,176.824 131.992,176.464 131.232,176.904 L82.512,200.84 C81.6918382,201.370058 81.1790755,202.264412 81.136,203.24 L90.864,237.112 C90.864,237.992 91.488,238.344 92.248,237.912 L112.992,225.912 L112.744,225.768 L124.928,218.8 Z" id="Path" fill="#070707" fill-rule="nonzero"></path>
                <path d="M148,231.8 C147.834161,231.704253 147.629839,231.704253 147.464,231.8 L132.968,240.224 C132.802696,240.321957 132.70133,240.499852 132.70133,240.692 C132.70133,240.884148 132.802696,241.062043 132.968,241.16 L139.784,244.992 L155.344,235.952 L148,231.8 Z" id="Path" fill="#DADADA" fill-rule="nonzero"></path>
                <polygon id="Path" fill="#0E0E0E" fill-rule="nonzero" points="117.48 224.616 119.88 223.224 122.288 221.824 124.688 220.432 126.216 219.544 126.024 219.424 125.864 219.336 125.736 219.256 125.624 219.2 125.544 219.152 125.488 219.12 125.472 219.104 125.408 219.072 125.36 219.048 125.32 219.024 125.288 219 125.264 218.992 125.24 218.976 125.224 218.968 125.208 218.96 125.2 218.952 125.2 218.952 125.2 218.952 125.144 218.92 124.928 218.8 112.744 225.8 112.992 225.936 113.08 225.992 113.08 225.992 113.088 225.992 113.096 226 113.112 226.008 113.128 226.016 113.144 226.024 113.176 226.04 113.208 226.064 113.248 226.088 113.296 226.112 113.336 226.136 113.352 226.152 113.424 226.192 113.512 226.24 113.616 226.296 113.744 226.376 113.904 226.464 114.104 226.584 115.08 226.016"></polygon>
                <polygon id="Path" fill="#0E0E0E" fill-rule="nonzero" points="126.224 219.544 114.112 226.584 114.152 226.608 126.272 219.568"></polygon>
                <path d="M121.328,227.2 C121.424504,227.236453 121.488364,227.32884 121.488364,227.432 C121.488364,227.53516 121.424504,227.627547 121.328,227.664 L119.264,228.872 C119.011845,228.996415 118.716155,228.996415 118.464,228.872 L116.312,227.64 C116.088,227.512 116.088,227.304 116.312,227.168 L118.376,225.968 C118.626605,225.837107 118.925395,225.837107 119.176,225.968 L121.328,227.2 Z" id="Path" fill="#0E0E0E" fill-rule="nonzero"></path>
                <g id="Group" transform="translate(94.400000, 211.200000)" fill-rule="nonzero">
                    <path d="M57.712,6.952 C57.864,7.04 57.872,7.176 57.712,7.264 L51.584,10.848 C51.4134035,10.9362485 51.2105965,10.9362485 51.04,10.848 L48.64,9.472 C48.48,9.376 48.488,9.24 48.64,9.152 L54.768,5.568 C54.9385965,5.47975154 55.1414035,5.47975154 55.312,5.568 L57.712,6.952 Z" id="Path" fill="#0E0E0E"></path>
                    <path d="M46,9.272 C46.0984899,9.30437206 46.16506,9.39632643 46.16506,9.5 C46.16506,9.60367357 46.0984899,9.69562794 46,9.728 L43.936,10.936 C43.683845,11.0604152 43.388155,11.0604152 43.136,10.936 L40.992,9.696 C40.768,9.576 40.768,9.368 40.992,9.24 L43.048,8.032 C43.2992544,7.90378229 43.5967456,7.90378229 43.848,8.032 L46,9.272 Z" id="Path" fill="#0E0E0E"></path>
                    <path d="M42.2,11.512 C42.408,11.632 42.408,11.832 42.2,11.96 L40.112,13.184 C39.8613955,13.314893 39.5626045,13.314893 39.312,13.184 L37.136,11.936 C36.928,11.808 36.92,11.608 37.136,11.488 L39.224,10.264 C39.476437,10.1407999 39.771563,10.1407999 40.024,10.264 L42.2,11.512 Z" id="Path" fill="#0E0E0E"></path>
                    <path d="M61.528,9.136 C61.68,9.224 61.688,9.368 61.528,9.456 L53.6,14.104 C53.4294035,14.1922485 53.2265965,14.1922485 53.056,14.104 L50.656,12.728 C50.504,12.64 50.512,12.496 50.656,12.408 L58.608,7.76 C58.7785965,7.67175154 58.9814035,7.67175154 59.152,7.76 L61.528,9.136 Z" id="Path" fill="#0E0E0E"></path>
                    <path d="M52,14.608 C52.216,14.728 52.216,14.928 52,15.048 L49.912,16.272 C49.6613955,16.402893 49.3626045,16.402893 49.112,16.272 L46.936,15.024 L46.936,15.024 C46.8414094,14.9923346 46.7776478,14.9037501 46.7776478,14.804 C46.7776478,14.7042499 46.8414094,14.6156654 46.936,14.584 L49.024,13.36 C49.2746045,13.229107 49.5733955,13.229107 49.824,13.36 L52,14.608 Z" id="Path" fill="#0E0E0E"></path>
                    <path d="M48.136,16.8 C48.36,16.928 48.36,17.128 48.136,17.248 L46.048,18.472 C45.7973955,18.602893 45.4986045,18.602893 45.248,18.472 L43.072,17.216 L43.072,17.216 C42.864,17.096 42.872,16.896 43.072,16.776 L45.16,15.552 C45.4106045,15.421107 45.7093955,15.421107 45.96,15.552 L48.136,16.8 Z" id="Path" fill="#0E0E0E"></path>
                    <path d="M30.728,18.216 C30.944,18.336 30.944,18.536 30.728,18.656 L28.64,19.88 C28.3897366,20.0122757 28.0902634,20.0122757 27.84,19.88 L25.664,18.632 C25.448,18.512 25.448,18.312 25.664,18.192 L27.76,16.968 C27.9971611,16.8399848 28.2828389,16.8399848 28.52,16.968 L30.728,18.216 Z" id="Path" fill="#0E0E0E"></path>
                    <path d="M26.92,20.456 C27.128,20.576 27.128,20.768 26.92,20.896 L24.8,22.112 C24.5524791,22.2549062 24.2475209,22.2549062 24,22.112 L21.824,20.864 C21.7313179,20.8283494 21.6701626,20.7393022 21.6701626,20.64 C21.6701626,20.5406978 21.7313179,20.4516506 21.824,20.416 L24,19.2 C24.2475209,19.0570938 24.5524791,19.0570938 24.8,19.2 L26.984,20.448 L26.92,20.456 Z" id="Path" fill="#0E0E0E"></path>
                    <path d="M40.504,21.296 C40.72,21.424 40.72,21.624 40.504,21.744 L38.4,22.968 C38.1493955,23.098893 37.8506045,23.098893 37.6,22.968 L35.424,21.72 L35.424,21.72 C35.216,21.6 35.232,21.4 35.424,21.28 L37.52,20.056 C37.759152,19.9361231 38.040848,19.9361231 38.28,20.056 L40.504,21.296 Z" id="Path" fill="#0E0E0E"></path>
                    <path d="M31,22.44 C31.0926821,22.4756506 31.1538374,22.5646978 31.1538374,22.664 C31.1538374,22.7633022 31.0926821,22.8523494 31,22.888 L28.904,24.112 C28.6533955,24.242893 28.3546045,24.242893 28.104,24.112 L25.928,22.856 C25.712,22.736 25.712,22.536 25.928,22.416 L28.016,21.192 C28.2635209,21.0490938 28.5684791,21.0490938 28.816,21.192 L31,22.44 Z" id="Path" fill="#0E0E0E"></path>
                    <path d="M23.072,22.672 C23.296,22.8 23.304,23.008 23.072,23.136 L21.016,24.344 C20.7641359,24.4696559 20.4678641,24.4696559 20.216,24.344 L18.072,23.112 C17.848,22.984 17.848,22.776 18.072,22.64 L20.128,21.44 C20.3792544,21.3117823 20.6767456,21.3117823 20.928,21.44 L23.072,22.672 Z" id="Path" fill="#0E0E0E"></path>
                    <path d="M27.2,24.672 C27.416,24.792 27.416,24.992 27.2,25.112 L25.112,26.336 C24.8644791,26.4789062 24.5595209,26.4789062 24.312,26.336 L22.136,25.088 C21.92,24.968 21.92,24.768 22.136,24.648 L24.224,23.424 C24.4715209,23.2810938 24.7764791,23.2810938 25.024,23.424 L27.2,24.672 Z" id="Path" fill="#0E0E0E"></path>
                    <path d="M19.264,24.912 C19.3624899,24.9443721 19.42906,25.0363264 19.42906,25.14 C19.42906,25.2436736 19.3624899,25.3356279 19.264,25.368 L17.192,26.576 C16.9413955,26.706893 16.6426045,26.706893 16.392,26.576 L14.24,25.336 C14.024,25.216 14.024,25.008 14.24,24.88 L16.304,23.672 C16.5552544,23.5437823 16.8527456,23.5437823 17.104,23.672 L19.248,24.904 L19.264,24.912 Z" id="Path" fill="#0E0E0E"></path>
                    <path d="M11.656,24.944 C11.7525043,24.9804535 11.8163644,25.0728403 11.8163644,25.176 C11.8163644,25.2791597 11.7525043,25.3715465 11.656,25.408 L9.592,26.608 C9.34074563,26.7362177 9.04325437,26.7362177 8.792,26.608 L6.648,25.376 C6.424,25.24 6.416,25.04 6.648,24.904 L8.712,23.704 C8.96260451,23.573107 9.26139549,23.573107 9.512,23.704 L11.656,24.944 Z" id="Path" fill="#0E0E0E"></path>
                    <path d="M56.232,16.68 C56.416,16.792 56.432,16.944 56.312,17.072 L38.608,27.472 C38.3567456,27.6002177 38.0592544,27.6002177 37.808,27.472 L35.664,26.248 C35.44,26.112 35.432,25.904 35.664,25.776 L36.504,25.288 L53.416,15.424 C53.6380117,15.3544571 53.8781265,15.3716082 54.088,15.472 L56.232,16.68 Z" id="Path" fill="#0E0E0E"></path>
                    <path d="M23.352,26.896 C23.576,27.024 23.576,27.224 23.352,27.352 L21.288,28.56 C21.035845,28.6844152 20.740155,28.6844152 20.488,28.56 L18.336,27.32 C18.2394957,27.2835465 18.1756356,27.1911597 18.1756356,27.088 C18.1756356,26.9848403 18.2394957,26.8924535 18.336,26.856 L20.4,25.656 C20.6499107,25.5223101 20.9500893,25.5223101 21.2,25.656 L23.352,26.896 Z" id="Path" fill="#0E0E0E"></path>
                    <path d="M7.84,27.2 C8.056,27.328 8.064,27.536 7.84,27.664 L5.776,28.864 C5.52474563,28.9922177 5.22725437,28.9922177 4.976,28.864 L2.824,27.632 C2.608,27.512 2.6,27.304 2.824,27.168 L4.888,25.968 C5.13860451,25.837107 5.43739549,25.837107 5.688,25.968 L7.84,27.2 Z" id="Path" fill="#0E0E0E"></path>
                    <path d="M29.056,28 C29.1486821,28.0356506 29.2098374,28.1246978 29.2098374,28.224 C29.2098374,28.3233022 29.1486821,28.4123494 29.056,28.448 L26.96,29.664 C26.7124791,29.8069062 26.4075209,29.8069062 26.16,29.664 L24,28.408 C23.792,28.288 23.784,28.096 24,27.968 L26.088,26.744 C26.3386045,26.613107 26.6373955,26.613107 26.888,26.744 L29.056,28 Z" id="Path" fill="#0E0E0E"></path>
                    <path d="M36.896,28.072 C37.072,28.168 37.072,28.328 36.896,28.424 L32.48,31.008 C32.2830769,31.104 32.0529231,31.104 31.856,31.008 L29.528,29.672 C29.36,29.568 29.36,29.408 29.528,29.312 L33.936,26.736 C34.1292424,26.6363472 34.3587576,26.6363472 34.552,26.736 L36.896,28.072 Z" id="Path" fill="#0E0E0E"></path>
                    <path d="M14.664,27.584 C14.888,27.712 14.896,27.928 14.664,28.056 L9.6,31.024 C9.34874563,31.1522177 9.05125437,31.1522177 8.8,31.024 L6.656,29.792 C6.44,29.664 6.432,29.456 6.656,29.328 L11.744,26.36 C11.996155,26.2355848 12.291845,26.2355848 12.544,26.36 L14.664,27.584 Z" id="Path" fill="#0E0E0E"></path>
                    <path d="M30.816,31.52 C30.9144899,31.5523721 30.98106,31.6443264 30.98106,31.748 C30.98106,31.8516736 30.9144899,31.9436279 30.816,31.976 L28.8,33.184 C28.5497366,33.3162757 28.2502634,33.3162757 28,33.184 L25.848,31.952 C25.7514957,31.9155465 25.6876356,31.8231597 25.6876356,31.72 C25.6876356,31.6168403 25.7514957,31.5244535 25.848,31.488 L27.912,30.28 C28.1647107,30.1579901 28.4592893,30.1579901 28.712,30.28 L30.816,31.52 Z" id="Path" fill="#0E0E0E"></path>
                    <path d="M19.24,29.288 C19.472,29.424 19.472,29.632 19.24,29.76 L13.36,33.2 C13.1097366,33.3322757 12.8102634,33.3322757 12.56,33.2 L10.4,32 C10.176,31.864 10.176,31.656 10.4,31.536 L16.28,28.096 C16.5318641,27.9703441 16.8281359,27.9703441 17.08,28.096 L19.24,29.288 Z" id="Path" fill="#0E0E0E"></path>
                    <path d="M24.936,30.4 C25.0325043,30.4364535 25.0963644,30.5288403 25.0963644,30.632 C25.0963644,30.7351597 25.0325043,30.8275465 24.936,30.864 L17.184,35.4 C16.9333955,35.530893 16.6346045,35.530893 16.384,35.4 L14.232,34.168 C14,34.032 14,33.832 14.232,33.704 L21.992,29.168 C22.2426045,29.037107 22.5413955,29.037107 22.792,29.168 L24.936,30.4 Z" id="Path" fill="#0E0E0E"></path>
                    <path d="M27.008,33.752 C27.224,33.872 27.224,34.08 27.008,34.208 L24.944,35.416 C24.6927456,35.5442177 24.3952544,35.5442177 24.144,35.416 L21.992,34.184 C21.776,34.056 21.776,33.856 21.992,33.72 L24.056,32.52 C24.3035209,32.3770938 24.6084791,32.3770938 24.856,32.52 L27.008,33.752 Z" id="Path" fill="#0E0E0E"></path>
                    <path d="M66.84,11.024 L48,0.2 C47.5198231,-0.04372405 46.9521769,-0.04372405 46.472,0.2 L0.936,26.832 C0.74681886,26.8953308 0.619295621,27.0724999 0.619295621,27.272 C0.619295621,27.4715001 0.74681886,27.6486692 0.936,27.712 L19.8,38.536 C20.2792234,38.7836771 20.8487766,38.7836771 21.328,38.536 L66.88,11.904 C67.272,11.664 67.264,11.264 66.84,11.024 Z M59.128,7.76 L61.528,9.136 C61.68,9.224 61.688,9.368 61.528,9.456 L53.6,14.104 C53.4294035,14.1922485 53.2265965,14.1922485 53.056,14.104 L50.656,12.728 C50.504,12.64 50.512,12.496 50.656,12.408 L58.608,7.76 C58.7720562,7.67979947 58.9639438,7.67979947 59.128,7.76 L59.128,7.76 Z M29.784,20.632 C29.568,20.504 29.568,20.304 29.784,20.184 L31.872,18.96 C32.1222634,18.8277243 32.4217366,18.8277243 32.672,18.96 L34.848,20.216 C34.9406821,20.2516506 35.0018374,20.3406978 35.0018374,20.44 C35.0018374,20.5393022 34.9406821,20.6283494 34.848,20.664 L32.752,21.888 C32.5013955,22.018893 32.2026045,22.018893 31.952,21.888 L29.784,20.632 Z M31.008,22.888 L28.912,24.112 C28.6613955,24.242893 28.3626045,24.242893 28.112,24.112 L25.936,22.856 C25.72,22.736 25.72,22.536 25.936,22.416 L28.024,21.192 C28.2715209,21.0490938 28.5764791,21.0490938 28.824,21.192 L31,22.44 C31.0933521,22.4739639 31.1561321,22.5619289 31.1579443,22.6612517 C31.1596793,22.7605744 31.10008,22.8507248 31.008,22.888 L31.008,22.888 Z M33.6,18.4 C33.392,18.272 33.384,18.072 33.6,17.952 L35.688,16.728 C35.9379107,16.5943101 36.2380893,16.5943101 36.488,16.728 L38.664,17.976 C38.7585906,18.0076654 38.8223522,18.0962499 38.8223522,18.196 C38.8223522,18.2957501 38.7585906,18.3843346 38.664,18.416 L36.568,19.648 C36.3173955,19.778893 36.0186045,19.778893 35.768,19.648 L33.6,18.4 Z M37.416,16.16 C37.208,16.04 37.2,15.84 37.416,15.72 L39.504,14.496 C39.7515209,14.3530938 40.0564791,14.3530938 40.304,14.496 L42.48,15.744 C42.5745906,15.7756654 42.6383522,15.8642499 42.6383522,15.964 C42.6383522,16.0637501 42.5745906,16.1523346 42.48,16.184 L40.384,17.416 C40.1333955,17.546893 39.8346045,17.546893 39.584,17.416 L37.416,16.16 Z M41.232,13.928 C41.024,13.808 41.016,13.608 41.232,13.488 L43.32,12.264 C43.5675209,12.1210938 43.8724791,12.1210938 44.12,12.264 L46.296,13.512 C46.3886821,13.5476506 46.4498374,13.6366978 46.4498374,13.736 C46.4498374,13.8353022 46.3886821,13.9243494 46.296,13.96 L44.184,15.2 C43.9333955,15.330893 43.6346045,15.330893 43.384,15.2 L41.232,13.928 Z M45.056,11.704 C44.832,11.576 44.832,11.376 45.056,11.256 L47.144,10.032 C47.3915209,9.88909376 47.6964791,9.88909376 47.944,10.032 L50.128,11.28 C50.2206821,11.3156506 50.2818374,11.4046978 50.2818374,11.504 C50.2818374,11.6033022 50.2206821,11.6923494 50.128,11.728 L48,12.952 C47.7493955,13.082893 47.4506045,13.082893 47.2,12.952 L45.056,11.704 Z M47.76,8.704 C47.5087456,8.83221771 47.2112544,8.83221771 46.96,8.704 L44.8,7.472 C44.7034957,7.43554651 44.6396356,7.34315972 44.6396356,7.24 C44.6396356,7.13684028 44.7034957,7.04445349 44.8,7.008 L46.864,5.808 C47.1152544,5.67978229 47.4127456,5.67978229 47.664,5.808 L49.816,7.04 C49.9183985,7.07306699 49.9877898,7.16839485 49.9877898,7.276 C49.9877898,7.38360515 49.9183985,7.47893301 49.816,7.512 L47.76,8.704 Z M46,9.272 C46.0984899,9.30437206 46.16506,9.39632643 46.16506,9.5 C46.16506,9.60367357 46.0984899,9.69562794 46,9.728 L43.936,10.936 C43.683845,11.0604152 43.388155,11.0604152 43.136,10.936 L40.992,9.696 C40.768,9.576 40.768,9.368 40.992,9.24 L43.048,8.032 C43.2992544,7.90378229 43.5967456,7.90378229 43.848,8.032 L46,9.272 Z M42.2,11.512 C42.408,11.632 42.408,11.832 42.2,11.96 L40.112,13.184 C39.8613955,13.314893 39.5626045,13.314893 39.312,13.184 L37.136,11.936 C36.928,11.808 36.92,11.608 37.136,11.488 L39.224,10.264 C39.476437,10.1407999 39.771563,10.1407999 40.024,10.264 L42.2,11.512 Z M38.4,13.744 C38.616,13.872 38.624,14.072 38.4,14.192 L36.312,15.416 C36.0607456,15.5442177 35.7632544,15.5442177 35.512,15.416 L33.336,14.168 C33.12,14.04 33.12,13.84 33.336,13.72 L35.432,12.496 C35.6826045,12.365107 35.9813955,12.365107 36.232,12.496 L38.4,13.744 Z M34.552,16 C34.6504899,16.0323721 34.71706,16.1243264 34.71706,16.228 C34.71706,16.3316736 34.6504899,16.4236279 34.552,16.456 L32.464,17.672 C32.2164791,17.8149062 31.9115209,17.8149062 31.664,17.672 L29.488,16.424 C29.272,16.296 29.272,16.096 29.488,15.976 L31.584,14.752 C31.8346045,14.621107 32.1333955,14.621107 32.384,14.752 L34.552,16 Z M30.728,18.24 C30.944,18.36 30.944,18.56 30.728,18.68 L28.64,19.904 C28.3897366,20.0362757 28.0902634,20.0362757 27.84,19.904 L25.664,18.656 C25.448,18.536 25.448,18.336 25.664,18.216 L27.76,16.992 C27.9971611,16.8639848 28.2828389,16.8639848 28.52,16.992 L30.728,18.24 Z M26.912,20.472 L26.912,20.472 C27.12,20.592 27.12,20.784 26.912,20.912 L24.8,22.112 C24.5524791,22.2549062 24.2475209,22.2549062 24,22.112 L21.824,20.864 C21.7313179,20.8283494 21.6701626,20.7393022 21.6701626,20.64 C21.6701626,20.5406978 21.7313179,20.4516506 21.824,20.416 L24,19.2 C24.2475209,19.0570938 24.5524791,19.0570938 24.8,19.2 L26.912,20.472 Z M23.072,22.696 C23.296,22.824 23.304,23.032 23.072,23.16 L21.016,24.368 C20.7641359,24.4936559 20.4678641,24.4936559 20.216,24.368 L18.072,23.136 C17.848,23.008 17.848,22.8 18.072,22.664 L20.128,21.464 C20.3792544,21.3357823 20.6767456,21.3357823 20.928,21.464 L23.072,22.696 Z M19.256,24.928 L19.256,24.928 C19.3544899,24.9603721 19.42106,25.0523264 19.42106,25.156 C19.42106,25.2596736 19.3544899,25.3516279 19.256,25.384 L17.184,26.592 C16.9333955,26.722893 16.6346045,26.722893 16.384,26.592 L14.232,25.352 C14.016,25.232 14.016,25.024 14.232,24.896 L16.296,23.688 C16.5472544,23.5597823 16.8447456,23.5597823 17.096,23.688 L19.256,24.928 Z M18.336,26.888 L20.4,25.688 C20.6499107,25.5543101 20.9500893,25.5543101 21.2,25.688 L23.344,26.92 C23.568,27.048 23.568,27.248 23.344,27.376 L21.28,28.584 C21.027845,28.7084152 20.732155,28.7084152 20.48,28.584 L18.328,27.344 C18.2191653,27.3137831 18.1444973,27.2138421 18.1463448,27.1009063 C18.1482619,26.9879705 18.2262188,26.8905733 18.336,26.864 L18.336,26.888 Z M22.152,25.112 C21.936,24.992 21.936,24.792 22.152,24.672 L24.24,23.448 C24.4875209,23.3050938 24.7924791,23.3050938 25.04,23.448 L27.216,24.696 C27.432,24.816 27.432,25.016 27.216,25.136 L25.128,26.36 C24.8804791,26.5029062 24.5755209,26.5029062 24.328,26.36 L22.152,25.112 Z M24,28 L26.088,26.776 C26.3386045,26.645107 26.6373955,26.645107 26.888,26.776 L29.064,28.024 C29.1566821,28.0596506 29.2178374,28.1486978 29.2178374,28.248 C29.2178374,28.3473022 29.1566821,28.4363494 29.064,28.472 L26.968,29.688 C26.7204791,29.8309062 26.4155209,29.8309062 26.168,29.688 L24,28.408 C23.816,28.288 23.808,28.096 24,28 Z M27.816,26.208 L27.816,26.208 C27.608,26.096 27.616,25.896 27.816,25.776 L29.904,24.552 C30.1546045,24.421107 30.4533955,24.421107 30.704,24.552 L32.88,25.8 C33.096,25.928 33.096,26.128 32.88,26.248 L30.792,27.472 C30.5413955,27.602893 30.2426045,27.602893 29.992,27.472 L27.816,26.208 Z M31.64,23.984 L31.64,23.984 C31.432,23.864 31.432,23.664 31.64,23.544 L33.728,22.32 C33.9786045,22.189107 34.2773955,22.189107 34.528,22.32 L36.704,23.568 C36.92,23.696 36.92,23.896 36.704,24.016 L34.616,25.24 C34.3653955,25.370893 34.0666045,25.370893 33.816,25.24 L31.64,23.984 Z M35.456,21.752 L35.456,21.752 C35.248,21.632 35.264,21.432 35.456,21.312 L37.552,20.088 C37.791152,19.9681231 38.072848,19.9681231 38.312,20.088 L40.488,21.336 C40.704,21.464 40.704,21.664 40.488,21.784 L38.4,22.968 C38.1493955,23.098893 37.8506045,23.098893 37.6,22.968 L35.456,21.752 Z M39.272,19.52 L39.272,19.52 C39.064,19.4 39.072,19.2 39.272,19.08 L41.368,17.856 C41.6179107,17.7223101 41.9180893,17.7223101 42.168,17.856 L44.344,19.104 C44.56,19.232 44.568,19.432 44.344,19.552 L42.256,20.776 C42.0053955,20.906893 41.7066045,20.906893 41.456,20.776 L39.272,19.52 Z M43.088,17.28 L43.088,17.28 C42.88,17.16 42.888,16.96 43.088,16.84 L45.176,15.616 C45.4266045,15.485107 45.7253955,15.485107 45.976,15.616 L48.152,16.864 C48.376,16.992 48.376,17.192 48.152,17.312 L46.064,18.536 C45.8133955,18.666893 45.5146045,18.666893 45.264,18.536 L43.088,17.28 Z M46.904,15.056 L46.904,15.056 C46.8094094,15.0243346 46.7456478,14.9357501 46.7456478,14.836 C46.7456478,14.7362499 46.8094094,14.6476654 46.904,14.616 L48.992,13.392 C49.2426045,13.261107 49.5413955,13.261107 49.792,13.392 L51.976,14.648 C52.192,14.768 52.192,14.968 51.976,15.088 L49.888,16.312 C49.6373955,16.442893 49.3386045,16.442893 49.088,16.312 L46.904,15.056 Z M55.312,5.6 L57.712,6.984 C57.864,7.072 57.872,7.208 57.712,7.296 L51.584,10.88 C51.4134035,10.9682485 51.2105965,10.9682485 51.04,10.88 L48.64,9.496 C48.496,9.408 48.504,9.272 48.64,9.184 L54.768,5.6 C54.9385965,5.51175154 55.1414035,5.51175154 55.312,5.6 Z M51.6,3.536 L53.752,4.768 L53.752,4.768 C53.976,4.896 53.968,5.096 53.752,5.224 L51.576,6.496 C51.3247456,6.62421771 51.0272544,6.62421771 50.776,6.496 L48.624,5.264 C48.5274957,5.22754651 48.4636356,5.13515972 48.4636356,5.032 C48.4636356,4.92884028 48.5274957,4.83645349 48.624,4.8 L50.8,3.528 C51.0466594,3.38952294 51.345483,3.38055823 51.6,3.504 L51.6,3.536 Z M41.296,4.688 L47.056,1.328 C47.3062634,1.19572431 47.6057366,1.19572431 47.856,1.328 L50.008,2.56 C50.1045043,2.59645349 50.1683644,2.68884028 50.1683644,2.792 C50.1683644,2.89515972 50.1045043,2.98754651 50.008,3.024 L44.248,6.392 C43.995845,6.51641521 43.700155,6.51641521 43.448,6.392 L41.304,5.152 C41.2153981,5.15342906 41.1327642,5.10748104 41.0872257,5.0314641 C41.0416872,4.95544717 41.0401624,4.8609101 41.0832257,4.7834641 C41.126289,4.7060181 41.2073981,4.65742906 41.296,4.656 L41.296,4.688 Z M37.184,7.088 L39.248,5.88 C39.4992544,5.75178229 39.7967456,5.75178229 40.048,5.88 L42.192,7.112 C42.2885043,7.14845349 42.3523644,7.24084028 42.3523644,7.344 C42.3523644,7.44715972 42.2885043,7.53954651 42.192,7.576 L40.136,8.8 C39.8847456,8.92821771 39.5872544,8.92821771 39.336,8.8 L37.192,7.568 C36.968,7.4 36.96,7.2 37.184,7.064 L37.184,7.088 Z M33.376,9.32 L35.432,8.112 C35.6832544,7.98378229 35.9807456,7.98378229 36.232,8.112 L38.376,9.344 C38.592,9.472 38.6,9.68 38.376,9.808 L36.312,11.016 C36.0607456,11.1442177 35.7632544,11.1442177 35.512,11.016 L33.368,9.784 C33.2503597,9.76070388 33.1662431,9.65656783 33.1681751,9.53665916 C33.1701745,9.41675049 33.2576593,9.31542758 33.376,9.296 L33.376,9.32 Z M29.6,11.528 L31.656,10.32 C31.9072544,10.1917823 32.2047456,10.1917823 32.456,10.32 L34.6,11.552 C34.6965043,11.5884535 34.7603644,11.6808403 34.7603644,11.784 C34.7603644,11.8871597 34.6965043,11.9795465 34.6,12.016 L32.536,13.216 C32.2857366,13.3482757 31.9862634,13.3482757 31.736,13.216 L29.552,12 C29.4513934,11.9577826 29.3901954,11.8547727 29.4012339,11.7462272 C29.4122725,11.6376816 29.4929544,11.5491002 29.6,11.528 L29.6,11.528 Z M25.776,13.752 L27.84,12.552 C28.0912544,12.4237823 28.3887456,12.4237823 28.64,12.552 L30.784,13.784 C30.8805043,13.8204535 30.9443644,13.9128403 30.9443644,14.016 C30.9443644,14.1191597 30.8805043,14.2115465 30.784,14.248 L28.72,15.448 C28.4687456,15.5762177 28.1712544,15.5762177 27.92,15.448 L25.768,14.216 C25.6745441,14.1805567 25.6102626,14.0939636 25.6033857,13.9942493 C25.5965089,13.894535 25.6482945,13.7999371 25.736,13.752 L25.776,13.752 Z M21.92,16 L23.984,14.8 C24.2346045,14.669107 24.5333955,14.669107 24.784,14.8 L26.936,16.032 C27.0325043,16.0684535 27.0963644,16.1608403 27.0963644,16.264 C27.0963644,16.3671597 27.0325043,16.4595465 26.936,16.496 L24.872,17.704 C24.619845,17.8284152 24.324155,17.8284152 24.072,17.704 L21.92,16.472 C21.696,16.328 21.696,16.12 21.92,16 Z M18.104,18.24 L20.168,17.032 C20.4186045,16.901107 20.7173955,16.901107 20.968,17.032 L23.12,18.264 C23.336,18.392 23.344,18.6 23.12,18.728 L21.056,19.936 C20.8032893,20.0580099 20.5087107,20.0580099 20.256,19.936 L18.112,18.704 C18.0022188,18.6774267 17.9242619,18.5800295 17.9223448,18.4670937 C17.9204973,18.3541579 17.9951653,18.2542169 18.104,18.224 L18.104,18.24 Z M14.288,20.472 L16.352,19.264 C16.6026045,19.133107 16.9013955,19.133107 17.152,19.264 L19.304,20.496 C19.52,20.624 19.52,20.832 19.304,20.952 L17.24,22.16 C16.987845,22.2844152 16.692155,22.2844152 16.44,22.16 L14.296,20.928 C14.193003,20.8967071 14.1219541,20.8025434 14.120094,20.6949131 C14.1183056,20.5872827 14.1861226,20.4907654 14.288,20.456 L14.288,20.472 Z M10.464,22.696 L12.528,21.488 C12.780155,21.3635848 13.075845,21.3635848 13.328,21.488 L15.48,22.72 C15.5765043,22.7564535 15.6403644,22.8488403 15.6403644,22.952 C15.6403644,23.0551597 15.5765043,23.1475465 15.48,23.184 L13.416,24.384 C13.163845,24.5084152 12.868155,24.5084152 12.616,24.384 L10.472,23.152 C10.369003,23.1207071 10.2979541,23.0265434 10.296094,22.9189131 C10.2943056,22.8112827 10.3621226,22.7147654 10.464,22.68 L10.464,22.696 Z M6.648,24.928 L8.712,23.728 C8.96260451,23.597107 9.26139549,23.597107 9.512,23.728 L11.664,24.96 C11.7605043,24.9964535 11.8243644,25.0888403 11.8243644,25.192 C11.8243644,25.2951597 11.7605043,25.3875465 11.664,25.424 L9.6,26.624 C9.34874563,26.7522177 9.05125437,26.7522177 8.8,26.624 L6.656,25.392 C6.4,25.248 6.4,25.048 6.648,24.912 L6.648,24.928 Z M4.984,28.856 L2.832,27.624 C2.616,27.504 2.608,27.296 2.832,27.16 L4.896,25.96 C5.14660451,25.829107 5.44539549,25.829107 5.696,25.96 L7.84,27.2 C8.056,27.328 8.064,27.536 7.84,27.664 L5.776,28.864 C5.5231281,28.9820302 5.22926114,28.9731252 4.984,28.84 L4.984,28.856 Z M8.784,31.04 L6.64,29.808 C6.424,29.68 6.416,29.472 6.64,29.344 L11.728,26.376 C11.980155,26.2515848 12.275845,26.2515848 12.528,26.376 L14.672,27.608 C14.896,27.736 14.904,27.952 14.672,28.08 L9.6,31.024 C9.34874563,31.1522177 9.05125437,31.1522177 8.8,31.024 L8.784,31.04 Z M12.568,33.208 L10.4,32 C10.176,31.864 10.176,31.656 10.4,31.536 L16.28,28.096 C16.5318641,27.9703441 16.8281359,27.9703441 17.08,28.096 L19.216,29.32 C19.448,29.456 19.448,29.664 19.216,29.792 L13.336,33.232 C13.0880825,33.3408865 12.8032645,33.3260523 12.568,33.192 L12.568,33.208 Z M16.392,35.4 L14.224,34.16 C14.008,34.032 14.008,33.832 14.224,33.704 L21.984,29.168 C22.2346045,29.037107 22.5333955,29.037107 22.784,29.168 L24.936,30.4 C25.0325043,30.4364535 25.0963644,30.5288403 25.0963644,30.632 C25.0963644,30.7351597 25.0325043,30.8275465 24.936,30.864 L17.184,35.4 C16.9329636,35.5231353 16.6378584,35.5171736 16.392,35.384 L16.392,35.4 Z M23.192,36.456 L21.128,37.664 C20.8767456,37.7922177 20.5792544,37.7922177 20.328,37.664 L18.176,36.432 C18.0794957,36.3955465 18.0156356,36.3031597 18.0156356,36.2 C18.0156356,36.0968403 18.0794957,36.0044535 18.176,35.968 L20.24,34.76 C20.4902634,34.6277243 20.7897366,34.6277243 21.04,34.76 L23.2,36 C23.408,36.112 23.408,36.312 23.2,36.44 L23.192,36.456 Z M27.008,34.224 L24.944,35.432 C24.6927456,35.5602177 24.3952544,35.5602177 24.144,35.432 L21.992,34.2 C21.776,34.072 21.776,33.872 21.992,33.736 L24.056,32.536 C24.3035209,32.3930938 24.6084791,32.3930938 24.856,32.536 L27.008,33.768 C27.2,33.872 27.2,34.08 27.008,34.208 L27.008,34.224 Z M30.832,31.992 L28.8,33.184 C28.5497366,33.3162757 28.2502634,33.3162757 28,33.184 L25.848,31.952 C25.7514957,31.9155465 25.6876356,31.8231597 25.6876356,31.72 C25.6876356,31.6168403 25.7514957,31.5244535 25.848,31.488 L27.912,30.28 C28.1647107,30.1579901 28.4592893,30.1579901 28.712,30.28 L30.856,31.52 C30.9885483,31.5266274 31.0906274,31.6394517 31.0839999,31.772 C31.0773725,31.9045483 30.9645483,32.0066274 30.832,32 L30.832,31.992 Z M36.904,28.44 L32.488,31.024 C32.2910769,31.12 32.0609231,31.12 31.864,31.024 L29.536,29.688 C29.368,29.584 29.368,29.424 29.536,29.328 L33.944,26.752 C34.1372424,26.6523472 34.3667576,26.6523472 34.56,26.752 L36.896,28.096 C37.072,28.168 37.072,28.328 36.904,28.424 L36.904,28.44 Z M56.312,17.088 L38.608,27.488 C38.3567456,27.6162177 38.0592544,27.6162177 37.808,27.488 L35.664,26.264 C35.44,26.128 35.432,25.92 35.664,25.792 L36.504,25.304 L53.416,15.44 C53.6380117,15.3704571 53.8781265,15.3876082 54.088,15.488 L56.24,16.72 C56.416,16.8 56.432,16.944 56.312,17.072 L56.312,17.088 Z M61.968,13.784 L57.6,16.344 C57.4067576,16.4436528 57.1772424,16.4436528 56.984,16.344 L54.648,15 C54.5705702,14.9763902 54.5176656,14.9049493 54.5176656,14.824 C54.5176656,14.7430507 54.5705702,14.6716098 54.648,14.648 L59.056,12.072 C59.2492424,11.9723472 59.4787576,11.9723472 59.672,12.072 L62.008,13.416 C62.0843374,13.447131 62.1306506,13.5252386 62.1213422,13.6071525 C62.1120338,13.6890665 62.049376,13.754791 61.968,13.768 L61.968,13.784 Z M65.352,11.808 L63.296,13.016 C63.0441359,13.1416559 62.7478641,13.1416559 62.496,13.016 L60.352,11.784 C60.2554957,11.7475465 60.1916356,11.6551597 60.1916356,11.552 C60.1916356,11.4488403 60.2554957,11.3564535 60.352,11.32 L62.416,10.112 C62.6672544,9.98378229 62.9647456,9.98378229 63.216,10.112 L65.368,11.344 C65.4531122,11.388086 65.5051987,11.4772723 65.5017776,11.5730635 C65.4983565,11.6688547 65.4400403,11.754098 65.352,11.792 L65.352,11.808 Z" id="Shape" fill="#ECECEC"></path>
                    <path d="M50.008,2.52 C50.1045043,2.55645349 50.1683644,2.64884028 50.1683644,2.752 C50.1683644,2.85515972 50.1045043,2.94754651 50.008,2.984 L44.248,6.352 C43.995845,6.47641521 43.700155,6.47641521 43.448,6.352 L41.304,5.112 C41.2074957,5.07554651 41.1436356,4.98315972 41.1436356,4.88 C41.1436356,4.77684028 41.2074957,4.68445349 41.304,4.648 L47.064,1.288 C47.3142634,1.15572431 47.6137366,1.15572431 47.864,1.288 L50.008,2.52 Z" id="Path" fill="#0E0E0E"></path>
                    <path d="M53.76,4.744 C53.984,4.872 53.976,5.072 53.76,5.2 L51.584,6.472 C51.3327456,6.60021771 51.0352544,6.60021771 50.784,6.472 L48.632,5.24 C48.5354957,5.20354651 48.4716356,5.11115972 48.4716356,5.008 C48.4716356,4.90484028 48.5354957,4.81245349 48.632,4.776 L50.808,3.504 C51.0586045,3.37310702 51.3573955,3.37310702 51.608,3.504 L53.76,4.736 L53.76,4.744 Z" id="Path" fill="#0E0E0E"></path>
                    <path d="M49.824,7.032 C49.9263985,7.06506699 49.9957898,7.16039485 49.9957898,7.268 C49.9957898,7.37560515 49.9263985,7.47093301 49.824,7.504 L47.76,8.704 C47.5087456,8.83221771 47.2112544,8.83221771 46.96,8.704 L44.8,7.472 C44.7034957,7.43554651 44.6396356,7.34315972 44.6396356,7.24 C44.6396356,7.13684028 44.7034957,7.04445349 44.8,7.008 L46.864,5.808 C47.1152544,5.67978229 47.4127456,5.67978229 47.664,5.808 L49.824,7.032 Z" id="Path" fill="#0E0E0E"></path>
                    <path d="M42.192,7.088 C42.2885043,7.12445349 42.3523644,7.21684028 42.3523644,7.32 C42.3523644,7.42315972 42.2885043,7.51554651 42.192,7.552 L40.136,8.8 C39.8847456,8.92821771 39.5872544,8.92821771 39.336,8.8 L37.192,7.568 C36.968,7.44 36.96,7.232 37.192,7.104 L39.256,5.896 C39.5072544,5.76778229 39.8047456,5.76778229 40.056,5.896 L42.192,7.088 Z" id="Path" fill="#0E0E0E"></path>
                    <path d="M38.4,9.32 C38.616,9.448 38.624,9.656 38.4,9.784 L36.336,10.992 C36.0847456,11.1202177 35.7872544,11.1202177 35.536,10.992 L33.392,9.76 C33.2954957,9.72354651 33.2316356,9.63115972 33.2316356,9.528 C33.2316356,9.42484028 33.2954957,9.33245349 33.392,9.296 L35.448,8.088 C35.6992544,7.95978229 35.9967456,7.95978229 36.248,8.088 L38.4,9.32 Z" id="Path" fill="#0E0E0E"></path>
                    <path d="M50.088,11.28 C50.1806821,11.3156506 50.2418374,11.4046978 50.2418374,11.504 C50.2418374,11.6033022 50.1806821,11.6923494 50.088,11.728 L48,12.952 C47.7493955,13.082893 47.4506045,13.082893 47.2,12.952 L45.024,11.704 C44.8,11.576 44.8,11.376 45.024,11.256 L47.112,10.032 C47.3595209,9.88909376 47.6644791,9.88909376 47.912,10.032 L50.088,11.28 Z" id="Path" fill="#0E0E0E"></path>
                    <path d="M34.56,11.552 C34.6565043,11.5884535 34.7203644,11.6808403 34.7203644,11.784 C34.7203644,11.8871597 34.6565043,11.9795465 34.56,12.016 L32.496,13.216 C32.2457366,13.3482757 31.9462634,13.3482757 31.696,13.216 L29.552,12 C29.4554957,11.9635465 29.3916356,11.8711597 29.3916356,11.768 C29.3916356,11.6648403 29.4554957,11.5724535 29.552,11.536 L31.608,10.328 C31.8592544,10.1997823 32.1567456,10.1997823 32.408,10.328 L34.56,11.552 Z" id="Path" fill="#0E0E0E"></path>
                    <path d="M46.272,13.512 C46.3646821,13.5476506 46.4258374,13.6366978 46.4258374,13.736 C46.4258374,13.8353022 46.3646821,13.9243494 46.272,13.96 L44.184,15.2 C43.9333955,15.330893 43.6346045,15.330893 43.384,15.2 L41.2,13.944 C40.992,13.824 40.984,13.624 41.2,13.504 L43.288,12.28 C43.5355209,12.1370938 43.8404791,12.1370938 44.088,12.28 L46.272,13.512 Z" id="Path" fill="#0E0E0E"></path>
                    <path d="M38.4,13.744 C38.616,13.872 38.624,14.072 38.4,14.192 L36.312,15.416 C36.0607456,15.5442177 35.7632544,15.5442177 35.512,15.416 L33.336,14.168 C33.12,14.04 33.12,13.84 33.336,13.72 L35.432,12.496 C35.6826045,12.365107 35.9813955,12.365107 36.232,12.496 L38.4,13.744 Z" id="Path" fill="#0E0E0E"></path>
                    <path d="M61.968,13.416 C62.0454298,13.4396098 62.0983344,13.5110507 62.0983344,13.592 C62.0983344,13.6729493 62.0454298,13.7443902 61.968,13.768 L57.6,16.344 C57.4067576,16.4436528 57.1772424,16.4436528 56.984,16.344 L54.648,15 C54.5705702,14.9763902 54.5176656,14.9049493 54.5176656,14.824 C54.5176656,14.7430507 54.5705702,14.6716098 54.648,14.648 L59.056,12.072 C59.2492424,11.9723472 59.4787576,11.9723472 59.672,12.072 L61.968,13.416 Z" id="Path" fill="#0E0E0E"></path>
                    <path d="M42.456,15.744 C42.5505906,15.7756654 42.6143522,15.8642499 42.6143522,15.964 C42.6143522,16.0637501 42.5505906,16.1523346 42.456,16.184 L40.36,17.416 C40.1093955,17.546893 39.8106045,17.546893 39.56,17.416 L37.384,16.16 C37.176,16.04 37.168,15.84 37.384,15.72 L39.472,14.496 C39.7195209,14.3530938 40.0244791,14.3530938 40.272,14.496 L42.456,15.744 Z" id="Path" fill="#0E0E0E"></path>
                    <path d="M34.552,16 C34.6504899,16.0323721 34.71706,16.1243264 34.71706,16.228 C34.71706,16.3316736 34.6504899,16.4236279 34.552,16.456 L32.464,17.672 C32.2164791,17.8149062 31.9115209,17.8149062 31.664,17.672 L29.488,16.424 C29.272,16.296 29.272,16.096 29.488,15.976 L31.584,14.752 C31.8346045,14.621107 32.1333955,14.621107 32.384,14.752 L34.552,16 Z" id="Path" fill="#0E0E0E"></path>
                    <path d="M38.64,17.976 C38.7345906,18.0076654 38.7983522,18.0962499 38.7983522,18.196 C38.7983522,18.2957501 38.7345906,18.3843346 38.64,18.416 L36.544,19.648 C36.2933955,19.778893 35.9946045,19.778893 35.744,19.648 L33.6,18.4 C33.392,18.272 33.384,18.072 33.6,17.952 L35.688,16.728 C35.9379107,16.5943101 36.2380893,16.5943101 36.488,16.728 L38.64,17.976 Z" id="Path" fill="#0E0E0E"></path>
                    <path d="M23.112,18.248 C23.328,18.376 23.336,18.584 23.112,18.712 L21.048,19.92 C20.7952893,20.0420099 20.5007107,20.0420099 20.248,19.92 L18.104,18.688 C18.0074957,18.6515465 17.9436356,18.5591597 17.9436356,18.456 C17.9436356,18.3528403 18.0074957,18.2604535 18.104,18.224 L20.168,17.016 C20.4186045,16.885107 20.7173955,16.885107 20.968,17.016 L23.112,18.248 Z" id="Path" fill="#0E0E0E"></path>
                    <path d="M44.32,19.064 C44.536,19.192 44.544,19.392 44.32,19.512 L42.232,20.736 C41.9813955,20.866893 41.6826045,20.866893 41.432,20.736 L39.256,19.488 L39.256,19.488 C39.048,19.368 39.056,19.168 39.256,19.048 L41.352,17.824 C41.6019107,17.6903101 41.9020893,17.6903101 42.152,17.824 L44.32,19.064 Z" id="Path" fill="#0E0E0E"></path>
                    <path d="M34.816,20.208 C34.9086821,20.2436506 34.9698374,20.3326978 34.9698374,20.432 C34.9698374,20.5313022 34.9086821,20.6203494 34.816,20.656 L32.72,21.88 C32.4693955,22.010893 32.1706045,22.010893 31.92,21.88 L29.744,20.632 C29.528,20.504 29.528,20.304 29.744,20.184 L31.832,18.96 C32.0822634,18.8277243 32.3817366,18.8277243 32.632,18.96 L34.816,20.208 Z" id="Path" fill="#0E0E0E"></path>
                    <path d="M19.296,20.48 C19.512,20.608 19.512,20.816 19.296,20.936 L17.232,22.144 C16.979845,22.2684152 16.684155,22.2684152 16.432,22.144 L14.288,20.912 C14.1914957,20.8755465 14.1276356,20.7831597 14.1276356,20.68 C14.1276356,20.5768403 14.1914957,20.4844535 14.288,20.448 L16.352,19.24 C16.6026045,19.109107 16.9013955,19.109107 17.152,19.24 L19.296,20.48 Z" id="Path" fill="#0E0E0E"></path>
                    <path d="M15.48,22.712 C15.5765043,22.7484535 15.6403644,22.8408403 15.6403644,22.944 C15.6403644,23.0471597 15.5765043,23.1395465 15.48,23.176 L13.416,24.376 C13.163845,24.5004152 12.868155,24.5004152 12.616,24.376 L10.472,23.144 C10.3696015,23.110933 10.3002102,23.0156052 10.3002102,22.908 C10.3002102,22.8003948 10.3696015,22.705067 10.472,22.672 L12.536,21.464 C12.788155,21.3395848 13.083845,21.3395848 13.336,21.464 L15.48,22.712 Z" id="Path" fill="#0E0E0E"></path>
                    <path d="M36.688,23.528 C36.904,23.656 36.904,23.856 36.688,23.976 L34.6,25.2 C34.3493955,25.330893 34.0506045,25.330893 33.8,25.2 L31.624,23.952 L31.624,23.952 C31.416,23.832 31.416,23.632 31.624,23.512 L33.712,22.288 C33.9626045,22.157107 34.2613955,22.157107 34.512,22.288 L36.688,23.528 Z" id="Path" fill="#0E0E0E"></path>
                    <path d="M32.872,25.76 C33.088,25.888 33.088,26.088 32.872,26.208 L30.784,27.432 C30.5333955,27.562893 30.2346045,27.562893 29.984,27.432 L27.8,26.176 L27.8,26.176 C27.592,26.064 27.6,25.864 27.8,25.744 L29.888,24.52 C30.1386045,24.389107 30.4373955,24.389107 30.688,24.52 L32.872,25.76 Z" id="Path" fill="#0E0E0E"></path>
                </g>
                <path d="M125.144,224.984 C125.240504,225.020453 125.304364,225.11284 125.304364,225.216 C125.304364,225.31916 125.240504,225.411547 125.144,225.448 L123.08,226.648 C122.828746,226.776218 122.531254,226.776218 122.28,226.648 L120.128,225.416 C120.032994,225.376067 119.971197,225.283057 119.971197,225.18 C119.971197,225.076943 120.032994,224.983933 120.128,224.944 L122.192,223.744 C122.443254,223.615782 122.740746,223.615782 122.992,223.744 L125.144,224.984 Z" id="Path" fill="#0E0E0E" fill-rule="nonzero"></path>
                <path d="M117.6,247.2 C117.824,247.336 117.824,247.536 117.6,247.664 L115.536,248.872 C115.284746,249.000218 114.987254,249.000218 114.736,248.872 L112.584,247.64 C112.487496,247.603547 112.423636,247.51116 112.423636,247.408 C112.423636,247.30484 112.487496,247.212453 112.584,247.176 L114.648,245.968 C114.898263,245.835724 115.197737,245.835724 115.448,245.968 L117.6,247.2 Z" id="Path" fill="#0E0E0E" fill-rule="nonzero"></path>
                <path d="M159.752,222.528 C159.848504,222.564453 159.912364,222.65684 159.912364,222.76 C159.912364,222.86316 159.848504,222.955547 159.752,222.992 L157.696,224.2 C157.444136,224.325656 157.147864,224.325656 156.896,224.2 L154.752,222.968 C154.655496,222.931547 154.591636,222.83916 154.591636,222.736 C154.591636,222.63284 154.655496,222.540453 154.752,222.504 L156.816,221.296 C157.067254,221.167782 157.364746,221.167782 157.616,221.296 L159.752,222.528 Z" id="Path" fill="#0E0E0E" fill-rule="nonzero"></path>
                <path d="M92.296,234.48 L83.24,203.488 C83.1301781,203.114008 83.3058779,202.715305 83.656,202.544 L130.056,179.768 C130.307955,179.64327 130.602394,179.63733 130.859174,179.751799 C131.115954,179.866267 131.308352,180.08923 131.384,180.36 L139.152,207.872 C139.27182,208.290385 139.090084,208.736464 138.712,208.952 L93.48,234.952 C93.2656781,235.081161 93.0032667,235.102598 92.7708234,235.009935 C92.53838,234.917271 92.3626847,234.721184 92.296,234.48 Z" id="Path" fill="#ECEBEB" fill-rule="nonzero"></path>
                <g id="Group" transform="translate(140.800000, 213.600000)" fill-rule="nonzero">
                    <path d="M4.984,0.488 C3.384,0.328 2.848,0.76 2.424,1.288 C2,1.816 1.496,2.4 0.96,3.2 C0.477040573,3.78898511 0.401018387,4.61255879 0.768,5.28 L1.752,7.784 C2.072,8.584 2.44,9.168 3.472,9.12 C4.504,9.072 11.288,8.28 16.272,13.752 C21.256,19.224 17.656,22.464 15.168,22.904 C12.68,23.344 8.704,21.056 7.208,20.08 C7.15295474,20.556583 7.23336269,21.0390307 7.44,21.472 L8.768,24.848 C8.99259434,25.8715045 9.74564755,26.6977289 10.744,27.016 C12.12,27.488 18.544,30.304 23.064,24.768 C28.584,17.984 22.296,2.208 4.984,0.488 Z" id="Path" fill="#86878C"></path>
                    <path d="M15.152,22.912 C16.3388551,22.7326343 17.3926203,22.0549528 18.0481832,21.0494508 C18.7037461,20.0439487 18.898701,18.8063438 18.584,17.648 C17.928,19.464 16.648,19.752 14.944,19.528 C13.253991,19.1812622 11.6663904,18.4504185 10.304,17.392 C10.0890349,17.1902195 9.79437696,17.0964257 9.50232558,17.1368158 C9.21027421,17.1772058 8.95213221,17.3474507 8.8,17.6 L8,18.648 C7.62053297,19.0498363 7.34578758,19.5388831 7.2,20.072 C8.688,21.064 12.544,23.36 15.152,22.912 Z" id="Path" fill="#6A6B6F"></path>
                    <path d="M4.984,0.488 C3.384,0.328 2.848,0.76 2.424,1.288 C2,1.816 1.496,2.4 0.96,3.2 C0.848029948,3.36117832 0.751598212,3.53261252 0.672,3.712 C10.112,3.256 23.416,7.632 24.216,22.496 C24.216,22.592 24.216,22.68 24.216,22.776 C27.384,15.304 20.8,2.056 4.984,0.488 Z" id="Path" fill="#A2A3A8"></path>
                </g>
                <path d="M154.776,209.6 C145.432,213.224 142.928,221.072 141.048,233.296 C139.168,245.52 137.472,254.4 139.36,263.2 C141.248,272 155.52,278.824 175.28,276.928 C194.84,275.048 200.88,266.392 201.04,256.992 C201.2,247.592 199.912,226.144 196.344,217.312 C192.776,208.48 170.76,203.408 154.776,209.6 Z" id="Path" fill="#ECEBEB" fill-rule="nonzero"></path>
                <path d="M201.04,257.008 C201.2,249.176 200.312,233.008 197.944,222.712 C198.648,228.52 198.512,235.624 197.472,245.536 C195.968,259.824 190.512,272.432 170.384,272.056 C153.64,271.736 143.28,267.384 138.976,261.056 C139.08,261.776 139.2,262.496 139.36,263.216 C141.24,272.056 155.52,278.84 175.28,276.944 C194.84,275.064 200.856,266.4 201.04,257.008 Z" id="Path" fill="#E0E1E2" fill-rule="nonzero" style="mix-blend-mode: multiply;"></path>
                <ellipse id="Oval" fill="#D5D6D7" fill-rule="nonzero" style="mix-blend-mode: multiply;" transform="translate(172.429166, 215.075106) rotate(-84.680000) translate(-172.429166, -215.075106) " cx="172.429166" cy="215.075106" rx="7.8" ry="15.928"></ellipse>
                <g id="Group" transform="translate(120.800000, 230.400000)" fill-rule="nonzero">
                    <path d="M4.928,0.632 C3.328,0.472 2.784,0.896 2.36,1.432 C1.936,1.968 1.432,2.568 0.904,3.352 C0.421274358,3.94353512 0.342342353,4.76758525 0.704,5.44 L1.696,7.936 C2.016,8.736 2.376,9.328 3.416,9.28 C4.456,9.232 11.232,8.432 16.216,13.904 C21.2,19.376 17.608,22.624 15.112,23.056 C12.616,23.488 8.656,21.216 7.16,20.232 C7.10181015,20.7104406 7.17943566,21.1956001 7.384,21.632 L8.712,25 C8.94151975,26.0253953 9.69610535,26.8530053 10.696,27.176 C12.072,27.64 18.488,30.464 23.016,24.92 C28.528,18.12 22.24,2.344 4.928,0.632 Z" id="Path" fill="#86878C"></path>
                    <path d="M15.088,23.048 C16.2742504,22.8707096 17.3281056,22.1947057 17.9838726,21.1904191 C18.6396396,20.1861325 18.8347451,18.9493925 18.52,17.792 C17.864,19.6 16.584,19.896 14.888,19.672 C13.1991483,19.3217397 11.6123139,18.5912487 10.248,17.536 C10.0318763,17.3230941 9.72843836,17.2238264 9.42826833,17.2678304 C9.12809831,17.3118344 8.86592046,17.4940195 8.72,17.76 L7.92,18.8 C7.541063,19.202226 7.26639615,19.691133 7.12,20.224 C8.632,21.208 12.488,23.504 15.088,23.048 Z" id="Path" fill="#6A6B6F"></path>
                    <path d="M4.928,0.632 C3.328,0.472 2.784,0.896 2.36,1.432 C1.936,1.968 1.432,2.568 0.904,3.352 C0.792029948,3.51317832 0.695598212,3.68461252 0.616,3.864 C10.048,3.408 23.352,7.784 24.152,22.648 C24.152,22.752 24.152,22.832 24.152,22.928 C27.328,15.448 20.712,2.192 4.928,0.632 Z" id="Path" fill="#A2A3A8"></path>
                </g>
                <path d="M170.896,227.768 C180.088,247.992 167.968,275.904 142.184,253.912" id="Path" stroke="#86878C" stroke-width="5.96" stroke-linecap="round" stroke-linejoin="round"></path>
                <path d="M159.28,212.056 C172.152,218.176 185.336,213.472 192.472,206.4 C201.216,197.736 213.68,179.024 207.752,161.184 C203.104,147.168 188.728,139.584 162.824,144.312 C136.92,149.04 125.816,165.768 130.24,180.64 C134.664,195.512 148.8,207.08 159.28,212.056 Z" id="Path" fill="#ECEBEB" fill-rule="nonzero"></path>
                <path d="M130.24,180.64 C132.512,188.256 137.336,195.04 142.912,200.456 C146.248,193.376 150.264,181.904 143.08,178.688 C134.2,174.688 131.176,165.384 135.88,157.888 C129.848,164.664 127.936,172.904 130.24,180.64 Z" id="Path" fill="#31B5E0" fill-rule="nonzero"></path>
                <path d="M142.912,200.456 C146.248,193.376 150.264,181.904 143.08,178.688 C134.2,174.688 131.176,165.384 135.88,157.888 C132.532148,161.545848 130.336675,166.109316 129.568,171.008 C129.96,176.712 133.808,181.576 140.176,183.632 C146.944,185.816 143.376,195.704 141.776,199.32 C142.144,199.696 142.52,200.08 142.912,200.456 Z" id="Path" fill="#1099D4" fill-rule="nonzero" opacity="0.6"></path>
                <path d="M207.752,161.184 C206.04086,155.761181 202.48243,151.110026 197.696,148.04 C210.968,163.4 205.416,199.12 157.168,210.984 C157.88,211.368 158.592,211.728 159.28,212.056 C172.152,218.176 185.336,213.472 192.472,206.4 C201.216,197.736 213.68,179.024 207.752,161.184 Z" id="Path" fill="#E0E1E2" fill-rule="nonzero" style="mix-blend-mode: multiply;"></path>
                <path d="M143.632,198.872 C143.96,198.136 144.28,197.376 144.584,196.592 C136.432,186.832 132.856,177.224 134.592,170.192 C134.112336,168.956415 133.815868,167.657348 133.712,166.336 C129.472,174.488 133.176,186.728 143.632,198.872 Z" id="Path" fill="#FFFFFF" fill-rule="nonzero"></path>
                <path d="M167.36,148.424 C167.36,148.352 165.992,140.856 168.768,134.824 L166.104,133.6 C162.904,140.496 164.416,148.624 164.504,148.968 C164.504,148.968 164.8,149.2 165.96,149.072 C167.12,148.944 167.36,148.424 167.36,148.424 Z" id="Path" fill="#CACCCD" fill-rule="nonzero"></path>
                <circle id="Oval" fill="#ECEBEB" fill-rule="nonzero" cx="167.552" cy="133.592" r="4.304"></circle>
                <path d="M169.888,129.976 C171.133682,131.646708 171.003453,133.969853 169.57885,135.490871 C168.154248,137.01189 165.844592,137.293761 164.096,136.16 C165.124755,137.539766 166.876574,138.174016 168.550192,137.772651 C170.22381,137.371286 171.497416,136.011482 171.788477,134.315199 C172.079538,132.618917 171.332087,130.912325 169.888,129.976 L169.888,129.976 Z" id="Path" fill="#D5D6D7" fill-rule="nonzero"></path>
                <ellipse id="Oval" fill="#ECEBEB" fill-rule="nonzero" transform="translate(153.610980, 198.774322) rotate(-46.030000) translate(-153.610980, -198.774322) " cx="153.61098" cy="198.774322" rx="3.448" ry="5.72"></ellipse>
                <path d="M149.04,193.36 C149.057908,192.542935 149.373703,191.760559 149.928,191.16 C151.76,189.264 155.808,190.184 158.968,193.232 C162.128,196.28 163.2,200.288 161.368,202.192 C160.794247,202.783691 160.022193,203.142653 159.2,203.2 L156.224,203.48 C156.792071,203.433939 157.32521,203.18722 157.728,202.784 C159.048,201.416 158.28,198.528 156.008,196.336 C153.736,194.144 150.824,193.48 149.504,194.848 C149.099948,195.283713 148.871902,195.853827 148.864,196.448 L149.04,193.36 Z" id="Path" fill="#FFFFFF" fill-rule="nonzero"></path>
                <path d="M161.36,202.192 C160.78826,202.781915 160.019374,203.140728 159.2,203.2 L156.224,203.48 C156.792071,203.433939 157.32521,203.18722 157.728,202.784 C158.464,201.984 158.528,200.784 158.088,199.464 L161.84,197.536 C162.504,199.36 162.4,201.112 161.36,202.192 Z" id="Path" fill="#BABBC0" fill-rule="nonzero"></path>
                <path d="M131.408,211.136 L100,228.544 C99.6417259,228.728191 99.2171111,228.730574 98.8567927,228.550415 C98.4964742,228.370255 98.2436114,228.029134 98.176,227.632 L90.904,203.592 C90.6085743,202.690401 90.9606954,201.703145 91.76,201.192 L124.44,184.976 C125.112,184.648 125.848,185.12 126.088,186.024 L132.152,208.928 C132.394975,209.747262 132.097243,210.630855 131.408,211.136 L131.408,211.136 Z" id="Path" fill="#FFFFFF" fill-rule="nonzero"></path>
                <path d="M102.304,195.952 L91.768,201.176 C90.9686954,201.687145 90.6165743,202.674401 90.912,203.576 L98.184,227.616 C98.2516114,228.013134 98.5044742,228.354255 98.8647927,228.534415 C99.2251111,228.714574 99.6497259,228.712191 100.008,228.528 L110.12,222.928 L102.304,195.952 Z" id="Path" fill="#40AB56" fill-rule="nonzero"></path>
                <polygon id="Path" fill="#FFFFFF" fill-rule="nonzero" points="98.832 207.912 95.704 206.648 96.128 205.336 98.008 206.136 99.36 200.8 100.536 201.2"></polygon>
                <polygon id="Path" fill="#FFFFFF" fill-rule="nonzero" points="101.192 215.872 98.104 214.664 98.52 213.368 100.376 214.096 101.712 208.824 102.88 209.2"></polygon>
                <polygon id="Path" fill="#FFFFFF" fill-rule="nonzero" points="103.512 223.704 100.464 222.56 100.88 221.272 102.712 221.96 104.04 216.72 105.192 217.072"></polygon>
                <line x1="109.152" y1="206.848" x2="122.776" y2="199.72" id="Path" stroke="#BABBC0" stroke-width="0.96" stroke-linecap="round" stroke-linejoin="round"></line>
                <line x1="109.992" y1="209.8" x2="118.776" y2="205.144" id="Path" stroke="#BABBC0" stroke-width="0.96" stroke-linecap="round" stroke-linejoin="round"></line>
                <line x1="106.928" y1="199.072" x2="120.704" y2="192.096" id="Path" stroke="#BABBC0" stroke-width="0.96" stroke-linecap="round" stroke-linejoin="round"></line>
                <line x1="107.784" y1="202.064" x2="116.664" y2="197.512" id="Path" stroke="#BABBC0" stroke-width="0.96" stroke-linecap="round" stroke-linejoin="round"></line>
                <line x1="111.344" y1="214.512" x2="124.816" y2="207.24" id="Path" stroke="#BABBC0" stroke-width="0.96" stroke-linecap="round" stroke-linejoin="round"></line>
                <line x1="112.176" y1="217.416" x2="120.856" y2="212.672" id="Path" stroke="#BABBC0" stroke-width="0.96" stroke-linecap="round" stroke-linejoin="round"></line>
                <polygon id="Path" fill="#AAA1C9" points="56.864 44.488 45.328 64.696 0 0 57.312 39.536"></polygon>
                <path d="M45.328,64.696 L33.912,48.696 C34.2018427,47.4703845 34.4155843,46.2280115 34.552,44.976 L47.352,50.4 L45.328,64.696 Z" id="Path" fill="#C4BDDB"></path>
                <polygon id="Path" fill="#FFFFFF" points="0 0 71.096 40.552 56.864 44.488"></polygon>
                <polygon id="Path" fill="#FFFFFF" points="0 0 27.88 63.16 47.32 50.384"></polygon>
                <path d="M100.592,184.968 C100.248,184.456 99.904,183.952 99.576,183.448" id="Path" stroke="#FFFFFF" stroke-width="0.912" stroke-linecap="round" stroke-linejoin="round"></path>
                <path d="M97.6,180.344 C82.8,156.96 82.04,142.904 82.168,122.496 C82.328,98.416 98.48,80.84 114.168,80.736 C127.848,80.64 138.656,91.224 138.560635,105.92 C138.464,120.792 126.184,129.696 113.344,129.784 C101.112,129.864 87.256,118.84 82.384,110.384 C75.704,98.8 67.376,82.384 56.784,65.448" id="Path" stroke="#FFFFFF" stroke-width="0.912" stroke-linecap="round" stroke-linejoin="round" stroke-dasharray="3.695999908447266"></path>
                <path d="M55.816,63.888 C55.496,63.368 55.168,62.856 54.84,62.344" id="Path" stroke="#FFFFFF" stroke-width="0.912" stroke-linecap="round" stroke-linejoin="round"></path>
                <polyline id="Path" stroke="#FFFFFF" stroke-width="0.936" stroke-linecap="round" stroke-linejoin="round" points="53.112 71.184 53.768 60.584 61.816 63.128"></polyline>
            </g>
        </g>
    </g>
</svg>