<?xml version="1.0" encoding="UTF-8"?>
<svg width="114px" height="114px" viewBox="0 0 114 114" version="1.1" xmlns="http://www.w3.org/2000/svg" xmlns:xlink="http://www.w3.org/1999/xlink">
    <title>icons/icons_Community_Contributors@3x</title>
    <g id="icons/icons_Community_Contributors" stroke="none" stroke-width="1" fill="none" fill-rule="evenodd" stroke-linecap="round" stroke-linejoin="round">
        <g id="Group-39" transform="translate(3.095000, 10.500000)" stroke="#E2231A" stroke-width="2">
            <path d="M91.099638,78.551985 C91.099638,80.468715 89.646978,82.021815 87.854868,82.021815 C86.062758,82.021815 84.609168,80.468715 84.609168,78.551985 C84.609168,76.634325 86.062758,75.082155 87.854868,75.082155 C89.646978,75.082155 91.099638,76.634325 91.099638,78.551985 Z" id="Stroke-1"></path>
            <path d="M83.041095,92.194992 L83.041095,89.410572 C83.041095,87.691002 84.014805,86.296932 86.039415,86.296932 L89.670135,86.296932 C91.694745,86.296932 92.668455,87.691002 92.668455,89.410572 L92.668455,92.194992" id="Stroke-3"></path>
            <path d="M67.231095,92.194992 L67.231095,89.410572 C67.231095,87.691002 68.204805,86.296932 70.229415,86.296932 L73.860135,86.296932 C75.884745,86.296932 76.858455,87.691002 76.858455,89.410572 L76.858455,92.194992" id="Stroke-5"></path>
            <path d="M98.851095,92.194992 L98.851095,89.410572 C98.851095,87.691002 99.824805,86.296932 101.849415,86.296932 L105.480135,86.296932 C107.504745,86.296932 108.478455,87.691002 108.478455,89.410572 L108.478455,92.194992" id="Stroke-7"></path>
            <path d="M106.683462,78.551985 C106.683462,80.468715 105.230802,82.021815 103.438692,82.021815 C101.645652,82.021815 100.192992,80.468715 100.192992,78.551985 C100.192992,76.634325 101.645652,75.082155 103.438692,75.082155 C105.230802,75.082155 106.683462,76.634325 106.683462,78.551985 Z" id="Stroke-9"></path>
            <path d="M75.516651,78.551985 C75.516651,80.468715 74.063991,82.021815 72.271881,82.021815 C70.478841,82.021815 69.026181,80.468715 69.026181,78.551985 C69.026181,76.634325 70.478841,75.082155 72.271881,75.082155 C74.063991,75.082155 75.516651,76.634325 75.516651,78.551985 Z" id="Stroke-11"></path>
            <line x1="10.479798" y1="26.29575" x2="20.174118" y2="26.29575" id="Stroke-13"></line>
            <line x1="0.891405" y1="6.189057" x2="84.959685" y2="6.189057" id="Stroke-15"></line>
            <line x1="33.485022" y1="26.29575" x2="59.462712" y2="26.29575" id="Stroke-17"></line>
            <line x1="10.479798" y1="39.546483" x2="20.174118" y2="39.546483" id="Stroke-19"></line>
            <line x1="33.485022" y1="39.546483" x2="59.462712" y2="39.546483" id="Stroke-21"></line>
            <line x1="10.479798" y1="52.797123" x2="20.174118" y2="52.797123" id="Stroke-23"></line>
            <line x1="33.485022" y1="52.797123" x2="59.462712" y2="52.797123" id="Stroke-25"></line>
            <path d="M84.266277,48.58041 C77.942277,46.96779 73.256007,41.22411 73.256007,34.3914 C73.256007,26.3004 79.814367,19.75041 87.896067,19.75041 C95.987997,19.75041 102.537057,26.3004 102.537057,34.3914 C102.537057,41.22411 97.858227,46.96779 91.526787,48.58041" id="Stroke-27"></path>
            <line x1="87.825573" y1="28.12041" x2="87.825573" y2="69.04041" id="Stroke-29"></line>
            <polyline id="Stroke-31" points="80.409102 35.898186 87.896532 27.700236 95.384892 35.898186"></polyline>
            <polyline id="Stroke-33" points="64.11234 69.767856 0 69.767856 0 -0.000744 91.1493 -0.000744 91.1493 15.100596"></polyline>
            <line x1="72.347025" y1="69.97041" x2="87.636225" y2="57.7344" id="Stroke-35"></line>
            <line x1="103.446597" y1="69.97041" x2="88.157397" y2="57.7344" id="Stroke-37"></line>
        </g>
    </g>
</svg>