<?xml version="1.0" encoding="UTF-8"?>
<svg width="166px" height="172px" viewBox="0 0 166 172" version="1.1" xmlns="http://www.w3.org/2000/svg" xmlns:xlink="http://www.w3.org/1999/xlink">
    <title>hero_graphic_clouds</title>
    <defs>
        <linearGradient x1="-42.8259889%" y1="47.8703996%" x2="48.3187447%" y2="49.5202228%" id="linearGradient-1">
            <stop stop-color="#FFFFFF" offset="0%"></stop>
            <stop stop-color="#FFFFFF" offset="100%"></stop>
        </linearGradient>
        <linearGradient x1="-42.8371442%" y1="47.7242548%" x2="48.3745528%" y2="49.403064%" id="linearGradient-2">
            <stop stop-color="#FFFFFF" offset="0%"></stop>
            <stop stop-color="#FFFFFF" offset="100%"></stop>
        </linearGradient>
    </defs>
    <g id="Desktop" stroke="none" stroke-width="1" fill="none" fill-rule="evenodd">
        <g id="1-home-copy" transform="translate(-1147.000000, -116.000000)">
            <g id="hero_graphic_clouds" transform="translate(1147.000000, 116.500000)">
                <path d="M135.488,115.656 L135.488,164.368 C135.488,164.896 135.16,165.104 134.736,164.856 L127.944,160.8 L118.888,155.368 L109.552,149.768 L104.52,146.752 C104.062426,146.437474 103.782911,145.923048 103.768,145.368 L103.768,102.4 L108.768,105.032 L108.768,97.024 L133.056,111.568 L133.056,114.4 L135.488,115.656 Z" id="Path" fill="#EEEEEE" fill-rule="nonzero"></path>
                <line x1="112.304" y1="105.816" x2="129.272" y2="115.904" id="Path" stroke="#BCBDC2" stroke-width="1.936" stroke-linecap="round" stroke-linejoin="round"></line>
                <line x1="109.984" y1="109.208" x2="129.272" y2="120.76" id="Path" stroke="#BCBDC2" stroke-width="1.936" stroke-linecap="round" stroke-linejoin="round"></line>
                <line x1="109.984" y1="114.064" x2="129.272" y2="125.624" id="Path" stroke="#BCBDC2" stroke-width="1.936" stroke-linecap="round" stroke-linejoin="round"></line>
                <line x1="109.984" y1="119.008" x2="129.272" y2="130.56" id="Path" stroke="#BCBDC2" stroke-width="1.936" stroke-linecap="round" stroke-linejoin="round"></line>
                <line x1="109.984" y1="123.864" x2="129.272" y2="135.416" id="Path" stroke="#BCBDC2" stroke-width="1.936" stroke-linecap="round" stroke-linejoin="round"></line>
                <line x1="109.984" y1="128.72" x2="129.272" y2="140.28" id="Path" stroke="#BCBDC2" stroke-width="1.936" stroke-linecap="round" stroke-linejoin="round"></line>
                <line x1="109.984" y1="133.584" x2="125.72" y2="143.008" id="Path" stroke="#BCBDC2" stroke-width="1.936" stroke-linecap="round" stroke-linejoin="round"></line>
                <path d="M127.12,170.4 L93.872,150.48 C93.3825725,150.122489 93.0869826,149.557912 93.072,148.952 L93.072,120.472 C93.072,119.904 93.44,119.672 93.872,119.936 L127.12,139.856 C127.609428,140.213511 127.905017,140.778088 127.92,141.384 L127.92,169.864 C127.944,170.4 127.576,170.64 127.12,170.4 Z" id="Path" fill="#FFFFFF" fill-rule="nonzero"></path>
                <polyline id="Path" stroke="#BCBDC2" stroke-width="1.936" stroke-linecap="round" stroke-linejoin="round" points="98.808 135.024 103.16 143.016 98.808 145.608"></polyline>
                <line x1="104.024" y1="148.856" x2="112.888" y2="153.832" id="Path" stroke="#BCBDC2" stroke-width="1.936" stroke-linecap="round" stroke-linejoin="round"></line>
                <polygon id="Path" fill="#FFFFFF" fill-rule="nonzero" points="106.632 97.304 100.584 94.12 100.584 84.104 106.632 87.288"></polygon>
                <polygon id="Path" fill="#FFFFFF" fill-rule="nonzero" points="138.392 113.072 135.016 111.288 135.016 106.424 138.392 108.208"></polygon>
                <polygon id="Path" fill="#FFFFFF" fill-rule="nonzero" points="118.744 89.44 112.248 86.016 112.248 73.976 118.744 77.392"></polygon>
                <polygon id="Path" fill="#FFFFFF" fill-rule="nonzero" points="122.992 69.48 118.88 67.312 118.88 53.08 122.992 55.248"></polygon>
                <polygon id="Path" fill="#BCBDC2" fill-rule="nonzero" points="131.448 58.896 128.016 57.088 128.016 45.232 131.448 47.04"></polygon>
                <polygon id="Path" fill="#BCBDC2" fill-rule="nonzero" points="114.224 57.072 110.792 55.264 110.792 39.016 114.224 40.816"></polygon>
                <polygon id="Path" fill="#FFFFFF" fill-rule="nonzero" points="131.12 98.776 123.904 94.976 123.904 76.28 131.12 80.08"></polygon>
                <path d="M161.544,36.728 C158.008,28.864 153.544,24.504 147.896,23.248 C147.734316,22.0800519 147.51269,20.921189 147.232,19.776 C144.072,6.8 134.176,-1.896 125.128,0.352 C123.692312,0.72864078 122.336979,1.36293671 121.128,2.224 L121.128,2.144 L107.816,9.896 C105.184,7.904 102.216,7.04 99.304,7.76 C98.1146792,8.05537238 97.0019645,8.60082077 96.04,9.36 L86.08,15.152 C82.976,16.376 80.704,19.368 79.616,23.248 L152.608,65.984 L164.744,58.96 C165.656,54.688 164.8,44.048 161.544,36.728 Z" id="Path" fill="#BCBDC2"></path>
                <path d="M152.608,65.984 L79.616,23.248 C80.824,18.936 83.496,15.696 87.152,14.784 C92.576,13.44 98.4,17.6 101.464,24.512 C102.152,15.912 106.456,9.008 112.992,7.384 C122.04,5.136 131.936,13.832 135.096,26.8 C135.377462,27.9477156 135.599094,29.1092818 135.76,30.28 C141.728,30.896 146.688,36.68 149.528,44.792 C153.672,56.656 152.608,65.984 152.608,65.984 Z" id="Path" fill="url(#linearGradient-1)"></path>
                <path d="M38.4,119.056 L38.4,138.624 C38.4,139.008 38.144,139.184 37.84,138.992 L23.336,130.352 C22.996951,130.111997 22.7897371,129.727171 22.776,129.312 L22.776,115.36 L26.872,117.52 L26.872,111.48 L37.84,118.008 C38.1765563,118.253795 38.3827129,118.639603 38.4,119.056 L38.4,119.056 Z" id="Path" fill="#FFFFFF" fill-rule="nonzero"></path>
                <polygon id="Path" fill="#FFFFFF" fill-rule="nonzero" points="25.2 110.536 19.368 107.472 19.368 96.664 25.2 99.728"></polygon>
                <polygon id="Path" fill="#FFFFFF" fill-rule="nonzero" points="30.84 90.68 27.144 88.736 27.144 75.96 30.84 77.912"></polygon>
                <polygon id="Path" fill="#BCBDC2" fill-rule="nonzero" points="38.688 81.952 35.608 80.328 35.608 69.688 38.688 71.312"></polygon>
                <polygon id="Path" fill="#BCBDC2" fill-rule="nonzero" points="25.192 69.056 22.12 67.44 22.12 52.856 25.192 54.472"></polygon>
                <polygon id="Path" fill="#BCBDC2" fill-rule="nonzero" points="17.352 59.112 14.28 57.488 14.28 42.904 17.352 44.528"></polygon>
                <polygon id="Path" fill="#FFFFFF" fill-rule="nonzero" points="39.528 109.848 34.256 107.072 34.256 93.408 39.528 96.192"></polygon>
                <path d="M59.536,43.872 C56.224,33.472 49.84,25.288 41.704,25.52 C39.1708863,25.6219599 36.7371565,26.5332067 34.76,28.12 L28.464,31.76 C26.504,29.256 23.856,27.76 20.952,27.816 C19.2102519,27.8806559 17.5321614,28.4875653 16.152,29.552 L5.256,35.888 L5.256,35.888 C2.48010413,37.948938 0.599216138,40.9950032 0,44.4 L51.432,74.536 L62.728,67.896 C62.728,61.92 61.704,50.656 59.536,43.872 Z" id="Path" fill="#BCBDC2"></path>
                <path d="M48.04,48.472 C44.576,38.128 38.544,31.928 30.4,32.168 C25.472,32.304 21.208,35.696 18.68,40.76 C16.712,36.88 13.376,34.36 9.648,34.456 C5.032,34.592 1.216,38.752 0,44.4 L51.432,74.536 C51.432,66.28 50.544,55.944 48.04,48.472 Z" id="Path" fill="url(#linearGradient-2)"></path>
            </g>
        </g>
    </g>
</svg>