<?xml version="1.0" encoding="UTF-8"?>
<svg width="67px" height="81px" viewBox="0 0 67 81" version="1.1" xmlns="http://www.w3.org/2000/svg" xmlns:xlink="http://www.w3.org/1999/xlink">
    <title>hero_graphic_espessobox</title>
    <g id="Desktop" stroke="none" stroke-width="1" fill="none" fill-rule="evenodd">
        <g id="1-home-copy" transform="translate(-1071.000000, -476.000000)" fill-rule="nonzero">
            <g id="hero_graphic_espessobox" transform="translate(1071.000000, 476.000000)">
                <polygon id="Path" fill="#CCCCD1" points="14.4 22.408 22.248 17.896 22.224 7.224 14.376 11.736"></polygon>
                <polygon id="Path" fill="#CCCCD1" points="0.416 31.424 5.696 28.392 5.688 21.216 0.408 24.256"></polygon>
                <polygon id="Path" fill="#CCCCD1" points="0.008 8.408 4.36 5.912 4.352 0 0 2.496"></polygon>
                <path d="M22.344,72.224 L55.56,55.424 C56.4305856,54.9527334 57.0050628,54.074475 57.088,53.088 L57,12.64 C57,11.784 56.312,11.44 55.472,11.84 L22.248,28.712 C21.3755623,29.1772728 20.7998035,30.0544759 20.72,31.04 L20.8,71.456 C20.8,72.312 21.496,72.656 22.344,72.224 Z" id="Path" fill="#E4E3E3"></path>
                <path d="M28.296,80.48 L64.624,62.08 C65.5740016,61.56488 66.1998342,60.6050694 66.288,59.528 L66.2,15.344 C66.2,14.408 65.4,14.024 64.52,14.496 L28.192,32.896 C27.2442451,33.4095981 26.6187677,34.3658568 26.528,35.44 L26.616,79.632 C26.624,80.576 27.376,80.952 28.296,80.48 Z" id="Path" fill="#FFFFFF"></path>
                <path d="M51,33.008 L52.6,29.16 C52.688,28.936 52.6,28.744 52.464,28.72 C52.328,28.696 52.096,28.864 52.008,29.088 L50.408,32.968 C48.8803716,32.9616006 47.3737475,33.323849 46.016,34.024 C44.3751738,34.8358233 42.8823976,35.9175452 41.6,37.224 L40,34.824 C39.912,34.688 39.704,34.728 39.544,34.904 C39.384,35.08 39.32,35.336 39.416,35.464 L41.016,37.864 C38.08,41.064 36.024,45.344 35.76,49.304 L56.304,39.384 C56,35.664 53.952,33.36 51,33.008 Z M41.336,42.688 C41.1455078,42.8205724 40.8945925,42.8277661 40.6968177,42.7063255 C40.4990429,42.5848848 40.3919465,42.3578592 40.424,42.128 C40.4594623,41.5249275 40.8044989,40.9831595 41.336,40.696 C41.5250652,40.5606178 41.7769911,40.5521988 41.9746729,40.6746566 C42.1723547,40.7971143 42.2770136,41.0264265 42.24,41.256 C42.2061911,41.8574206 41.8644156,42.3988171 41.336,42.688 L41.336,42.688 Z M50.592,38.216 C50.4029348,38.3513822 50.1510089,38.3598012 49.9533271,38.2373434 C49.7556453,38.1148857 49.6509864,37.8855735 49.688,37.656 C49.72029,37.0540945 50.0624934,36.5120201 50.592,36.224 C50.7810652,36.0886178 51.0329911,36.0801988 51.2306729,36.2026566 C51.4283547,36.3251143 51.5330136,36.5544265 51.496,36.784 C51.4668036,37.3868864 51.1237227,37.9303508 50.592,38.216 L50.592,38.216 Z" id="Shape" fill="#AD8D80"></path>
                <path d="M56.176,42.768 C56.248,42.016 56.288,41.312 56.304,40.664 L35.712,50.608 C35.84,56.792 38.688,66.048 46.008,62.52 C48.84,61.152 51,58.52 52.592,55.416 C53.3348381,55.4043402 54.0652817,55.2237811 54.728,54.888 C57.8152138,53.1912355 59.8083638,50.0215523 60,46.504 C60,43.848 58.4,42.4 56.176,42.768 Z M54.728,52.696 C54.4025856,52.8537202 54.054289,52.9590192 53.696,53.008 C54.7025062,50.4616871 55.4320405,47.8144433 55.872,45.112 C57.128,45.016 58.032,45.912 58.032,47.512 C57.8958608,49.6933426 56.6478422,51.6514928 54.728,52.696 L54.728,52.696 Z" id="Shape" fill="#E4E3E3"></path>
            </g>
        </g>
    </g>
</svg>