<?xml version="1.0" encoding="utf-8"?>
<!-- Generator: Adobe Illustrator 24.2.1, SVG Export Plug-In . SVG Version: 6.00 Build 0)  -->
<svg version="1.1" id="Layer_1" xmlns="http://www.w3.org/2000/svg" xmlns:xlink="http://www.w3.org/1999/xlink" x="0px" y="0px"
	 viewBox="0 0 325.07 325.07" style="enable-background:new 0 0 325.07 325.07;" xml:space="preserve">
<g>
	<g>
		<path d="M66.89,199.18c-7.37-18.51-6.75-36.65-6.75-36.65c0-56.49,46.11-102.45,102.61-102.45c4.91,0,9.68,0.35,14.52,1.04
			l-11.57,11.59c-1.06-0.04-2.1-0.06-3.16-0.06c-49.56,0-89.88,40.32-89.88,89.88c0,0-0.23,12.28,3.36,24.45h78.66l-32.85,61.96
			l79.5-80.29H93.22L214.64,47.23C198.74,40.02,181.1,36,162.54,36C92.76,36,36,92.76,36,162.54c0,45.62,24.27,85.67,60.57,107.94
			l37.78-71.26L66.89,199.18z"/>
		<path d="M228.51,54.6l-37.79,71.26h67.44c0,0,6.83,15.86,6.83,36.68c0,56.49-45.96,102.45-102.45,102.45
			c-5.02,0-10.03-0.37-14.98-1.09L159,252.34c1.18,0.05,2.36,0.08,3.54,0.08c49.56,0,89.89-40.32,89.89-89.88
			c0,0-0.01-13.07-3.38-24.45H170.4l32.85-61.96l-80.72,80.29h108.4L110.43,277.84c15.9,7.21,33.54,11.23,52.1,11.23
			c69.77,0,126.54-56.76,126.54-126.54C289.07,116.92,264.81,76.87,228.51,54.6z"/>
	</g>
</g>
</svg>
