<?xml version="1.0" encoding="utf-8"?>
<!-- Generator: Adobe Illustrator 26.2.1, SVG Export Plug-In . SVG Version: 6.00 Build 0)  -->
<svg version="1.1" id="Layer_1" xmlns="http://www.w3.org/2000/svg" xmlns:xlink="http://www.w3.org/1999/xlink" x="0px" y="0px"
	 viewBox="0 0 71 70" style="enable-background:new 0 0 71 70;" xml:space="preserve">
<path d="M35.1,52.5V70h-35V52.5C0.1,42.8,8,35,17.6,35S35.1,42.8,35.1,52.5z"/>
<path d="M26.4,26.3c0-4.8-3.9-8.8-8.8-8.8s-8.8,3.9-8.8,8.8s3.9,8.7,8.8,8.7S26.4,31.1,26.4,26.3z"/>
<path d="M70.1,35v17.5h-35V35c0-9.7,7.8-17.5,17.5-17.5S70.1,25.3,70.1,35z"/>
<path d="M61.4,8.8c0-4.8-3.9-8.7-8.8-8.7s-8.8,3.9-8.8,8.7c0,4.8,3.9,8.8,8.8,8.8S61.4,13.6,61.4,8.8z"/>
</svg>
