<?xml version="1.0" encoding="utf-8"?>
<!-- Generator: Adobe Illustrator 26.2.1, SVG Export Plug-In . SVG Version: 6.00 Build 0)  -->
<svg version="1.1" id="Layer_1" xmlns="http://www.w3.org/2000/svg" xmlns:xlink="http://www.w3.org/1999/xlink" x="0px" y="0px"
	 viewBox="0 0 71 70" style="enable-background:new 0 0 71 70;" xml:space="preserve">
<polygon points="70.1,35 70.1,70 35.1,70 35.1,52.5 52.6,52.5 52.6,35 52.8,35 61.3,26.2 "/>
<polygon points="70.2,35.1 70.1,35.1 70.1,35 "/>
<polygon points="35.1,0 35.1,17.5 17.6,17.5 17.6,35 9,43.8 0.1,35 0.1,0 "/>
<path d="M70.1,8.8c0-4.8-3.9-8.8-8.8-8.8s-8.8,3.9-8.8,8.8c0,4.8,3.9,8.8,8.8,8.8S70.1,13.6,70.1,8.8z"/>
<path d="M17.6,61.2c0-4.8-3.9-8.8-8.7-8.8s-8.7,3.9-8.7,8.8S4,70,8.8,70S17.6,66.1,17.6,61.2z"/>
</svg>
