<?xml version="1.0" encoding="UTF-8"?>
<svg width="114px" height="114px" viewBox="0 0 114 114" version="1.1" xmlns="http://www.w3.org/2000/svg" xmlns:xlink="http://www.w3.org/1999/xlink">
    <title>icons/icons_Open_Source_Forever@3x</title>
    <g id="icons/icons_Open_Source_Forever" stroke="none" stroke-width="1" fill="none" fill-rule="evenodd" stroke-linecap="round" stroke-linejoin="round">
        <g id="Group-11" transform="translate(1.000000, 15.500000)" stroke="#E2231A" stroke-width="2">
            <polyline id="Stroke-1" points="18.6159 15.9918 7.9089 10.0058 -0.0001 13.2668 21.4389 26.1958 21.4389 82.4458 92.4399 82.4458 92.4399 26.1958 111.5129 13.8318 105.4979 10.6718 95.4139 15.5898"></polyline>
            <polyline id="Stroke-3" points="92.4919 26.2174 99.0279 0.2414 14.8249 -0.0006 21.4279 26.2174 92.4529 26.2174"></polyline>
            <path d="M54.2839,58.0309 C51.0949,62.5599 47.4419,66.2599 41.8319,66.2599 C35.0429,66.2599 29.5389,60.7569 29.5389,53.9679 C29.5389,47.1779 35.0429,41.6749 41.8319,41.6749 C51.7709,41.6749 54.5899,52.4749 59.9099,59.7529" id="Stroke-5"></path>
            <path d="M64.6745,64.0592 C66.6325,65.4232 68.9405,66.2602 71.8015,66.2602 C78.5905,66.2602 84.0945,60.7562 84.0945,53.9672 C84.0945,47.1782 78.5905,41.6742 71.8015,41.6742 C65.9495,41.6742 62.2825,45.9322 58.9535,50.9042" id="Stroke-7"></path>
            <polyline id="Stroke-9" points="61.6803 57.5055 61.1953 61.7955 56.9663 60.9245"></polyline>
        </g>
    </g>
</svg>