<svg xmlns="http://www.w3.org/2000/svg" role="img" viewBox="-3.84 52.91 407.68 139.18"><style>svg {enable-background:new 0 0 400 245}</style><linearGradient id="a" x1="15.268" x2="99.523" y1="164.618" y2="80.363" gradientTransform="matrix(1 0 0 -1 0 245)" gradientUnits="userSpaceOnUse"><stop offset=".214" stop-color="#2475bb"/><stop offset=".707" stop-color="#80bd42"/><stop offset="1" stop-color="#fce01d"/></linearGradient><path fill="url(#a)" d="M110.4 91.5L57.7 61l-.4-.2-.3.2L4.6 91.3l-.3.2-.3.2v61.6l.4.2L57 184l.4.2.4-.2 52-30 .7-.4.4-.2V91.7l-.5-.2zM52.1 68.7L39.2 91H13.4l38.7-22.3zm-15 26l-6 10.5-18.2-10.5h24.2zm-4.7 15.5l21.3 12.3-21.3 12.3-7.1-12.3 7.1-12.3zm-3.2-1.8l-6 10.5-12.1-21 18.1 10.5zm-21-8.2l12.9 22.3-12.9 22.3v-44.6zm15 26l6 10.5-18.1 10.5 12.1-21zm7.8 13.6l6 10.5H12.9L31 139.8zM13.4 154h25.8l12.9 22.3L13.4 154zm42.1 20.9l-12-20.9h12.1v20.9zm0-24.6H41.3L34.2 138l21.3-12.3v24.6zm0-31L34.2 107l7.1-12.3h14.2v24.6zm0-28.3h-12l12.1-20.9V91zm30 17.4l18.1-10.5-12.1 20.9-6-10.4zm3.9 14.1l-7.1 12.3L61 122.5l21.3-12.3 7.1 12.3zm-5.7-17.3l-6-10.5h24.2l-18.2 10.5zM101.3 91H75.5L62.6 68.7 101.3 91zM59.2 70.1L71.3 91H59.2V70.1zm0 24.6h14.2l7.1 12.3-21.3 12.3V94.7zm0 31L80.5 138l-7.1 12.3H59.2v-24.6zm0 28.3h12.1l-12.1 20.9V154zm3.4 22.3L75.5 154h25.8l-38.7 22.3zm15-26l6-10.5 18.1 10.5H77.6zm7.9-13.7l6-10.5 12.1 20.9-18.1-10.4zm21.1 8.2l-12.9-22.3 12.9-22.3v44.6z"/><path fill="#55575b" d="M124.9 140.3h25.2v2.3h-22.6v19H148v2.4h-20.5v19.6h-2.6zm29.6 30.2c0-7.5 6-13.5 13.5-13.5 7.6 0 13.4 6 13.4 13.5S175.6 184 168 184c-7.6.1-13.5-6-13.5-13.5m24.4 0c0-6.4-4.4-11.3-10.9-11.3s-11 4.8-11 11.3c0 6.4 4.5 11.3 11 11.3 6.5.1 10.9-4.8 10.9-11.3m9.3 3.5v-16.4h2.5v16c0 5.3 2.5 8.3 7.5 8.3 5.6 0 9.5-3.8 9.5-9.7v-14.5h2.5v26h-2.5l.1-5.7c-1.7 3.9-5.3 6.3-9.8 6.3-5.9-.2-9.8-4-9.8-10.3m28.7-16.4h2.5l-.1 5.8c1.7-3.9 5.3-6.4 9.9-6.4 5.8 0 9.6 3.9 9.6 10.3v16.2h-2.5v-15.8c0-5.3-2.5-8.5-7.5-8.5-5.6 0-9.5 3.7-9.5 9.7v14.5h-2.5v-25.8zm28.8 12.9c0-7.6 5.4-13.5 12.9-13.5 5.3 0 9.1 2.9 11 6.7v-26.1h2.5v45.9h-2.5l.1-6.5c-1.8 4-6.1 7-11.1 7-7.5.1-12.9-5.8-12.9-13.5m24 0c0-6.4-4.3-11.3-10.9-11.3-6.4 0-10.5 4.8-10.5 11.3 0 6.4 4.1 11.3 10.5 11.3 6.6.1 10.9-4.8 10.9-11.3m27.6-3.2c0-5.8-2.7-8.1-6.9-8.1-4 0-6.6 1.6-8.5 4.5l-1.8-1.3c2.2-3.4 5.8-5.3 10.3-5.3 5.3 0 9.3 3.3 9.3 10v16.5h-2.5l.1-4c-1.6 2.5-4.5 4.5-9 4.5-5.9 0-9.8-2.7-9.8-8 0-5.1 4.5-7.6 9.5-7.6h9.2v-1.2zm-8.9 3.3c-4 0-7.3 1.5-7.3 5.5s2.6 5.8 7.6 5.8c4.3 0 8.6-2.5 8.6-6.5v-4.7l-8.9-.1zm22.4 6.1v-17h-4.1v-2.1h4.1v-9.1h2.5v9.1h7.5v2.1h-7.5v16.9c0 3.8 1.3 5.2 3.5 5.2 2.3 0 3.2-.9 4.1-1.9l1.6 1.5c-1.3 1.5-2.8 2.6-5.7 2.6-3.3.1-6-2-6-7.3m18.5-30.3c0-1.2 1-2.1 2.1-2.1s2.1.9 2.1 2.1c0 1.3-1 2.1-2.1 2.1s-2.1-.8-2.1-2.1m.9 11.2h2.5v26h-2.5v-26zm9.9 12.9c0-7.5 6-13.5 13.5-13.5 7.6 0 13.4 6 13.4 13.5s-5.8 13.5-13.4 13.5c-7.5.1-13.5-6-13.5-13.5m24.4 0c0-6.4-4.4-11.3-10.9-11.3s-11 4.8-11 11.3c0 6.4 4.5 11.3 11 11.3s10.9-4.8 10.9-11.3m9.6-12.9h2.5l-.1 5.8c1.7-3.9 5.3-6.4 9.9-6.4 5.8 0 9.6 3.9 9.6 10.3v16.2h-2.5v-15.8c0-5.3-2.5-8.5-7.5-8.5-5.6 0-9.5 3.7-9.5 9.7v14.5H374v-25.8zM124.9 89.5c0-16.2 12.5-28 28.1-28 15.5 0 28 11.7 28 28 0 16.2-12.5 28-28 28-15.6-.1-28.1-11.7-28.1-28m47.5 0c0-11.6-8-20.4-19.4-20.4-11.4 0-19.5 8.7-19.5 20.4s8.1 20.4 19.5 20.4c11.4-.1 19.4-8.8 19.4-20.4m17.4-6.4h8.2l-.2 6.2c2.2-4.2 6.2-7 11.9-7 8.6 0 15.6 7.3 15.6 17.5s-7.1 17.6-15.8 17.6c-5.6 0-9.6-2.7-11.5-6.5v22.7h-8.2V83.1zM217 99.8c0-6.1-3.7-10.2-9.5-10.2-5.9 0-9.8 4.2-9.8 10.2 0 6.3 3.8 10.5 9.8 10.5 5.8 0 9.5-4.1 9.5-10.5m36 10.9c4.4 0 7.6-1.8 9.5-3.6l4.7 5c-3.1 3.1-7.5 5.5-14.2 5.5-11.5 0-19-7.5-19-17.5s7.8-17.5 17.9-17.5c11.5 0 17.9 8.5 17.4 20.3h-27.1c1.1 4.6 4.6 7.8 10.8 7.8m8.3-13.7c-.7-4.5-3.5-7.9-9.1-7.9-5.2 0-8.8 2.9-9.8 7.9h18.9zm17.1-13.9h8.1l-.2 6.2c2.1-4.4 6.3-7 11.4-7 7.5 0 12.6 5.3 12.6 14.4v19.9h-8.1V97.4c0-4.8-2.2-7.6-7-7.6-5.3 0-8.7 3.2-8.7 8.6v18.2h-8.1V83.1zm40.7 25.2l6.9-4.2c1.9 3.5 4.2 5.8 8.2 5.8 4.5 0 7.5-2.2 7.5-8.5V62.3h8.5v39.2c0 10.8-6.5 15.9-15.6 15.9-8.2 0-12.9-4.1-15.5-9.1m39.7-2.1l7-3.8c2.5 4.2 5.8 7.6 12.5 7.6 5.5 0 9.5-3 9.5-7.5 0-4.7-3.2-6.8-9.1-9.5l-3.6-1.6c-7.9-3.5-12.7-7.5-12.7-15.9 0-8.1 6.2-13.8 15.3-13.8 7.2 0 12.1 2.7 15.4 8.5l-6.6 4.1c-2.1-3.6-4.5-5.3-8.7-5.3-4.3 0-7.1 2.6-7.1 6.3 0 4.1 2.3 5.9 7.8 8.3l3.5 1.6c9.3 4.1 14.2 8.4 14.2 17.1 0 9.5-7.5 15.1-17.7 15.1-10.4 0-16.6-5.1-19.7-11.2"/></svg>